<?xml version="1.0" encoding="UTF-8" standalone="no"?>
<!-- Generator: Adobe Illustrator 13.0.0, SVG Export Plug-In  -->

<svg
   xmlns:dc="http://purl.org/dc/elements/1.1/"
   xmlns:cc="http://creativecommons.org/ns#"
   xmlns:rdf="http://www.w3.org/1999/02/22-rdf-syntax-ns#"
   xmlns:svg="http://www.w3.org/2000/svg"
   xmlns="http://www.w3.org/2000/svg"
   xmlns:sodipodi="http://sodipodi.sourceforge.net/DTD/sodipodi-0.dtd"
   xmlns:inkscape="http://www.inkscape.org/namespaces/inkscape"
   version="1.1"
   x="0px"
   y="0px"
   width="457px"
   height="707px"
   viewBox="-0.648 -0.055 457 707"
   enable-background="new -0.648 -0.055 457 707"
   xml:space="preserve"
   id="svg2"
   inkscape:version="0.91 r13725"
   sodipodi:docname="Burning-Man_WIP.svg"><metadata
     id="metadata14"><rdf:RDF><cc:Work
         rdf:about=""><dc:format>image/svg+xml</dc:format><dc:type
           rdf:resource="http://purl.org/dc/dcmitype/StillImage" /><dc:title></dc:title></cc:Work></rdf:RDF></metadata><sodipodi:namedview
     pagecolor="#ffffff"
     bordercolor="#666666"
     borderopacity="1"
     objecttolerance="10"
     gridtolerance="10"
     guidetolerance="10"
     inkscape:pageopacity="0"
     inkscape:pageshadow="2"
     inkscape:window-width="1440"
     inkscape:window-height="775"
     id="namedview12"
     showgrid="false"
     inkscape:zoom="1.4142136"
     inkscape:cx="216.76749"
     inkscape:cy="496.57442"
     inkscape:window-x="0"
     inkscape:window-y="0"
     inkscape:window-maximized="1"
     inkscape:current-layer="svg2" /><defs
     id="defs4" /><path
     style="color:#000000;font-style:normal;font-variant:normal;font-weight:normal;font-stretch:normal;font-size:medium;line-height:normal;font-family:sans-serif;text-indent:0;text-align:start;text-decoration:none;text-decoration-line:none;text-decoration-style:solid;text-decoration-color:#000000;letter-spacing:normal;word-spacing:normal;text-transform:none;direction:ltr;block-progression:tb;writing-mode:lr-tb;baseline-shift:baseline;text-anchor:start;white-space:normal;clip-rule:nonzero;display:inline;overflow:visible;visibility:visible;opacity:1;isolation:auto;mix-blend-mode:normal;color-interpolation:sRGB;color-interpolation-filters:linearRGB;solid-color:#000000;solid-opacity:1;fill:none;fill-opacity:1;fill-rule:nonzero;stroke:#ff0000;stroke-width:1;stroke-linecap:butt;stroke-linejoin:miter;stroke-miterlimit:4;stroke-dasharray:none;stroke-dashoffset:0;stroke-opacity:1;color-rendering:auto;image-rendering:auto;shape-rendering:auto;text-rendering:auto;enable-background:accumulate"
     d="m 361.97841,683.67976 -0.25004,-0.54292 c 0,0 -0.44219,-0.95534 -0.78125,-1.69336 -0.67814,-1.47604 -1.66773,-3.64655 -2.92774,-6.45508 -2.52002,-5.61705 -6.11774,-13.78277 -10.43555,-24.00195 -8.6321,-20.43006 -20.14079,-49.06914 -31.64843,-81.88086 -7.3e-4,-0.002 -0.001,-0.004 -0.002,-0.006 -0.004,-0.0102 -0.008,-0.021 -0.0117,-0.0312 -22.99075,-65.90028 -45.93413,-148.06158 -46.08594,-215.23242 6.1e-4,-7.17433 0.27716,-14.17135 0.83203,-20.96875 5.88359,-67.2213 45.79699,-144.24814 84.55664,-205.58985 0.002,-0.003 0.002,-0.005 0.004,-0.008 19.40591,-30.462878 38.46278,-56.774503 52.66796,-75.458983 7.10318,-9.34301 12.99401,-16.780757 17.11133,-21.886719 2.05867,-2.552981 3.6729,-4.522385 4.77735,-5.859375 0.19461,-0.235588 0.28466,-0.342958 0.44726,-0.539062 l 1.25586,-1.486329"
     id="path8" /><path
     d="M207.821,203.555L146.225,95.76c-5.324-9.322-3.494-21.02,4.415-28.266l0,0l61.597-56.466  c8.769-8.049,22.201-8.049,30.969,0l0,0l61.597,56.466c7.907,7.235,9.736,18.944,4.415,28.266l0,0L247.62,203.555  c-4.062,7.104-11.711,11.541-19.897,11.541l0,0C219.542,215.096,211.884,210.658,207.821,203.555L207.821,203.555z M195.111,88.914  l32.606,57.07l32.617-57.081l-32.611-29.895L195.111,88.914L195.111,88.914z"
     id="path10" /><path
     id="path4154"
     d="m 91.22746,683.67976 0.25004,-0.54292 c 0,0 0.44219,-0.95534 0.78125,-1.69336 0.67814,-1.47604 1.66773,-3.64655 2.92774,-6.45508 2.52002,-5.61705 6.11774,-13.78277 10.43555,-24.00195 8.6321,-20.43006 20.14079,-49.06914 31.64843,-81.88086 7.3e-4,-0.002 0.001,-0.004 0.002,-0.006 0.004,-0.0102 0.008,-0.021 0.0117,-0.0312 22.99075,-65.90028 45.93413,-148.06158 46.08594,-215.23242 -6.1e-4,-7.17433 -0.27716,-14.17135 -0.83203,-20.96875 -5.88359,-67.2213 -45.79699,-144.24814 -84.55664,-205.58985 -0.002,-0.003 -0.002,-0.005 -0.004,-0.008 C 78.57153,96.806492 59.51466,70.494867 45.30948,51.810387 38.2063,42.467377 32.31547,35.02963 28.19815,29.923668 26.13948,27.370687 24.52525,25.401283 23.4208,24.064293 23.22619,23.828705 23.13614,23.721335 22.97354,23.525231 l -1.25586,-1.486329"
     style="color:#000000;font-style:normal;font-variant:normal;font-weight:normal;font-stretch:normal;font-size:medium;line-height:normal;font-family:sans-serif;text-indent:0;text-align:start;text-decoration:none;text-decoration-line:none;text-decoration-style:solid;text-decoration-color:#000000;letter-spacing:normal;word-spacing:normal;text-transform:none;direction:ltr;block-progression:tb;writing-mode:lr-tb;baseline-shift:baseline;text-anchor:start;white-space:normal;clip-rule:nonzero;display:inline;overflow:visible;visibility:visible;opacity:1;isolation:auto;mix-blend-mode:normal;color-interpolation:sRGB;color-interpolation-filters:linearRGB;solid-color:#000000;solid-opacity:1;fill:none;fill-opacity:1;fill-rule:nonzero;stroke:#ff0000;stroke-width:1;stroke-linecap:butt;stroke-linejoin:miter;stroke-miterlimit:4;stroke-dasharray:none;stroke-dashoffset:0;stroke-opacity:1;color-rendering:auto;image-rendering:auto;shape-rendering:auto;text-rendering:auto;enable-background:accumulate"
     inkscape:connector-curvature="0" /></svg>