<?xml version="1.0" encoding="UTF-8" standalone="no"?>
<svg
   xmlns:dc="http://purl.org/dc/elements/1.1/"
   xmlns:cc="http://creativecommons.org/ns#"
   xmlns:rdf="http://www.w3.org/1999/02/22-rdf-syntax-ns#"
   xmlns:svg="http://www.w3.org/2000/svg"
   xmlns="http://www.w3.org/2000/svg"
   xmlns:sodipodi="http://sodipodi.sourceforge.net/DTD/sodipodi-0.dtd"
   xmlns:inkscape="http://www.inkscape.org/namespaces/inkscape"
   version="1.1"
   width="420mm"
   height="297mm"
   viewBox="4.8 -9.6 1488.1895 1420.6889"
   id="svg2"
   inkscape:version="0.91 r13725"
   sodipodi:docname="Final Design_Man.svg">
  <metadata
     id="metadata14">
    <rdf:RDF>
      <cc:Work
         rdf:about="">
        <dc:format>image/svg+xml</dc:format>
        <dc:type
           rdf:resource="http://purl.org/dc/dcmitype/StillImage" />
        <dc:title></dc:title>
      </cc:Work>
    </rdf:RDF>
  </metadata>
  <defs
     id="defs12" />
  <sodipodi:namedview
     pagecolor="#ffffff"
     bordercolor="#666666"
     borderopacity="1"
     objecttolerance="10"
     gridtolerance="10"
     guidetolerance="10"
     inkscape:pageopacity="0"
     inkscape:pageshadow="2"
     inkscape:window-width="1441"
     inkscape:window-height="780"
     id="namedview10"
     showgrid="false"
     inkscape:zoom="1.75"
     inkscape:cx="186.30882"
     inkscape:cy="927.18173"
     inkscape:window-x="0"
     inkscape:window-y="0"
     inkscape:window-maximized="0"
     inkscape:current-layer="layer3"
     units="mm"
     showguides="false" />
  <g
     inkscape:groupmode="layer"
     id="layer1"
     inkscape:label="Components"
     style="display:none">
    <ellipse
       style="fill:#313133;fill-opacity:1;stroke:none;stroke-width:0.48148134;stroke-miterlimit:4;stroke-dasharray:none;stroke-opacity:1"
       id="path4285"
       cx="335.53098"
       cy="948.68347"
       rx="47.593899"
       ry="47.593906" />
    <rect
       style="fill:#313133;fill-opacity:1;stroke:none;stroke-width:0.13499999;stroke-miterlimit:4;stroke-dasharray:none;stroke-opacity:1"
       id="rect4287"
       width="35.87598"
       height="61.22834"
       x="248.74319"
       y="956.8783" />
    <ellipse
       ry="47.593906"
       rx="47.593899"
       cy="944.55603"
       cx="199.92668"
       id="ellipse4309"
       style="fill:#313133;fill-opacity:1;stroke:none;stroke-width:0.48148134;stroke-miterlimit:4;stroke-dasharray:none;stroke-opacity:1" />
  </g>
  <g
     inkscape:groupmode="layer"
     id="layer2"
     inkscape:label="Acrylic Sculpture"
     style="display:inline">
    <path
       inkscape:connector-curvature="0"
       style="color:#000000;font-style:normal;font-variant:normal;font-weight:normal;font-stretch:normal;font-size:medium;line-height:normal;font-family:sans-serif;text-indent:0;text-align:start;text-decoration:none;text-decoration-line:none;text-decoration-style:solid;text-decoration-color:#000000;letter-spacing:normal;word-spacing:normal;text-transform:none;direction:ltr;block-progression:tb;writing-mode:lr-tb;baseline-shift:baseline;text-anchor:start;white-space:normal;clip-rule:nonzero;display:inline;overflow:visible;visibility:visible;opacity:1;isolation:auto;mix-blend-mode:normal;color-interpolation:sRGB;color-interpolation-filters:linearRGB;solid-color:#000000;solid-opacity:1;fill:none;fill-opacity:1;fill-rule:nonzero;stroke:#ff0000;stroke-width:0.6116575;stroke-linecap:butt;stroke-linejoin:miter;stroke-miterlimit:4;stroke-dasharray:none;stroke-dashoffset:0;stroke-opacity:1;color-rendering:auto;image-rendering:auto;shape-rendering:auto;text-rendering:auto;enable-background:accumulate"
       d="m 89.22478,327.29058 -0.0866,-0.1903 c 0,0 -0.15318,-0.3308 -0.27062,-0.5868 -0.23492,-0.511 -0.5777,-1.2631 -1.01416,-2.2359 -0.87294,-1.946 -2.11919,-4.7746 -3.61487,-8.3145 -2.99015,-7.0766 -6.97676,-16.9972 -10.96299,-28.3632 -2.6e-4,0 -3.5e-4,0 -6.9e-4,-0.01 -0.001,-0.01 -0.003,0 -0.004,0 -7.96398,-22.8276 -15.91155,-51.28818 -15.96414,-74.55609 2.2e-4,-2.48557 0.096,-4.90914 0.28821,-7.26377 2.03807,-23.28556 15.86404,-49.96745 29.29034,-71.21593 6.9e-4,0 6.9e-4,0 10e-4,0 6.72218,-10.55222 13.32346,-19.66639 18.24413,-26.13861 2.46054,-3.23635 4.50111,-5.81301 5.92735,-7.58183 0.71313,-0.88396 1.27229,-1.5663 1.65487,-2.02935 0.0674,-0.0815 0.0986,-0.11779 0.15491,-0.18576 l 0.43504,-0.51515"
       id="path8" />
    <path
       id="path4154"
       d="m -46.99515,327.29058 0.0866,-0.1903 c 0,0 0.15318,-0.3308 0.27062,-0.5868 0.23492,-0.511 0.57769,-1.2631 1.01417,-2.2359 0.87293,-1.946 2.11918,-4.7746 3.61487,-8.3145 2.99014,-7.0766 6.97675,-16.9972 10.96298,-28.3632 2.5e-4,0 3.5e-4,0 6.8e-4,-0.01 0.001,-0.01 0.003,0 0.004,0 7.96397,-22.8276 15.91155,-51.28818 15.96413,-74.55609 -2.1e-4,-2.48557 -0.096,-4.90914 -0.2882,-7.26377 -2.03808,-23.28556 -15.86404,-49.96745 -29.29035,-71.21593 -6.9e-4,0 -6.9e-4,0 -10e-4,0 -6.72218,-10.55222 -13.32346,-19.66639 -18.24413,-26.13861 -2.46053,-3.23635 -4.50112,-5.81301 -5.92736,-7.58183 -0.71312,-0.88396 -1.27229,-1.5663 -1.65486,-2.02935 -0.0674,-0.0815 -0.0986,-0.11779 -0.15495,-0.18576 L -71.073,98.10339"
       style="color:#000000;font-style:normal;font-variant:normal;font-weight:normal;font-stretch:normal;font-size:medium;line-height:normal;font-family:sans-serif;text-indent:0;text-align:start;text-decoration:none;text-decoration-line:none;text-decoration-style:solid;text-decoration-color:#000000;letter-spacing:normal;word-spacing:normal;text-transform:none;direction:ltr;block-progression:tb;writing-mode:lr-tb;baseline-shift:baseline;text-anchor:start;white-space:normal;clip-rule:nonzero;display:inline;overflow:visible;visibility:visible;opacity:1;isolation:auto;mix-blend-mode:normal;color-interpolation:sRGB;color-interpolation-filters:linearRGB;solid-color:#000000;solid-opacity:1;fill:none;fill-opacity:1;fill-rule:nonzero;stroke:#ff0000;stroke-width:0.6116575;stroke-linecap:butt;stroke-linejoin:miter;stroke-miterlimit:4;stroke-dasharray:none;stroke-dashoffset:0;stroke-opacity:1;color-rendering:auto;image-rendering:auto;shape-rendering:auto;text-rendering:auto;enable-background:accumulate"
       inkscape:connector-curvature="0" />
    <g
       id="g4240"
       transform="translate(-0.28381306,10.628446)">
      <g
         style="display:none"
         inkscape:label="Components"
         id="layer1-9">
        <ellipse
           ry="47.593906"
           rx="47.593899"
           cy="948.68347"
           cx="335.53098"
           id="path4285-6"
           style="fill:#313133;fill-opacity:1;stroke:none;stroke-width:0.48148134;stroke-miterlimit:4;stroke-dasharray:none;stroke-opacity:1" />
        <rect
           y="956.8783"
           x="248.74319"
           height="61.22834"
           width="35.87598"
           id="rect4287-6"
           style="fill:#313133;fill-opacity:1;stroke:none;stroke-width:0.13499999;stroke-miterlimit:4;stroke-dasharray:none;stroke-opacity:1" />
        <ellipse
           style="fill:#313133;fill-opacity:1;stroke:none;stroke-width:0.48148134;stroke-miterlimit:4;stroke-dasharray:none;stroke-opacity:1"
           id="ellipse4309-6"
           cx="199.92668"
           cy="944.55603"
           rx="47.593899"
           ry="47.593906" />
      </g>
      <g
         style="display:inline"
         inkscape:label="Acrylic Sculpture"
         id="layer2-1" />
      <g
         style="display:inline"
         inkscape:label="Acrylic Cut"
         id="layer3-9">
        <path
           sodipodi:nodetypes="ccccc"
           inkscape:connector-curvature="0"
           id="rect4385"
           d="M 20.838425,93.319177 48.130411,120.61708 21.691293,169.75856 -5.6006889,119.76402 Z"
           style="fill:none;stroke:#ff0000;stroke-width:0.51025534;stroke-linejoin:miter;stroke-miterlimit:4;stroke-dasharray:none;stroke-opacity:1" />
      </g>
    </g>
  </g>
  <g
     inkscape:groupmode="layer"
     id="layer3"
     inkscape:label="Acrylic Cut"
     style="display:inline">
    <path
       style="display:inline;fill:none;stroke:#ff0000;stroke-width:0.45307964;stroke-miterlimit:4;stroke-dasharray:none;stroke-opacity:1"
       d="M 84.552734 37.476562 C 51.850452 37.476562 51.849609 77.187333 51.849609 94.142578 C 51.849609 112.57453 51.836907 167.07775 106.91797 171.72266 C 97.037475 179.38809 90.245731 188.06158 86.621094 197.66016 C 81.868792 210.22556 82.820887 223.90427 89.425781 238.32227 C 98.057788 257.08983 118.93396 277.33398 144.40039 277.33398 C 160.76496 277.33398 183.93488 268.8631 204.99805 230.68359 C 226.07464 268.8631 249.21967 277.33398 265.59766 277.33398 C 291.06409 277.33398 311.93831 257.09032 320.57031 238.34961 C 327.17521 223.93161 328.12926 210.2507 323.37695 197.67188 C 319.73889 188.05987 312.93152 179.38859 303.06445 171.75 C 322.99996 170.08535 337.70037 161.82932 346.77539 147.15625 C 354.52137 134.59084 358.14648 117.74299 358.14648 94.142578 C 358.14648 77.187333 358.14539 37.476562 325.42969 37.476562 C 319.20068 37.476562 312.15307 38.913285 303.81641 41.839844 C 281.00342 49.882477 253.11578 71.848306 231.33203 96.476562 L 208.45898 73.603516 C 206.57284 71.717374 203.53458 71.717374 201.64844 73.603516 L 178.71289 96.539062 C 156.92113 71.888682 129.00487 49.888419 106.16602 41.839844 C 97.84277 38.89986 90.768316 37.476563 84.552734 37.476562 z "
       transform="matrix(1.3499998,0,0,1.3499999,-255.63271,-9.6000004)"
       id="path4" />
    <ellipse
       style="fill:none;stroke:#ff0000;stroke-width:0.6074999;stroke-linejoin:miter;stroke-miterlimit:4;stroke-dasharray:none;stroke-opacity:1"
       id="path4257"
       cx="-146.08987"
       cy="64.946114"
       rx="5.7857132"
       ry="5.7857137" />
  </g>
</svg>
