<?xml version="1.0" encoding="UTF-8" standalone="no"?>
<svg
   xmlns:dc="http://purl.org/dc/elements/1.1/"
   xmlns:cc="http://creativecommons.org/ns#"
   xmlns:rdf="http://www.w3.org/1999/02/22-rdf-syntax-ns#"
   xmlns:svg="http://www.w3.org/2000/svg"
   xmlns="http://www.w3.org/2000/svg"
   xmlns:sodipodi="http://sodipodi.sourceforge.net/DTD/sodipodi-0.dtd"
   xmlns:inkscape="http://www.inkscape.org/namespaces/inkscape"
   id="svg2"
   viewBox="4.8 -9.6 1488.1895 1420.6889"
   height="297mm"
   width="420mm"
   version="1.1"
   inkscape:version="0.91 r13725"
   sodipodi:docname="Final Design_Man_12.svg">
  <sodipodi:namedview
     pagecolor="#ffffff"
     bordercolor="#666666"
     borderopacity="1"
     objecttolerance="10"
     gridtolerance="10"
     guidetolerance="10"
     inkscape:pageopacity="0"
     inkscape:pageshadow="2"
     inkscape:window-width="666"
     inkscape:window-height="480"
     id="namedview23"
     showgrid="false"
     inkscape:zoom="0.20830688"
     inkscape:cx="105.61341"
     inkscape:cy="526.1811"
     inkscape:window-x="0"
     inkscape:window-y="0"
     inkscape:window-maximized="0"
     inkscape:current-layer="svg2" />
  <metadata
     id="metadata14">
    <rdf:RDF>
      <cc:Work
         rdf:about="">
        <dc:format>image/svg+xml</dc:format>
        <dc:type
           rdf:resource="http://purl.org/dc/dcmitype/StillImage" />
        <dc:title />
      </cc:Work>
    </rdf:RDF>
  </metadata>
  <defs
     id="defs12" />
  <g
     style="display:none"
     id="layer1">
    <ellipse
       ry="47.593906"
       rx="47.593899"
       cy="948.68347"
       cx="335.53098"
       id="path4285"
       style="fill:#313133;fill-opacity:1;stroke:none;stroke-width:0.48148134;stroke-miterlimit:4;stroke-dasharray:none;stroke-opacity:1" />
    <rect
       y="956.8783"
       x="248.74319"
       height="61.22834"
       width="35.87598"
       id="rect4287"
       style="fill:#313133;fill-opacity:1;stroke:none;stroke-width:0.13499999;stroke-miterlimit:4;stroke-dasharray:none;stroke-opacity:1" />
    <ellipse
       style="fill:#313133;fill-opacity:1;stroke:none;stroke-width:0.48148134;stroke-miterlimit:4;stroke-dasharray:none;stroke-opacity:1"
       id="ellipse4309"
       cx="199.92668"
       cy="944.55603"
       rx="47.593899"
       ry="47.593906" />
  </g>
  <g
     style="display:inline"
     id="layer2">
    <path
       id="path8"
       d="m 89.22478,327.29058 -0.0866,-0.1903 c 0,0 -0.15318,-0.3308 -0.27062,-0.5868 -0.23492,-0.511 -0.5777,-1.2631 -1.01416,-2.2359 -0.87294,-1.946 -2.11919,-4.7746 -3.61487,-8.3145 -2.99015,-7.0766 -6.97676,-16.9972 -10.96299,-28.3632 -2.6e-4,0 -3.5e-4,0 -6.9e-4,-0.01 -0.001,-0.01 -0.003,0 -0.004,0 -7.96398,-22.8276 -15.91155,-51.28818 -15.96414,-74.55609 2.2e-4,-2.48557 0.096,-4.90914 0.28821,-7.26377 2.03807,-23.28556 15.86404,-49.96745 29.29034,-71.21593 6.9e-4,0 6.9e-4,0 10e-4,0 6.72218,-10.55222 13.32346,-19.66639 18.24413,-26.13861 2.46054,-3.23635 4.50111,-5.81301 5.92735,-7.58183 0.71313,-0.88396 1.27229,-1.5663 1.65487,-2.02935 0.0674,-0.0815 0.0986,-0.11779 0.15491,-0.18576 l 0.43504,-0.51515"
       style="color:#000000;font-style:normal;font-variant:normal;font-weight:normal;font-stretch:normal;font-size:medium;line-height:normal;font-family:sans-serif;text-indent:0;text-align:start;text-decoration:none;text-decoration-line:none;text-decoration-style:solid;text-decoration-color:#000000;letter-spacing:normal;word-spacing:normal;text-transform:none;direction:ltr;block-progression:tb;writing-mode:lr-tb;baseline-shift:baseline;text-anchor:start;white-space:normal;clip-rule:nonzero;display:inline;overflow:visible;visibility:visible;opacity:1;isolation:auto;mix-blend-mode:normal;color-interpolation:sRGB;color-interpolation-filters:linearRGB;solid-color:#000000;solid-opacity:1;fill:none;fill-opacity:1;fill-rule:nonzero;stroke:#ff0000;stroke-width:0.6116575;stroke-linecap:butt;stroke-linejoin:miter;stroke-miterlimit:4;stroke-dasharray:none;stroke-dashoffset:0;stroke-opacity:1;color-rendering:auto;image-rendering:auto;shape-rendering:auto;text-rendering:auto;enable-background:accumulate" />
    <path
       style="color:#000000;font-style:normal;font-variant:normal;font-weight:normal;font-stretch:normal;font-size:medium;line-height:normal;font-family:sans-serif;text-indent:0;text-align:start;text-decoration:none;text-decoration-line:none;text-decoration-style:solid;text-decoration-color:#000000;letter-spacing:normal;word-spacing:normal;text-transform:none;direction:ltr;block-progression:tb;writing-mode:lr-tb;baseline-shift:baseline;text-anchor:start;white-space:normal;clip-rule:nonzero;display:inline;overflow:visible;visibility:visible;opacity:1;isolation:auto;mix-blend-mode:normal;color-interpolation:sRGB;color-interpolation-filters:linearRGB;solid-color:#000000;solid-opacity:1;fill:none;fill-opacity:1;fill-rule:nonzero;stroke:#ff0000;stroke-width:0.6116575;stroke-linecap:butt;stroke-linejoin:miter;stroke-miterlimit:4;stroke-dasharray:none;stroke-dashoffset:0;stroke-opacity:1;color-rendering:auto;image-rendering:auto;shape-rendering:auto;text-rendering:auto;enable-background:accumulate"
       d="m -46.99515,327.29058 0.0866,-0.1903 c 0,0 0.15318,-0.3308 0.27062,-0.5868 0.23492,-0.511 0.57769,-1.2631 1.01417,-2.2359 0.87293,-1.946 2.11918,-4.7746 3.61487,-8.3145 2.99014,-7.0766 6.97675,-16.9972 10.96298,-28.3632 2.5e-4,0 3.5e-4,0 6.8e-4,-0.01 0.001,-0.01 0.003,0 0.004,0 7.96397,-22.8276 15.91155,-51.28818 15.96413,-74.55609 -2.1e-4,-2.48557 -0.096,-4.90914 -0.2882,-7.26377 -2.03808,-23.28556 -15.86404,-49.96745 -29.29035,-71.21593 -6.9e-4,0 -6.9e-4,0 -10e-4,0 -6.72218,-10.55222 -13.32346,-19.66639 -18.24413,-26.13861 -2.46053,-3.23635 -4.50112,-5.81301 -5.92736,-7.58183 -0.71312,-0.88396 -1.27229,-1.5663 -1.65486,-2.02935 -0.0674,-0.0815 -0.0986,-0.11779 -0.15495,-0.18576 L -71.073,98.10339"
       id="path4154" />
    <g
       transform="translate(-0.28381306,10.628446)"
       id="g4240">
      <g
         id="layer1-9"
         style="display:none">
        <ellipse
           style="fill:#313133;fill-opacity:1;stroke:none;stroke-width:0.48148134;stroke-miterlimit:4;stroke-dasharray:none;stroke-opacity:1"
           id="path4285-6"
           cx="335.53098"
           cy="948.68347"
           rx="47.593899"
           ry="47.593906" />
        <rect
           style="fill:#313133;fill-opacity:1;stroke:none;stroke-width:0.13499999;stroke-miterlimit:4;stroke-dasharray:none;stroke-opacity:1"
           id="rect4287-6"
           width="35.87598"
           height="61.22834"
           x="248.74319"
           y="956.8783" />
        <ellipse
           ry="47.593906"
           rx="47.593899"
           cy="944.55603"
           cx="199.92668"
           id="ellipse4309-6"
           style="fill:#313133;fill-opacity:1;stroke:none;stroke-width:0.48148134;stroke-miterlimit:4;stroke-dasharray:none;stroke-opacity:1" />
      </g>
      <g
         id="layer2-1"
         style="display:inline" />
      <g
         id="layer3-9"
         style="display:inline">
        <path
           style="fill:none;stroke:#ff0000;stroke-width:0.51025534;stroke-linejoin:miter;stroke-miterlimit:4;stroke-dasharray:none;stroke-opacity:1"
           d="M 20.838425,93.319177 48.130411,120.61708 21.691293,169.75856 -5.6006889,119.76402 Z"
           id="rect4385" />
      </g>
    </g>
  </g>
  <path
     inkscape:connector-curvature="0"
     style="display:inline;fill:none;stroke:#ff0000;stroke-width:0.61165744;stroke-miterlimit:4;stroke-dasharray:none;stroke-opacity:1"
     d="m -141.48654,40.993355 c -44.14807,0 -44.14921,53.609536 -44.14921,76.499115 0,24.88313 -0.0171,98.46248 74.34228,104.7331 -13.33867,10.34833 -22.50752,22.05754 -27.40078,35.01563 -6.41561,16.96328 -5.13028,35.42954 3.78633,54.89384 11.6532,25.3362 39.836032,52.6658 74.215708,52.6658 22.092166,0 53.3715532,-11.43568 81.806829,-62.97802 28.453392,51.54234 59.699178,62.97802 81.809463,62.97802 34.37967,0 62.55987,-27.32893 74.21306,-52.62889 8.91662,-19.4643 10.20459,-37.93353 3.78897,-54.91493 -4.91138,-12.97621 -14.10133,-24.68244 -27.42187,-34.99454 26.91293,-2.24727 46.75848,-13.39291 59.00976,-33.20156 10.45707,-16.9633 15.35097,-39.7079 15.35097,-71.56845 0,-22.889579 -0.001,-76.499115 -44.16766,-76.499115 -8.40917,0 -17.92344,1.939575 -29.17793,5.89043 C 123.72185,57.741339 86.073542,87.395206 56.665484,120.64335 L 25.786871,89.764739 c -2.546288,-2.546292 -6.647939,-2.546292 -9.194227,0 L -14.370344,120.72772 C -43.789216,87.449713 -81.476161,57.74936 -112.3086,46.883785 c -11.23639,-3.968978 -20.7869,-5.890429 -29.17794,-5.89043 z"
     id="path4" />
</svg>
