<?xml version="1.0" encoding="UTF-8" standalone="no"?>
<svg
   xmlns:dc="http://purl.org/dc/elements/1.1/"
   xmlns:cc="http://creativecommons.org/ns#"
   xmlns:rdf="http://www.w3.org/1999/02/22-rdf-syntax-ns#"
   xmlns:svg="http://www.w3.org/2000/svg"
   xmlns="http://www.w3.org/2000/svg"
   id="svg2"
   viewBox="4.8 -9.6 956.69325 1530.7086"
   height="320mm"
   width="270mm"
   version="1.1">
  <metadata
     id="metadata14">
    <rdf:RDF>
      <cc:Work
         rdf:about="">
        <dc:format>image/svg+xml</dc:format>
        <dc:type
           rdf:resource="http://purl.org/dc/dcmitype/StillImage" />
        <dc:title></dc:title>
      </cc:Work>
    </rdf:RDF>
  </metadata>
  <defs
     id="defs12" />
  <g
     id="layer1">
    <g
       id="g4277">
      <path
         transform="translate(1.1696166e-6,110.01968)"
         style="display:inline;color:#000000;font-style:normal;font-variant:normal;font-weight:normal;font-stretch:normal;font-size:medium;line-height:normal;font-family:sans-serif;text-indent:0;text-align:start;text-decoration:none;text-decoration-line:none;text-decoration-style:solid;text-decoration-color:#000000;letter-spacing:normal;word-spacing:normal;text-transform:none;direction:ltr;block-progression:tb;writing-mode:lr-tb;baseline-shift:baseline;text-anchor:start;white-space:normal;clip-rule:nonzero;overflow:visible;visibility:visible;opacity:1;isolation:auto;mix-blend-mode:normal;color-interpolation:sRGB;color-interpolation-filters:linearRGB;solid-color:#000000;solid-opacity:1;fill:none;fill-opacity:1;fill-rule:nonzero;stroke:#ff0000;stroke-width:0.6116575;stroke-linecap:butt;stroke-linejoin:miter;stroke-miterlimit:4;stroke-dasharray:none;stroke-dashoffset:0;stroke-opacity:1;color-rendering:auto;image-rendering:auto;shape-rendering:auto;text-rendering:auto;enable-background:accumulate"
         d="m 124.75797,176.70027 -0.0866,-0.1903 c 0,0 -0.15318,-0.3308 -0.27062,-0.5868 -0.23492,-0.511 -0.5777,-1.2631 -1.01416,-2.2359 -0.87294,-1.946 -2.11919,-4.7746 -3.61487,-8.3145 -2.99015,-7.0766 -6.97676,-16.9972 -10.96299,-28.3632 -2.6e-4,0 -3.5e-4,0 -6.9e-4,-0.01 -0.001,-0.01 -0.003,0 -0.004,0 -7.96398,-22.8276 -15.911548,-51.28818 -15.964138,-74.55609 2.2e-4,-2.48557 0.096,-4.90914 0.28821,-7.26377 2.03807,-23.28556 15.864038,-49.96745 29.290338,-71.21593 6.9e-4,0 6.9e-4,0 10e-4,0 6.72218,-10.55222 13.32346,-19.66639 18.24413,-26.13861 2.46054,-3.23635 4.50111,-5.81301 5.92735,-7.58183 0.71313,-0.88396 1.27229,-1.5663 1.65487,-2.02935 0.0674,-0.0815 0.0986,-0.11779 0.15491,-0.18576 l 0.43504,-0.51515"
         id="path8" />
      <path
         transform="translate(1.1696166e-6,110.01968)"
         id="path4154"
         d="m -11.461958,176.70027 0.0866,-0.1903 c 0,0 0.15318,-0.3308 0.27062,-0.5868 0.23492,-0.511 0.57769,-1.2631 1.01417,-2.2359 0.87293,-1.946 2.11918,-4.7746 3.61487,-8.3145 2.99014,-7.0766 6.97675,-16.9972 10.96298,-28.3632 2.5e-4,0 3.5e-4,0 6.8e-4,-0.01 0.001,-0.01 0.003,0 0.004,0 7.96397,-22.8276 15.91155,-51.28818 15.96413,-74.55609 -2.1e-4,-2.48557 -0.096,-4.90914 -0.2882,-7.26377 -2.03808,-23.28556 -15.86404,-49.96745 -29.29035,-71.21593 -6.9e-4,0 -6.9e-4,0 -10e-4,0 -6.72218,-10.55222 -13.32346,-19.66639 -18.24413,-26.13861 -2.46053,-3.23635 -4.50112,-5.81301 -5.92736,-7.58183 -0.71312,-0.88396 -1.27229,-1.5663 -1.65486,-2.02935 -0.0674,-0.0815 -0.0986,-0.11779 -0.15495,-0.18576 l -0.43505,-0.51515"
         style="display:inline;color:#000000;font-style:normal;font-variant:normal;font-weight:normal;font-stretch:normal;font-size:medium;line-height:normal;font-family:sans-serif;text-indent:0;text-align:start;text-decoration:none;text-decoration-line:none;text-decoration-style:solid;text-decoration-color:#000000;letter-spacing:normal;word-spacing:normal;text-transform:none;direction:ltr;block-progression:tb;writing-mode:lr-tb;baseline-shift:baseline;text-anchor:start;white-space:normal;clip-rule:nonzero;overflow:visible;visibility:visible;opacity:1;isolation:auto;mix-blend-mode:normal;color-interpolation:sRGB;color-interpolation-filters:linearRGB;solid-color:#000000;solid-opacity:1;fill:none;fill-opacity:1;fill-rule:nonzero;stroke:#ff0000;stroke-width:0.6116575;stroke-linecap:butt;stroke-linejoin:miter;stroke-miterlimit:4;stroke-dasharray:none;stroke-dashoffset:0;stroke-opacity:1;color-rendering:auto;image-rendering:auto;shape-rendering:auto;text-rendering:auto;enable-background:accumulate" />
      <g
         style="display:inline"
         id="g4240"
         transform="translate(35.249377,-29.94219)">
        <g
           style="display:none"
           id="layer1-9">
          <ellipse
             ry="47.593906"
             rx="47.593899"
             cy="948.68347"
             cx="335.53098"
             id="path4285-6"
             style="fill:#313133;fill-opacity:1;stroke:none;stroke-width:0.48148134;stroke-miterlimit:4;stroke-dasharray:none;stroke-opacity:1" />
          <rect
             y="956.8783"
             x="248.74319"
             height="61.22834"
             width="35.87598"
             id="rect4287-6"
             style="fill:#313133;fill-opacity:1;stroke:none;stroke-width:0.13499999;stroke-miterlimit:4;stroke-dasharray:none;stroke-opacity:1" />
          <ellipse
             style="fill:#313133;fill-opacity:1;stroke:none;stroke-width:0.48148134;stroke-miterlimit:4;stroke-dasharray:none;stroke-opacity:1"
             id="ellipse4309-6"
             cx="199.92668"
             cy="944.55603"
             rx="47.593899"
             ry="47.593906" />
        </g>
        <g
           style="display:inline"
           id="layer2-1" />
        <g
           style="display:inline"
           id="layer3-9">
          <path
             id="rect4385"
             d="M 20.838425,93.319177 48.130411,120.61708 21.691293,169.75856 -5.6006889,119.76402 Z"
             style="fill:none;stroke:#ff0000;stroke-width:0.51025534;stroke-linejoin:miter;stroke-miterlimit:4;stroke-dasharray:none;stroke-opacity:1" />
        </g>
      </g>
      <path
         transform="translate(1.1696166e-6,110.01968)"
         style="display:inline;fill:none;stroke:#ff0000;stroke-width:0.61165744;stroke-miterlimit:4;stroke-dasharray:none;stroke-opacity:1"
         d="m -105.95335,-109.59696 c -44.14807,0 -44.14921,53.609542 -44.14921,76.499121 0,24.8831332 -0.0171,98.462475 74.342278,104.733103 -13.338666,10.34833 -22.507519,22.05754 -27.400778,35.015626 -6.41561,16.96328 -5.13028,35.42954 3.786326,54.89384 11.653208,25.3362 39.836036,52.66581 74.215712,52.66581 22.0921658,0 53.371553,-11.43569 81.806829,-62.97803 28.453392,51.54234 59.699173,62.97803 81.809463,62.97803 34.37967,0 62.55987,-27.32894 74.21306,-52.6289 8.91662,-19.4643 10.20459,-37.93353 3.78897,-54.91493 -4.91138,-12.976214 -14.10133,-24.682441 -27.42187,-34.994537 26.91293,-2.247278 46.75848,-13.392917 59.00976,-33.20156 10.45707,-16.963302 15.35097,-39.7078983 15.35097,-71.568452 0,-22.889579 -0.001,-76.499121 -44.16766,-76.499121 -8.40917,0 -17.92344,1.93958 -29.17793,5.89044 -30.79753,10.857549 -68.44584,40.511416 -97.853896,73.759559 l -30.878613,-30.87861 c -2.546288,-2.546291 -6.647939,-2.546291 -9.194227,0 l -30.962988,30.962985 c -29.4188719,-33.27801 -67.105817,-62.978363 -97.93826,-73.843934 -11.236386,-3.96898 -20.786898,-5.89043 -29.177936,-5.89044 z"
         id="path4" />
    </g>
    <g
       transform="translate(847.79996,0)"
       id="g4290">
      <path
         id="path4292"
         d="m 124.75797,176.70027 -0.0866,-0.1903 c 0,0 -0.15318,-0.3308 -0.27062,-0.5868 -0.23492,-0.511 -0.5777,-1.2631 -1.01416,-2.2359 -0.87294,-1.946 -2.11919,-4.7746 -3.61487,-8.3145 -2.99015,-7.0766 -6.97676,-16.9972 -10.96299,-28.3632 -2.6e-4,0 -3.5e-4,0 -6.9e-4,-0.01 -0.001,-0.01 -0.003,0 -0.004,0 -7.96398,-22.8276 -15.911548,-51.28818 -15.964138,-74.55609 2.2e-4,-2.48557 0.096,-4.90914 0.28821,-7.26377 2.03807,-23.28556 15.864038,-49.96745 29.290338,-71.21593 6.9e-4,0 6.9e-4,0 10e-4,0 6.72218,-10.55222 13.32346,-19.66639 18.24413,-26.13861 2.46054,-3.23635 4.50111,-5.81301 5.92735,-7.58183 0.71313,-0.88396 1.27229,-1.5663 1.65487,-2.02935 0.0674,-0.0815 0.0986,-0.11779 0.15491,-0.18576 l 0.43504,-0.51515"
         style="color:#000000;font-style:normal;font-variant:normal;font-weight:normal;font-stretch:normal;font-size:medium;line-height:normal;font-family:sans-serif;text-indent:0;text-align:start;text-decoration:none;text-decoration-line:none;text-decoration-style:solid;text-decoration-color:#000000;letter-spacing:normal;word-spacing:normal;text-transform:none;direction:ltr;block-progression:tb;writing-mode:lr-tb;baseline-shift:baseline;text-anchor:start;white-space:normal;clip-rule:nonzero;display:inline;overflow:visible;visibility:visible;opacity:1;isolation:auto;mix-blend-mode:normal;color-interpolation:sRGB;color-interpolation-filters:linearRGB;solid-color:#000000;solid-opacity:1;fill:none;fill-opacity:1;fill-rule:nonzero;stroke:#ff0000;stroke-width:0.6116575;stroke-linecap:butt;stroke-linejoin:miter;stroke-miterlimit:4;stroke-dasharray:none;stroke-dashoffset:0;stroke-opacity:1;color-rendering:auto;image-rendering:auto;shape-rendering:auto;text-rendering:auto;enable-background:accumulate"
         transform="translate(1.1696166e-6,110.01968)" />
      <path
         style="color:#000000;font-style:normal;font-variant:normal;font-weight:normal;font-stretch:normal;font-size:medium;line-height:normal;font-family:sans-serif;text-indent:0;text-align:start;text-decoration:none;text-decoration-line:none;text-decoration-style:solid;text-decoration-color:#000000;letter-spacing:normal;word-spacing:normal;text-transform:none;direction:ltr;block-progression:tb;writing-mode:lr-tb;baseline-shift:baseline;text-anchor:start;white-space:normal;clip-rule:nonzero;display:inline;overflow:visible;visibility:visible;opacity:1;isolation:auto;mix-blend-mode:normal;color-interpolation:sRGB;color-interpolation-filters:linearRGB;solid-color:#000000;solid-opacity:1;fill:none;fill-opacity:1;fill-rule:nonzero;stroke:#ff0000;stroke-width:0.6116575;stroke-linecap:butt;stroke-linejoin:miter;stroke-miterlimit:4;stroke-dasharray:none;stroke-dashoffset:0;stroke-opacity:1;color-rendering:auto;image-rendering:auto;shape-rendering:auto;text-rendering:auto;enable-background:accumulate"
         d="m -11.461958,176.70027 0.0866,-0.1903 c 0,0 0.15318,-0.3308 0.27062,-0.5868 0.23492,-0.511 0.57769,-1.2631 1.01417,-2.2359 0.87293,-1.946 2.11918,-4.7746 3.61487,-8.3145 2.99014,-7.0766 6.97675,-16.9972 10.96298,-28.3632 2.5e-4,0 3.5e-4,0 6.8e-4,-0.01 0.001,-0.01 0.003,0 0.004,0 7.96397,-22.8276 15.91155,-51.28818 15.96413,-74.55609 -2.1e-4,-2.48557 -0.096,-4.90914 -0.2882,-7.26377 -2.03808,-23.28556 -15.86404,-49.96745 -29.29035,-71.21593 -6.9e-4,0 -6.9e-4,0 -10e-4,0 -6.72218,-10.55222 -13.32346,-19.66639 -18.24413,-26.13861 -2.46053,-3.23635 -4.50112,-5.81301 -5.92736,-7.58183 -0.71312,-0.88396 -1.27229,-1.5663 -1.65486,-2.02935 -0.0674,-0.0815 -0.0986,-0.11779 -0.15495,-0.18576 l -0.43505,-0.51515"
         id="path4294"
         transform="translate(1.1696166e-6,110.01968)" />
      <g
         transform="translate(35.249377,-29.94219)"
         id="g4296"
         style="display:inline">
        <g
           id="g4298"
           style="display:none">
          <ellipse
             style="fill:#313133;fill-opacity:1;stroke:none;stroke-width:0.48148134;stroke-miterlimit:4;stroke-dasharray:none;stroke-opacity:1"
             id="ellipse4300"
             cx="335.53098"
             cy="948.68347"
             rx="47.593899"
             ry="47.593906" />
          <rect
             style="fill:#313133;fill-opacity:1;stroke:none;stroke-width:0.13499999;stroke-miterlimit:4;stroke-dasharray:none;stroke-opacity:1"
             id="rect4302"
             width="35.87598"
             height="61.22834"
             x="248.74319"
             y="956.8783" />
          <ellipse
             ry="47.593906"
             rx="47.593899"
             cy="944.55603"
             cx="199.92668"
             id="ellipse4304"
             style="fill:#313133;fill-opacity:1;stroke:none;stroke-width:0.48148134;stroke-miterlimit:4;stroke-dasharray:none;stroke-opacity:1" />
        </g>
        <g
           id="g4306"
           style="display:inline" />
        <g
           id="g4308"
           style="display:inline">
          <path
             style="fill:none;stroke:#ff0000;stroke-width:0.51025534;stroke-linejoin:miter;stroke-miterlimit:4;stroke-dasharray:none;stroke-opacity:1"
             d="M 20.838425,93.319177 48.130411,120.61708 21.691293,169.75856 -5.6006889,119.76402 Z"
             id="path4310" />
        </g>
      </g>
      <path
         id="path4312"
         d="m -105.95335,-109.59696 c -44.14807,0 -44.14921,53.609542 -44.14921,76.499121 0,24.8831332 -0.0171,98.462475 74.342278,104.733103 -13.338666,10.34833 -22.507519,22.05754 -27.400778,35.015626 -6.41561,16.96328 -5.13028,35.42954 3.786326,54.89384 11.653208,25.3362 39.836036,52.66581 74.215712,52.66581 22.0921658,0 53.371553,-11.43569 81.806829,-62.97803 28.453392,51.54234 59.699173,62.97803 81.809463,62.97803 34.37967,0 62.55987,-27.32894 74.21306,-52.6289 8.91662,-19.4643 10.20459,-37.93353 3.78897,-54.91493 -4.91138,-12.976214 -14.10133,-24.682441 -27.42187,-34.994537 26.91293,-2.247278 46.75848,-13.392917 59.00976,-33.20156 10.45707,-16.963302 15.35097,-39.7078983 15.35097,-71.568452 0,-22.889579 -0.001,-76.499121 -44.16766,-76.499121 -8.40917,0 -17.92344,1.93958 -29.17793,5.89044 -30.79753,10.857549 -68.44584,40.511416 -97.853896,73.759559 l -30.878613,-30.87861 c -2.546288,-2.546291 -6.647939,-2.546291 -9.194227,0 l -30.962988,30.962985 c -29.4188719,-33.27801 -67.105817,-62.978363 -97.93826,-73.843934 -11.236386,-3.96898 -20.786898,-5.89043 -29.177936,-5.89044 z"
         style="display:inline;fill:none;stroke:#ff0000;stroke-width:0.61165744;stroke-miterlimit:4;stroke-dasharray:none;stroke-opacity:1"
         transform="translate(1.1696166e-6,110.01968)" />
    </g>
    <g
       id="g4314"
       transform="translate(426.59998,0)">
      <path
         transform="translate(1.1696166e-6,110.01968)"
         style="color:#000000;font-style:normal;font-variant:normal;font-weight:normal;font-stretch:normal;font-size:medium;line-height:normal;font-family:sans-serif;text-indent:0;text-align:start;text-decoration:none;text-decoration-line:none;text-decoration-style:solid;text-decoration-color:#000000;letter-spacing:normal;word-spacing:normal;text-transform:none;direction:ltr;block-progression:tb;writing-mode:lr-tb;baseline-shift:baseline;text-anchor:start;white-space:normal;clip-rule:nonzero;display:inline;overflow:visible;visibility:visible;opacity:1;isolation:auto;mix-blend-mode:normal;color-interpolation:sRGB;color-interpolation-filters:linearRGB;solid-color:#000000;solid-opacity:1;fill:none;fill-opacity:1;fill-rule:nonzero;stroke:#ff0000;stroke-width:0.6116575;stroke-linecap:butt;stroke-linejoin:miter;stroke-miterlimit:4;stroke-dasharray:none;stroke-dashoffset:0;stroke-opacity:1;color-rendering:auto;image-rendering:auto;shape-rendering:auto;text-rendering:auto;enable-background:accumulate"
         d="m 124.75797,176.70027 -0.0866,-0.1903 c 0,0 -0.15318,-0.3308 -0.27062,-0.5868 -0.23492,-0.511 -0.5777,-1.2631 -1.01416,-2.2359 -0.87294,-1.946 -2.11919,-4.7746 -3.61487,-8.3145 -2.99015,-7.0766 -6.97676,-16.9972 -10.96299,-28.3632 -2.6e-4,0 -3.5e-4,0 -6.9e-4,-0.01 -0.001,-0.01 -0.003,0 -0.004,0 -7.96398,-22.8276 -15.911548,-51.28818 -15.964138,-74.55609 2.2e-4,-2.48557 0.096,-4.90914 0.28821,-7.26377 2.03807,-23.28556 15.864038,-49.96745 29.290338,-71.21593 6.9e-4,0 6.9e-4,0 10e-4,0 6.72218,-10.55222 13.32346,-19.66639 18.24413,-26.13861 2.46054,-3.23635 4.50111,-5.81301 5.92735,-7.58183 0.71313,-0.88396 1.27229,-1.5663 1.65487,-2.02935 0.0674,-0.0815 0.0986,-0.11779 0.15491,-0.18576 l 0.43504,-0.51515"
         id="path4316" />
      <path
         transform="translate(1.1696166e-6,110.01968)"
         id="path4318"
         d="m -11.461958,176.70027 0.0866,-0.1903 c 0,0 0.15318,-0.3308 0.27062,-0.5868 0.23492,-0.511 0.57769,-1.2631 1.01417,-2.2359 0.87293,-1.946 2.11918,-4.7746 3.61487,-8.3145 2.99014,-7.0766 6.97675,-16.9972 10.96298,-28.3632 2.5e-4,0 3.5e-4,0 6.8e-4,-0.01 0.001,-0.01 0.003,0 0.004,0 7.96397,-22.8276 15.91155,-51.28818 15.96413,-74.55609 -2.1e-4,-2.48557 -0.096,-4.90914 -0.2882,-7.26377 -2.03808,-23.28556 -15.86404,-49.96745 -29.29035,-71.21593 -6.9e-4,0 -6.9e-4,0 -10e-4,0 -6.72218,-10.55222 -13.32346,-19.66639 -18.24413,-26.13861 -2.46053,-3.23635 -4.50112,-5.81301 -5.92736,-7.58183 -0.71312,-0.88396 -1.27229,-1.5663 -1.65486,-2.02935 -0.0674,-0.0815 -0.0986,-0.11779 -0.15495,-0.18576 l -0.43505,-0.51515"
         style="color:#000000;font-style:normal;font-variant:normal;font-weight:normal;font-stretch:normal;font-size:medium;line-height:normal;font-family:sans-serif;text-indent:0;text-align:start;text-decoration:none;text-decoration-line:none;text-decoration-style:solid;text-decoration-color:#000000;letter-spacing:normal;word-spacing:normal;text-transform:none;direction:ltr;block-progression:tb;writing-mode:lr-tb;baseline-shift:baseline;text-anchor:start;white-space:normal;clip-rule:nonzero;display:inline;overflow:visible;visibility:visible;opacity:1;isolation:auto;mix-blend-mode:normal;color-interpolation:sRGB;color-interpolation-filters:linearRGB;solid-color:#000000;solid-opacity:1;fill:none;fill-opacity:1;fill-rule:nonzero;stroke:#ff0000;stroke-width:0.6116575;stroke-linecap:butt;stroke-linejoin:miter;stroke-miterlimit:4;stroke-dasharray:none;stroke-dashoffset:0;stroke-opacity:1;color-rendering:auto;image-rendering:auto;shape-rendering:auto;text-rendering:auto;enable-background:accumulate" />
      <g
         style="display:inline"
         id="g4320"
         transform="translate(35.249377,-29.94219)">
        <g
           style="display:none"
           id="g4322">
          <ellipse
             ry="47.593906"
             rx="47.593899"
             cy="948.68347"
             cx="335.53098"
             id="ellipse4324"
             style="fill:#313133;fill-opacity:1;stroke:none;stroke-width:0.48148134;stroke-miterlimit:4;stroke-dasharray:none;stroke-opacity:1" />
          <rect
             y="956.8783"
             x="248.74319"
             height="61.22834"
             width="35.87598"
             id="rect4326"
             style="fill:#313133;fill-opacity:1;stroke:none;stroke-width:0.13499999;stroke-miterlimit:4;stroke-dasharray:none;stroke-opacity:1" />
          <ellipse
             style="fill:#313133;fill-opacity:1;stroke:none;stroke-width:0.48148134;stroke-miterlimit:4;stroke-dasharray:none;stroke-opacity:1"
             id="ellipse4328"
             cx="199.92668"
             cy="944.55603"
             rx="47.593899"
             ry="47.593906" />
        </g>
        <g
           style="display:inline"
           id="g4330" />
        <g
           style="display:inline"
           id="g4332">
          <path
             id="path4334"
             d="M 20.838425,93.319177 48.130411,120.61708 21.691293,169.75856 -5.6006889,119.76402 Z"
             style="fill:none;stroke:#ff0000;stroke-width:0.51025534;stroke-linejoin:miter;stroke-miterlimit:4;stroke-dasharray:none;stroke-opacity:1" />
        </g>
      </g>
      <path
         transform="translate(1.1696166e-6,110.01968)"
         style="display:inline;fill:none;stroke:#ff0000;stroke-width:0.61165744;stroke-miterlimit:4;stroke-dasharray:none;stroke-opacity:1"
         d="m -105.95335,-109.59696 c -44.14807,0 -44.14921,53.609542 -44.14921,76.499121 0,24.8831332 -0.0171,98.462475 74.342278,104.733103 -13.338666,10.34833 -22.507519,22.05754 -27.400778,35.015626 -6.41561,16.96328 -5.13028,35.42954 3.786326,54.89384 11.653208,25.3362 39.836036,52.66581 74.215712,52.66581 22.0921658,0 53.371553,-11.43569 81.806829,-62.97803 28.453392,51.54234 59.699173,62.97803 81.809463,62.97803 34.37967,0 62.55987,-27.32894 74.21306,-52.6289 8.91662,-19.4643 10.20459,-37.93353 3.78897,-54.91493 -4.91138,-12.976214 -14.10133,-24.682441 -27.42187,-34.994537 26.91293,-2.247278 46.75848,-13.392917 59.00976,-33.20156 10.45707,-16.963302 15.35097,-39.7078983 15.35097,-71.568452 0,-22.889579 -0.001,-76.499121 -44.16766,-76.499121 -8.40917,0 -17.92344,1.93958 -29.17793,5.89044 -30.79753,10.857549 -68.44584,40.511416 -97.853896,73.759559 l -30.878613,-30.87861 c -2.546288,-2.546291 -6.647939,-2.546291 -9.194227,0 l -30.962988,30.962985 c -29.4188719,-33.27801 -67.105817,-62.978363 -97.93826,-73.843934 -11.236386,-3.96898 -20.786898,-5.89043 -29.177936,-5.89044 z"
         id="path4336" />
    </g>
    <g
       transform="translate(0,313.19999)"
       id="g4338">
      <path
         id="path4340"
         d="m 124.75797,176.70027 -0.0866,-0.1903 c 0,0 -0.15318,-0.3308 -0.27062,-0.5868 -0.23492,-0.511 -0.5777,-1.2631 -1.01416,-2.2359 -0.87294,-1.946 -2.11919,-4.7746 -3.61487,-8.3145 -2.99015,-7.0766 -6.97676,-16.9972 -10.96299,-28.3632 -2.6e-4,0 -3.5e-4,0 -6.9e-4,-0.01 -0.001,-0.01 -0.003,0 -0.004,0 -7.96398,-22.8276 -15.911548,-51.28818 -15.964138,-74.55609 2.2e-4,-2.48557 0.096,-4.90914 0.28821,-7.26377 2.03807,-23.28556 15.864038,-49.96745 29.290338,-71.21593 6.9e-4,0 6.9e-4,0 10e-4,0 6.72218,-10.55222 13.32346,-19.66639 18.24413,-26.13861 2.46054,-3.23635 4.50111,-5.81301 5.92735,-7.58183 0.71313,-0.88396 1.27229,-1.5663 1.65487,-2.02935 0.0674,-0.0815 0.0986,-0.11779 0.15491,-0.18576 l 0.43504,-0.51515"
         style="color:#000000;font-style:normal;font-variant:normal;font-weight:normal;font-stretch:normal;font-size:medium;line-height:normal;font-family:sans-serif;text-indent:0;text-align:start;text-decoration:none;text-decoration-line:none;text-decoration-style:solid;text-decoration-color:#000000;letter-spacing:normal;word-spacing:normal;text-transform:none;direction:ltr;block-progression:tb;writing-mode:lr-tb;baseline-shift:baseline;text-anchor:start;white-space:normal;clip-rule:nonzero;display:inline;overflow:visible;visibility:visible;opacity:1;isolation:auto;mix-blend-mode:normal;color-interpolation:sRGB;color-interpolation-filters:linearRGB;solid-color:#000000;solid-opacity:1;fill:none;fill-opacity:1;fill-rule:nonzero;stroke:#ff0000;stroke-width:0.6116575;stroke-linecap:butt;stroke-linejoin:miter;stroke-miterlimit:4;stroke-dasharray:none;stroke-dashoffset:0;stroke-opacity:1;color-rendering:auto;image-rendering:auto;shape-rendering:auto;text-rendering:auto;enable-background:accumulate"
         transform="translate(1.1696166e-6,110.01968)" />
      <path
         style="color:#000000;font-style:normal;font-variant:normal;font-weight:normal;font-stretch:normal;font-size:medium;line-height:normal;font-family:sans-serif;text-indent:0;text-align:start;text-decoration:none;text-decoration-line:none;text-decoration-style:solid;text-decoration-color:#000000;letter-spacing:normal;word-spacing:normal;text-transform:none;direction:ltr;block-progression:tb;writing-mode:lr-tb;baseline-shift:baseline;text-anchor:start;white-space:normal;clip-rule:nonzero;display:inline;overflow:visible;visibility:visible;opacity:1;isolation:auto;mix-blend-mode:normal;color-interpolation:sRGB;color-interpolation-filters:linearRGB;solid-color:#000000;solid-opacity:1;fill:none;fill-opacity:1;fill-rule:nonzero;stroke:#ff0000;stroke-width:0.6116575;stroke-linecap:butt;stroke-linejoin:miter;stroke-miterlimit:4;stroke-dasharray:none;stroke-dashoffset:0;stroke-opacity:1;color-rendering:auto;image-rendering:auto;shape-rendering:auto;text-rendering:auto;enable-background:accumulate"
         d="m -11.461958,176.70027 0.0866,-0.1903 c 0,0 0.15318,-0.3308 0.27062,-0.5868 0.23492,-0.511 0.57769,-1.2631 1.01417,-2.2359 0.87293,-1.946 2.11918,-4.7746 3.61487,-8.3145 2.99014,-7.0766 6.97675,-16.9972 10.96298,-28.3632 2.5e-4,0 3.5e-4,0 6.8e-4,-0.01 0.001,-0.01 0.003,0 0.004,0 7.96397,-22.8276 15.91155,-51.28818 15.96413,-74.55609 -2.1e-4,-2.48557 -0.096,-4.90914 -0.2882,-7.26377 -2.03808,-23.28556 -15.86404,-49.96745 -29.29035,-71.21593 -6.9e-4,0 -6.9e-4,0 -10e-4,0 -6.72218,-10.55222 -13.32346,-19.66639 -18.24413,-26.13861 -2.46053,-3.23635 -4.50112,-5.81301 -5.92736,-7.58183 -0.71312,-0.88396 -1.27229,-1.5663 -1.65486,-2.02935 -0.0674,-0.0815 -0.0986,-0.11779 -0.15495,-0.18576 l -0.43505,-0.51515"
         id="path4342"
         transform="translate(1.1696166e-6,110.01968)" />
      <g
         transform="translate(35.249377,-29.94219)"
         id="g4344"
         style="display:inline">
        <g
           id="g4346"
           style="display:none">
          <ellipse
             style="fill:#313133;fill-opacity:1;stroke:none;stroke-width:0.48148134;stroke-miterlimit:4;stroke-dasharray:none;stroke-opacity:1"
             id="ellipse4348"
             cx="335.53098"
             cy="948.68347"
             rx="47.593899"
             ry="47.593906" />
          <rect
             style="fill:#313133;fill-opacity:1;stroke:none;stroke-width:0.13499999;stroke-miterlimit:4;stroke-dasharray:none;stroke-opacity:1"
             id="rect4350"
             width="35.87598"
             height="61.22834"
             x="248.74319"
             y="956.8783" />
          <ellipse
             ry="47.593906"
             rx="47.593899"
             cy="944.55603"
             cx="199.92668"
             id="ellipse4352"
             style="fill:#313133;fill-opacity:1;stroke:none;stroke-width:0.48148134;stroke-miterlimit:4;stroke-dasharray:none;stroke-opacity:1" />
        </g>
        <g
           id="g4354"
           style="display:inline" />
        <g
           id="g4356"
           style="display:inline">
          <path
             style="fill:none;stroke:#ff0000;stroke-width:0.51025534;stroke-linejoin:miter;stroke-miterlimit:4;stroke-dasharray:none;stroke-opacity:1"
             d="M 20.838425,93.319177 48.130411,120.61708 21.691293,169.75856 -5.6006889,119.76402 Z"
             id="path4358" />
        </g>
      </g>
      <path
         id="path4360"
         d="m -105.95335,-109.59696 c -44.14807,0 -44.14921,53.609542 -44.14921,76.499121 0,24.8831332 -0.0171,98.462475 74.342278,104.733103 -13.338666,10.34833 -22.507519,22.05754 -27.400778,35.015626 -6.41561,16.96328 -5.13028,35.42954 3.786326,54.89384 11.653208,25.3362 39.836036,52.66581 74.215712,52.66581 22.0921658,0 53.371553,-11.43569 81.806829,-62.97803 28.453392,51.54234 59.699173,62.97803 81.809463,62.97803 34.37967,0 62.55987,-27.32894 74.21306,-52.6289 8.91662,-19.4643 10.20459,-37.93353 3.78897,-54.91493 -4.91138,-12.976214 -14.10133,-24.682441 -27.42187,-34.994537 26.91293,-2.247278 46.75848,-13.392917 59.00976,-33.20156 10.45707,-16.963302 15.35097,-39.7078983 15.35097,-71.568452 0,-22.889579 -0.001,-76.499121 -44.16766,-76.499121 -8.40917,0 -17.92344,1.93958 -29.17793,5.89044 -30.79753,10.857549 -68.44584,40.511416 -97.853896,73.759559 l -30.878613,-30.87861 c -2.546288,-2.546291 -6.647939,-2.546291 -9.194227,0 l -30.962988,30.962985 c -29.4188719,-33.27801 -67.105817,-62.978363 -97.93826,-73.843934 -11.236386,-3.96898 -20.786898,-5.89043 -29.177936,-5.89044 z"
         style="display:inline;fill:none;stroke:#ff0000;stroke-width:0.61165744;stroke-miterlimit:4;stroke-dasharray:none;stroke-opacity:1"
         transform="translate(1.1696166e-6,110.01968)" />
    </g>
    <g
       id="g4362"
       transform="translate(847.79996,313.19999)">
      <path
         transform="translate(1.1696166e-6,110.01968)"
         style="color:#000000;font-style:normal;font-variant:normal;font-weight:normal;font-stretch:normal;font-size:medium;line-height:normal;font-family:sans-serif;text-indent:0;text-align:start;text-decoration:none;text-decoration-line:none;text-decoration-style:solid;text-decoration-color:#000000;letter-spacing:normal;word-spacing:normal;text-transform:none;direction:ltr;block-progression:tb;writing-mode:lr-tb;baseline-shift:baseline;text-anchor:start;white-space:normal;clip-rule:nonzero;display:inline;overflow:visible;visibility:visible;opacity:1;isolation:auto;mix-blend-mode:normal;color-interpolation:sRGB;color-interpolation-filters:linearRGB;solid-color:#000000;solid-opacity:1;fill:none;fill-opacity:1;fill-rule:nonzero;stroke:#ff0000;stroke-width:0.6116575;stroke-linecap:butt;stroke-linejoin:miter;stroke-miterlimit:4;stroke-dasharray:none;stroke-dashoffset:0;stroke-opacity:1;color-rendering:auto;image-rendering:auto;shape-rendering:auto;text-rendering:auto;enable-background:accumulate"
         d="m 124.75797,176.70027 -0.0866,-0.1903 c 0,0 -0.15318,-0.3308 -0.27062,-0.5868 -0.23492,-0.511 -0.5777,-1.2631 -1.01416,-2.2359 -0.87294,-1.946 -2.11919,-4.7746 -3.61487,-8.3145 -2.99015,-7.0766 -6.97676,-16.9972 -10.96299,-28.3632 -2.6e-4,0 -3.5e-4,0 -6.9e-4,-0.01 -0.001,-0.01 -0.003,0 -0.004,0 -7.96398,-22.8276 -15.911548,-51.28818 -15.964138,-74.55609 2.2e-4,-2.48557 0.096,-4.90914 0.28821,-7.26377 2.03807,-23.28556 15.864038,-49.96745 29.290338,-71.21593 6.9e-4,0 6.9e-4,0 10e-4,0 6.72218,-10.55222 13.32346,-19.66639 18.24413,-26.13861 2.46054,-3.23635 4.50111,-5.81301 5.92735,-7.58183 0.71313,-0.88396 1.27229,-1.5663 1.65487,-2.02935 0.0674,-0.0815 0.0986,-0.11779 0.15491,-0.18576 l 0.43504,-0.51515"
         id="path4364" />
      <path
         transform="translate(1.1696166e-6,110.01968)"
         id="path4366"
         d="m -11.461958,176.70027 0.0866,-0.1903 c 0,0 0.15318,-0.3308 0.27062,-0.5868 0.23492,-0.511 0.57769,-1.2631 1.01417,-2.2359 0.87293,-1.946 2.11918,-4.7746 3.61487,-8.3145 2.99014,-7.0766 6.97675,-16.9972 10.96298,-28.3632 2.5e-4,0 3.5e-4,0 6.8e-4,-0.01 0.001,-0.01 0.003,0 0.004,0 7.96397,-22.8276 15.91155,-51.28818 15.96413,-74.55609 -2.1e-4,-2.48557 -0.096,-4.90914 -0.2882,-7.26377 -2.03808,-23.28556 -15.86404,-49.96745 -29.29035,-71.21593 -6.9e-4,0 -6.9e-4,0 -10e-4,0 -6.72218,-10.55222 -13.32346,-19.66639 -18.24413,-26.13861 -2.46053,-3.23635 -4.50112,-5.81301 -5.92736,-7.58183 -0.71312,-0.88396 -1.27229,-1.5663 -1.65486,-2.02935 -0.0674,-0.0815 -0.0986,-0.11779 -0.15495,-0.18576 l -0.43505,-0.51515"
         style="color:#000000;font-style:normal;font-variant:normal;font-weight:normal;font-stretch:normal;font-size:medium;line-height:normal;font-family:sans-serif;text-indent:0;text-align:start;text-decoration:none;text-decoration-line:none;text-decoration-style:solid;text-decoration-color:#000000;letter-spacing:normal;word-spacing:normal;text-transform:none;direction:ltr;block-progression:tb;writing-mode:lr-tb;baseline-shift:baseline;text-anchor:start;white-space:normal;clip-rule:nonzero;display:inline;overflow:visible;visibility:visible;opacity:1;isolation:auto;mix-blend-mode:normal;color-interpolation:sRGB;color-interpolation-filters:linearRGB;solid-color:#000000;solid-opacity:1;fill:none;fill-opacity:1;fill-rule:nonzero;stroke:#ff0000;stroke-width:0.6116575;stroke-linecap:butt;stroke-linejoin:miter;stroke-miterlimit:4;stroke-dasharray:none;stroke-dashoffset:0;stroke-opacity:1;color-rendering:auto;image-rendering:auto;shape-rendering:auto;text-rendering:auto;enable-background:accumulate" />
      <g
         style="display:inline"
         id="g4368"
         transform="translate(35.249377,-29.94219)">
        <g
           style="display:none"
           id="g4370">
          <ellipse
             ry="47.593906"
             rx="47.593899"
             cy="948.68347"
             cx="335.53098"
             id="ellipse4372"
             style="fill:#313133;fill-opacity:1;stroke:none;stroke-width:0.48148134;stroke-miterlimit:4;stroke-dasharray:none;stroke-opacity:1" />
          <rect
             y="956.8783"
             x="248.74319"
             height="61.22834"
             width="35.87598"
             id="rect4374"
             style="fill:#313133;fill-opacity:1;stroke:none;stroke-width:0.13499999;stroke-miterlimit:4;stroke-dasharray:none;stroke-opacity:1" />
          <ellipse
             style="fill:#313133;fill-opacity:1;stroke:none;stroke-width:0.48148134;stroke-miterlimit:4;stroke-dasharray:none;stroke-opacity:1"
             id="ellipse4376"
             cx="199.92668"
             cy="944.55603"
             rx="47.593899"
             ry="47.593906" />
        </g>
        <g
           style="display:inline"
           id="g4378" />
        <g
           style="display:inline"
           id="g4380">
          <path
             id="path4382"
             d="M 20.838425,93.319177 48.130411,120.61708 21.691293,169.75856 -5.6006889,119.76402 Z"
             style="fill:none;stroke:#ff0000;stroke-width:0.51025534;stroke-linejoin:miter;stroke-miterlimit:4;stroke-dasharray:none;stroke-opacity:1" />
        </g>
      </g>
      <path
         transform="translate(1.1696166e-6,110.01968)"
         style="display:inline;fill:none;stroke:#ff0000;stroke-width:0.61165744;stroke-miterlimit:4;stroke-dasharray:none;stroke-opacity:1"
         d="m -105.95335,-109.59696 c -44.14807,0 -44.14921,53.609542 -44.14921,76.499121 0,24.8831332 -0.0171,98.462475 74.342278,104.733103 -13.338666,10.34833 -22.507519,22.05754 -27.400778,35.015626 -6.41561,16.96328 -5.13028,35.42954 3.786326,54.89384 11.653208,25.3362 39.836036,52.66581 74.215712,52.66581 22.0921658,0 53.371553,-11.43569 81.806829,-62.97803 28.453392,51.54234 59.699173,62.97803 81.809463,62.97803 34.37967,0 62.55987,-27.32894 74.21306,-52.6289 8.91662,-19.4643 10.20459,-37.93353 3.78897,-54.91493 -4.91138,-12.976214 -14.10133,-24.682441 -27.42187,-34.994537 26.91293,-2.247278 46.75848,-13.392917 59.00976,-33.20156 10.45707,-16.963302 15.35097,-39.7078983 15.35097,-71.568452 0,-22.889579 -0.001,-76.499121 -44.16766,-76.499121 -8.40917,0 -17.92344,1.93958 -29.17793,5.89044 -30.79753,10.857549 -68.44584,40.511416 -97.853896,73.759559 l -30.878613,-30.87861 c -2.546288,-2.546291 -6.647939,-2.546291 -9.194227,0 l -30.962988,30.962985 c -29.4188719,-33.27801 -67.105817,-62.978363 -97.93826,-73.843934 -11.236386,-3.96898 -20.786898,-5.89043 -29.177936,-5.89044 z"
         id="path4384" />
    </g>
    <g
       transform="translate(426.59998,313.19999)"
       id="g4386">
      <path
         id="path4388"
         d="m 124.75797,176.70027 -0.0866,-0.1903 c 0,0 -0.15318,-0.3308 -0.27062,-0.5868 -0.23492,-0.511 -0.5777,-1.2631 -1.01416,-2.2359 -0.87294,-1.946 -2.11919,-4.7746 -3.61487,-8.3145 -2.99015,-7.0766 -6.97676,-16.9972 -10.96299,-28.3632 -2.6e-4,0 -3.5e-4,0 -6.9e-4,-0.01 -0.001,-0.01 -0.003,0 -0.004,0 -7.96398,-22.8276 -15.911548,-51.28818 -15.964138,-74.55609 2.2e-4,-2.48557 0.096,-4.90914 0.28821,-7.26377 2.03807,-23.28556 15.864038,-49.96745 29.290338,-71.21593 6.9e-4,0 6.9e-4,0 10e-4,0 6.72218,-10.55222 13.32346,-19.66639 18.24413,-26.13861 2.46054,-3.23635 4.50111,-5.81301 5.92735,-7.58183 0.71313,-0.88396 1.27229,-1.5663 1.65487,-2.02935 0.0674,-0.0815 0.0986,-0.11779 0.15491,-0.18576 l 0.43504,-0.51515"
         style="color:#000000;font-style:normal;font-variant:normal;font-weight:normal;font-stretch:normal;font-size:medium;line-height:normal;font-family:sans-serif;text-indent:0;text-align:start;text-decoration:none;text-decoration-line:none;text-decoration-style:solid;text-decoration-color:#000000;letter-spacing:normal;word-spacing:normal;text-transform:none;direction:ltr;block-progression:tb;writing-mode:lr-tb;baseline-shift:baseline;text-anchor:start;white-space:normal;clip-rule:nonzero;display:inline;overflow:visible;visibility:visible;opacity:1;isolation:auto;mix-blend-mode:normal;color-interpolation:sRGB;color-interpolation-filters:linearRGB;solid-color:#000000;solid-opacity:1;fill:none;fill-opacity:1;fill-rule:nonzero;stroke:#ff0000;stroke-width:0.6116575;stroke-linecap:butt;stroke-linejoin:miter;stroke-miterlimit:4;stroke-dasharray:none;stroke-dashoffset:0;stroke-opacity:1;color-rendering:auto;image-rendering:auto;shape-rendering:auto;text-rendering:auto;enable-background:accumulate"
         transform="translate(1.1696166e-6,110.01968)" />
      <path
         style="color:#000000;font-style:normal;font-variant:normal;font-weight:normal;font-stretch:normal;font-size:medium;line-height:normal;font-family:sans-serif;text-indent:0;text-align:start;text-decoration:none;text-decoration-line:none;text-decoration-style:solid;text-decoration-color:#000000;letter-spacing:normal;word-spacing:normal;text-transform:none;direction:ltr;block-progression:tb;writing-mode:lr-tb;baseline-shift:baseline;text-anchor:start;white-space:normal;clip-rule:nonzero;display:inline;overflow:visible;visibility:visible;opacity:1;isolation:auto;mix-blend-mode:normal;color-interpolation:sRGB;color-interpolation-filters:linearRGB;solid-color:#000000;solid-opacity:1;fill:none;fill-opacity:1;fill-rule:nonzero;stroke:#ff0000;stroke-width:0.6116575;stroke-linecap:butt;stroke-linejoin:miter;stroke-miterlimit:4;stroke-dasharray:none;stroke-dashoffset:0;stroke-opacity:1;color-rendering:auto;image-rendering:auto;shape-rendering:auto;text-rendering:auto;enable-background:accumulate"
         d="m -11.461958,176.70027 0.0866,-0.1903 c 0,0 0.15318,-0.3308 0.27062,-0.5868 0.23492,-0.511 0.57769,-1.2631 1.01417,-2.2359 0.87293,-1.946 2.11918,-4.7746 3.61487,-8.3145 2.99014,-7.0766 6.97675,-16.9972 10.96298,-28.3632 2.5e-4,0 3.5e-4,0 6.8e-4,-0.01 0.001,-0.01 0.003,0 0.004,0 7.96397,-22.8276 15.91155,-51.28818 15.96413,-74.55609 -2.1e-4,-2.48557 -0.096,-4.90914 -0.2882,-7.26377 -2.03808,-23.28556 -15.86404,-49.96745 -29.29035,-71.21593 -6.9e-4,0 -6.9e-4,0 -10e-4,0 -6.72218,-10.55222 -13.32346,-19.66639 -18.24413,-26.13861 -2.46053,-3.23635 -4.50112,-5.81301 -5.92736,-7.58183 -0.71312,-0.88396 -1.27229,-1.5663 -1.65486,-2.02935 -0.0674,-0.0815 -0.0986,-0.11779 -0.15495,-0.18576 l -0.43505,-0.51515"
         id="path4390"
         transform="translate(1.1696166e-6,110.01968)" />
      <g
         transform="translate(35.249377,-29.94219)"
         id="g4392"
         style="display:inline">
        <g
           id="g4394"
           style="display:none">
          <ellipse
             style="fill:#313133;fill-opacity:1;stroke:none;stroke-width:0.48148134;stroke-miterlimit:4;stroke-dasharray:none;stroke-opacity:1"
             id="ellipse4396"
             cx="335.53098"
             cy="948.68347"
             rx="47.593899"
             ry="47.593906" />
          <rect
             style="fill:#313133;fill-opacity:1;stroke:none;stroke-width:0.13499999;stroke-miterlimit:4;stroke-dasharray:none;stroke-opacity:1"
             id="rect4398"
             width="35.87598"
             height="61.22834"
             x="248.74319"
             y="956.8783" />
          <ellipse
             ry="47.593906"
             rx="47.593899"
             cy="944.55603"
             cx="199.92668"
             id="ellipse4400"
             style="fill:#313133;fill-opacity:1;stroke:none;stroke-width:0.48148134;stroke-miterlimit:4;stroke-dasharray:none;stroke-opacity:1" />
        </g>
        <g
           id="g4402"
           style="display:inline" />
        <g
           id="g4404"
           style="display:inline">
          <path
             style="fill:none;stroke:#ff0000;stroke-width:0.51025534;stroke-linejoin:miter;stroke-miterlimit:4;stroke-dasharray:none;stroke-opacity:1"
             d="M 20.838425,93.319177 48.130411,120.61708 21.691293,169.75856 -5.6006889,119.76402 Z"
             id="path4406" />
        </g>
      </g>
      <path
         id="path4408"
         d="m -105.95335,-109.59696 c -44.14807,0 -44.14921,53.609542 -44.14921,76.499121 0,24.8831332 -0.0171,98.462475 74.342278,104.733103 -13.338666,10.34833 -22.507519,22.05754 -27.400778,35.015626 -6.41561,16.96328 -5.13028,35.42954 3.786326,54.89384 11.653208,25.3362 39.836036,52.66581 74.215712,52.66581 22.0921658,0 53.371553,-11.43569 81.806829,-62.97803 28.453392,51.54234 59.699173,62.97803 81.809463,62.97803 34.37967,0 62.55987,-27.32894 74.21306,-52.6289 8.91662,-19.4643 10.20459,-37.93353 3.78897,-54.91493 -4.91138,-12.976214 -14.10133,-24.682441 -27.42187,-34.994537 26.91293,-2.247278 46.75848,-13.392917 59.00976,-33.20156 10.45707,-16.963302 15.35097,-39.7078983 15.35097,-71.568452 0,-22.889579 -0.001,-76.499121 -44.16766,-76.499121 -8.40917,0 -17.92344,1.93958 -29.17793,5.89044 -30.79753,10.857549 -68.44584,40.511416 -97.853896,73.759559 l -30.878613,-30.87861 c -2.546288,-2.546291 -6.647939,-2.546291 -9.194227,0 l -30.962988,30.962985 c -29.4188719,-33.27801 -67.105817,-62.978363 -97.93826,-73.843934 -11.236386,-3.96898 -20.786898,-5.89043 -29.177936,-5.89044 z"
         style="display:inline;fill:none;stroke:#ff0000;stroke-width:0.61165744;stroke-miterlimit:4;stroke-dasharray:none;stroke-opacity:1"
         transform="translate(1.1696166e-6,110.01968)" />
    </g>
    <g
       id="g4410"
       transform="translate(0,626.39998)">
      <path
         transform="translate(1.1696166e-6,110.01968)"
         style="color:#000000;font-style:normal;font-variant:normal;font-weight:normal;font-stretch:normal;font-size:medium;line-height:normal;font-family:sans-serif;text-indent:0;text-align:start;text-decoration:none;text-decoration-line:none;text-decoration-style:solid;text-decoration-color:#000000;letter-spacing:normal;word-spacing:normal;text-transform:none;direction:ltr;block-progression:tb;writing-mode:lr-tb;baseline-shift:baseline;text-anchor:start;white-space:normal;clip-rule:nonzero;display:inline;overflow:visible;visibility:visible;opacity:1;isolation:auto;mix-blend-mode:normal;color-interpolation:sRGB;color-interpolation-filters:linearRGB;solid-color:#000000;solid-opacity:1;fill:none;fill-opacity:1;fill-rule:nonzero;stroke:#ff0000;stroke-width:0.6116575;stroke-linecap:butt;stroke-linejoin:miter;stroke-miterlimit:4;stroke-dasharray:none;stroke-dashoffset:0;stroke-opacity:1;color-rendering:auto;image-rendering:auto;shape-rendering:auto;text-rendering:auto;enable-background:accumulate"
         d="m 124.75797,176.70027 -0.0866,-0.1903 c 0,0 -0.15318,-0.3308 -0.27062,-0.5868 -0.23492,-0.511 -0.5777,-1.2631 -1.01416,-2.2359 -0.87294,-1.946 -2.11919,-4.7746 -3.61487,-8.3145 -2.99015,-7.0766 -6.97676,-16.9972 -10.96299,-28.3632 -2.6e-4,0 -3.5e-4,0 -6.9e-4,-0.01 -0.001,-0.01 -0.003,0 -0.004,0 -7.96398,-22.8276 -15.911548,-51.28818 -15.964138,-74.55609 2.2e-4,-2.48557 0.096,-4.90914 0.28821,-7.26377 2.03807,-23.28556 15.864038,-49.96745 29.290338,-71.21593 6.9e-4,0 6.9e-4,0 10e-4,0 6.72218,-10.55222 13.32346,-19.66639 18.24413,-26.13861 2.46054,-3.23635 4.50111,-5.81301 5.92735,-7.58183 0.71313,-0.88396 1.27229,-1.5663 1.65487,-2.02935 0.0674,-0.0815 0.0986,-0.11779 0.15491,-0.18576 l 0.43504,-0.51515"
         id="path4412" />
      <path
         transform="translate(1.1696166e-6,110.01968)"
         id="path4414"
         d="m -11.461958,176.70027 0.0866,-0.1903 c 0,0 0.15318,-0.3308 0.27062,-0.5868 0.23492,-0.511 0.57769,-1.2631 1.01417,-2.2359 0.87293,-1.946 2.11918,-4.7746 3.61487,-8.3145 2.99014,-7.0766 6.97675,-16.9972 10.96298,-28.3632 2.5e-4,0 3.5e-4,0 6.8e-4,-0.01 0.001,-0.01 0.003,0 0.004,0 7.96397,-22.8276 15.91155,-51.28818 15.96413,-74.55609 -2.1e-4,-2.48557 -0.096,-4.90914 -0.2882,-7.26377 -2.03808,-23.28556 -15.86404,-49.96745 -29.29035,-71.21593 -6.9e-4,0 -6.9e-4,0 -10e-4,0 -6.72218,-10.55222 -13.32346,-19.66639 -18.24413,-26.13861 -2.46053,-3.23635 -4.50112,-5.81301 -5.92736,-7.58183 -0.71312,-0.88396 -1.27229,-1.5663 -1.65486,-2.02935 -0.0674,-0.0815 -0.0986,-0.11779 -0.15495,-0.18576 l -0.43505,-0.51515"
         style="color:#000000;font-style:normal;font-variant:normal;font-weight:normal;font-stretch:normal;font-size:medium;line-height:normal;font-family:sans-serif;text-indent:0;text-align:start;text-decoration:none;text-decoration-line:none;text-decoration-style:solid;text-decoration-color:#000000;letter-spacing:normal;word-spacing:normal;text-transform:none;direction:ltr;block-progression:tb;writing-mode:lr-tb;baseline-shift:baseline;text-anchor:start;white-space:normal;clip-rule:nonzero;display:inline;overflow:visible;visibility:visible;opacity:1;isolation:auto;mix-blend-mode:normal;color-interpolation:sRGB;color-interpolation-filters:linearRGB;solid-color:#000000;solid-opacity:1;fill:none;fill-opacity:1;fill-rule:nonzero;stroke:#ff0000;stroke-width:0.6116575;stroke-linecap:butt;stroke-linejoin:miter;stroke-miterlimit:4;stroke-dasharray:none;stroke-dashoffset:0;stroke-opacity:1;color-rendering:auto;image-rendering:auto;shape-rendering:auto;text-rendering:auto;enable-background:accumulate" />
      <g
         style="display:inline"
         id="g4416"
         transform="translate(35.249377,-29.94219)">
        <g
           style="display:none"
           id="g4418">
          <ellipse
             ry="47.593906"
             rx="47.593899"
             cy="948.68347"
             cx="335.53098"
             id="ellipse4420"
             style="fill:#313133;fill-opacity:1;stroke:none;stroke-width:0.48148134;stroke-miterlimit:4;stroke-dasharray:none;stroke-opacity:1" />
          <rect
             y="956.8783"
             x="248.74319"
             height="61.22834"
             width="35.87598"
             id="rect4422"
             style="fill:#313133;fill-opacity:1;stroke:none;stroke-width:0.13499999;stroke-miterlimit:4;stroke-dasharray:none;stroke-opacity:1" />
          <ellipse
             style="fill:#313133;fill-opacity:1;stroke:none;stroke-width:0.48148134;stroke-miterlimit:4;stroke-dasharray:none;stroke-opacity:1"
             id="ellipse4424"
             cx="199.92668"
             cy="944.55603"
             rx="47.593899"
             ry="47.593906" />
        </g>
        <g
           style="display:inline"
           id="g4426" />
        <g
           style="display:inline"
           id="g4428">
          <path
             id="path4430"
             d="M 20.838425,93.319177 48.130411,120.61708 21.691293,169.75856 -5.6006889,119.76402 Z"
             style="fill:none;stroke:#ff0000;stroke-width:0.51025534;stroke-linejoin:miter;stroke-miterlimit:4;stroke-dasharray:none;stroke-opacity:1" />
        </g>
      </g>
      <path
         transform="translate(1.1696166e-6,110.01968)"
         style="display:inline;fill:none;stroke:#ff0000;stroke-width:0.61165744;stroke-miterlimit:4;stroke-dasharray:none;stroke-opacity:1"
         d="m -105.95335,-109.59696 c -44.14807,0 -44.14921,53.609542 -44.14921,76.499121 0,24.8831332 -0.0171,98.462475 74.342278,104.733103 -13.338666,10.34833 -22.507519,22.05754 -27.400778,35.015626 -6.41561,16.96328 -5.13028,35.42954 3.786326,54.89384 11.653208,25.3362 39.836036,52.66581 74.215712,52.66581 22.0921658,0 53.371553,-11.43569 81.806829,-62.97803 28.453392,51.54234 59.699173,62.97803 81.809463,62.97803 34.37967,0 62.55987,-27.32894 74.21306,-52.6289 8.91662,-19.4643 10.20459,-37.93353 3.78897,-54.91493 -4.91138,-12.976214 -14.10133,-24.682441 -27.42187,-34.994537 26.91293,-2.247278 46.75848,-13.392917 59.00976,-33.20156 10.45707,-16.963302 15.35097,-39.7078983 15.35097,-71.568452 0,-22.889579 -0.001,-76.499121 -44.16766,-76.499121 -8.40917,0 -17.92344,1.93958 -29.17793,5.89044 -30.79753,10.857549 -68.44584,40.511416 -97.853896,73.759559 l -30.878613,-30.87861 c -2.546288,-2.546291 -6.647939,-2.546291 -9.194227,0 l -30.962988,30.962985 c -29.4188719,-33.27801 -67.105817,-62.978363 -97.93826,-73.843934 -11.236386,-3.96898 -20.786898,-5.89043 -29.177936,-5.89044 z"
         id="path4432" />
    </g>
    <g
       transform="translate(847.79996,626.39998)"
       id="g4434">
      <path
         id="path4436"
         d="m 124.75797,176.70027 -0.0866,-0.1903 c 0,0 -0.15318,-0.3308 -0.27062,-0.5868 -0.23492,-0.511 -0.5777,-1.2631 -1.01416,-2.2359 -0.87294,-1.946 -2.11919,-4.7746 -3.61487,-8.3145 -2.99015,-7.0766 -6.97676,-16.9972 -10.96299,-28.3632 -2.6e-4,0 -3.5e-4,0 -6.9e-4,-0.01 -0.001,-0.01 -0.003,0 -0.004,0 -7.96398,-22.8276 -15.911548,-51.28818 -15.964138,-74.55609 2.2e-4,-2.48557 0.096,-4.90914 0.28821,-7.26377 2.03807,-23.28556 15.864038,-49.96745 29.290338,-71.21593 6.9e-4,0 6.9e-4,0 10e-4,0 6.72218,-10.55222 13.32346,-19.66639 18.24413,-26.13861 2.46054,-3.23635 4.50111,-5.81301 5.92735,-7.58183 0.71313,-0.88396 1.27229,-1.5663 1.65487,-2.02935 0.0674,-0.0815 0.0986,-0.11779 0.15491,-0.18576 l 0.43504,-0.51515"
         style="color:#000000;font-style:normal;font-variant:normal;font-weight:normal;font-stretch:normal;font-size:medium;line-height:normal;font-family:sans-serif;text-indent:0;text-align:start;text-decoration:none;text-decoration-line:none;text-decoration-style:solid;text-decoration-color:#000000;letter-spacing:normal;word-spacing:normal;text-transform:none;direction:ltr;block-progression:tb;writing-mode:lr-tb;baseline-shift:baseline;text-anchor:start;white-space:normal;clip-rule:nonzero;display:inline;overflow:visible;visibility:visible;opacity:1;isolation:auto;mix-blend-mode:normal;color-interpolation:sRGB;color-interpolation-filters:linearRGB;solid-color:#000000;solid-opacity:1;fill:none;fill-opacity:1;fill-rule:nonzero;stroke:#ff0000;stroke-width:0.6116575;stroke-linecap:butt;stroke-linejoin:miter;stroke-miterlimit:4;stroke-dasharray:none;stroke-dashoffset:0;stroke-opacity:1;color-rendering:auto;image-rendering:auto;shape-rendering:auto;text-rendering:auto;enable-background:accumulate"
         transform="translate(1.1696166e-6,110.01968)" />
      <path
         style="color:#000000;font-style:normal;font-variant:normal;font-weight:normal;font-stretch:normal;font-size:medium;line-height:normal;font-family:sans-serif;text-indent:0;text-align:start;text-decoration:none;text-decoration-line:none;text-decoration-style:solid;text-decoration-color:#000000;letter-spacing:normal;word-spacing:normal;text-transform:none;direction:ltr;block-progression:tb;writing-mode:lr-tb;baseline-shift:baseline;text-anchor:start;white-space:normal;clip-rule:nonzero;display:inline;overflow:visible;visibility:visible;opacity:1;isolation:auto;mix-blend-mode:normal;color-interpolation:sRGB;color-interpolation-filters:linearRGB;solid-color:#000000;solid-opacity:1;fill:none;fill-opacity:1;fill-rule:nonzero;stroke:#ff0000;stroke-width:0.6116575;stroke-linecap:butt;stroke-linejoin:miter;stroke-miterlimit:4;stroke-dasharray:none;stroke-dashoffset:0;stroke-opacity:1;color-rendering:auto;image-rendering:auto;shape-rendering:auto;text-rendering:auto;enable-background:accumulate"
         d="m -11.461958,176.70027 0.0866,-0.1903 c 0,0 0.15318,-0.3308 0.27062,-0.5868 0.23492,-0.511 0.57769,-1.2631 1.01417,-2.2359 0.87293,-1.946 2.11918,-4.7746 3.61487,-8.3145 2.99014,-7.0766 6.97675,-16.9972 10.96298,-28.3632 2.5e-4,0 3.5e-4,0 6.8e-4,-0.01 0.001,-0.01 0.003,0 0.004,0 7.96397,-22.8276 15.91155,-51.28818 15.96413,-74.55609 -2.1e-4,-2.48557 -0.096,-4.90914 -0.2882,-7.26377 -2.03808,-23.28556 -15.86404,-49.96745 -29.29035,-71.21593 -6.9e-4,0 -6.9e-4,0 -10e-4,0 -6.72218,-10.55222 -13.32346,-19.66639 -18.24413,-26.13861 -2.46053,-3.23635 -4.50112,-5.81301 -5.92736,-7.58183 -0.71312,-0.88396 -1.27229,-1.5663 -1.65486,-2.02935 -0.0674,-0.0815 -0.0986,-0.11779 -0.15495,-0.18576 l -0.43505,-0.51515"
         id="path4438"
         transform="translate(1.1696166e-6,110.01968)" />
      <g
         transform="translate(35.249377,-29.94219)"
         id="g4440"
         style="display:inline">
        <g
           id="g4442"
           style="display:none">
          <ellipse
             style="fill:#313133;fill-opacity:1;stroke:none;stroke-width:0.48148134;stroke-miterlimit:4;stroke-dasharray:none;stroke-opacity:1"
             id="ellipse4444"
             cx="335.53098"
             cy="948.68347"
             rx="47.593899"
             ry="47.593906" />
          <rect
             style="fill:#313133;fill-opacity:1;stroke:none;stroke-width:0.13499999;stroke-miterlimit:4;stroke-dasharray:none;stroke-opacity:1"
             id="rect4446"
             width="35.87598"
             height="61.22834"
             x="248.74319"
             y="956.8783" />
          <ellipse
             ry="47.593906"
             rx="47.593899"
             cy="944.55603"
             cx="199.92668"
             id="ellipse4448"
             style="fill:#313133;fill-opacity:1;stroke:none;stroke-width:0.48148134;stroke-miterlimit:4;stroke-dasharray:none;stroke-opacity:1" />
        </g>
        <g
           id="g4450"
           style="display:inline" />
        <g
           id="g4452"
           style="display:inline">
          <path
             style="fill:none;stroke:#ff0000;stroke-width:0.51025534;stroke-linejoin:miter;stroke-miterlimit:4;stroke-dasharray:none;stroke-opacity:1"
             d="M 20.838425,93.319177 48.130411,120.61708 21.691293,169.75856 -5.6006889,119.76402 Z"
             id="path4454" />
        </g>
      </g>
      <path
         id="path4456"
         d="m -105.95335,-109.59696 c -44.14807,0 -44.14921,53.609542 -44.14921,76.499121 0,24.8831332 -0.0171,98.462475 74.342278,104.733103 -13.338666,10.34833 -22.507519,22.05754 -27.400778,35.015626 -6.41561,16.96328 -5.13028,35.42954 3.786326,54.89384 11.653208,25.3362 39.836036,52.66581 74.215712,52.66581 22.0921658,0 53.371553,-11.43569 81.806829,-62.97803 28.453392,51.54234 59.699173,62.97803 81.809463,62.97803 34.37967,0 62.55987,-27.32894 74.21306,-52.6289 8.91662,-19.4643 10.20459,-37.93353 3.78897,-54.91493 -4.91138,-12.976214 -14.10133,-24.682441 -27.42187,-34.994537 26.91293,-2.247278 46.75848,-13.392917 59.00976,-33.20156 10.45707,-16.963302 15.35097,-39.7078983 15.35097,-71.568452 0,-22.889579 -0.001,-76.499121 -44.16766,-76.499121 -8.40917,0 -17.92344,1.93958 -29.17793,5.89044 -30.79753,10.857549 -68.44584,40.511416 -97.853896,73.759559 l -30.878613,-30.87861 c -2.546288,-2.546291 -6.647939,-2.546291 -9.194227,0 l -30.962988,30.962985 c -29.4188719,-33.27801 -67.105817,-62.978363 -97.93826,-73.843934 -11.236386,-3.96898 -20.786898,-5.89043 -29.177936,-5.89044 z"
         style="display:inline;fill:none;stroke:#ff0000;stroke-width:0.61165744;stroke-miterlimit:4;stroke-dasharray:none;stroke-opacity:1"
         transform="translate(1.1696166e-6,110.01968)" />
    </g>
    <g
       id="g4458"
       transform="translate(426.59998,626.39998)">
      <path
         transform="translate(1.1696166e-6,110.01968)"
         style="color:#000000;font-style:normal;font-variant:normal;font-weight:normal;font-stretch:normal;font-size:medium;line-height:normal;font-family:sans-serif;text-indent:0;text-align:start;text-decoration:none;text-decoration-line:none;text-decoration-style:solid;text-decoration-color:#000000;letter-spacing:normal;word-spacing:normal;text-transform:none;direction:ltr;block-progression:tb;writing-mode:lr-tb;baseline-shift:baseline;text-anchor:start;white-space:normal;clip-rule:nonzero;display:inline;overflow:visible;visibility:visible;opacity:1;isolation:auto;mix-blend-mode:normal;color-interpolation:sRGB;color-interpolation-filters:linearRGB;solid-color:#000000;solid-opacity:1;fill:none;fill-opacity:1;fill-rule:nonzero;stroke:#ff0000;stroke-width:0.6116575;stroke-linecap:butt;stroke-linejoin:miter;stroke-miterlimit:4;stroke-dasharray:none;stroke-dashoffset:0;stroke-opacity:1;color-rendering:auto;image-rendering:auto;shape-rendering:auto;text-rendering:auto;enable-background:accumulate"
         d="m 124.75797,176.70027 -0.0866,-0.1903 c 0,0 -0.15318,-0.3308 -0.27062,-0.5868 -0.23492,-0.511 -0.5777,-1.2631 -1.01416,-2.2359 -0.87294,-1.946 -2.11919,-4.7746 -3.61487,-8.3145 -2.99015,-7.0766 -6.97676,-16.9972 -10.96299,-28.3632 -2.6e-4,0 -3.5e-4,0 -6.9e-4,-0.01 -0.001,-0.01 -0.003,0 -0.004,0 -7.96398,-22.8276 -15.911548,-51.28818 -15.964138,-74.55609 2.2e-4,-2.48557 0.096,-4.90914 0.28821,-7.26377 2.03807,-23.28556 15.864038,-49.96745 29.290338,-71.21593 6.9e-4,0 6.9e-4,0 10e-4,0 6.72218,-10.55222 13.32346,-19.66639 18.24413,-26.13861 2.46054,-3.23635 4.50111,-5.81301 5.92735,-7.58183 0.71313,-0.88396 1.27229,-1.5663 1.65487,-2.02935 0.0674,-0.0815 0.0986,-0.11779 0.15491,-0.18576 l 0.43504,-0.51515"
         id="path4460" />
      <path
         transform="translate(1.1696166e-6,110.01968)"
         id="path4462"
         d="m -11.461958,176.70027 0.0866,-0.1903 c 0,0 0.15318,-0.3308 0.27062,-0.5868 0.23492,-0.511 0.57769,-1.2631 1.01417,-2.2359 0.87293,-1.946 2.11918,-4.7746 3.61487,-8.3145 2.99014,-7.0766 6.97675,-16.9972 10.96298,-28.3632 2.5e-4,0 3.5e-4,0 6.8e-4,-0.01 0.001,-0.01 0.003,0 0.004,0 7.96397,-22.8276 15.91155,-51.28818 15.96413,-74.55609 -2.1e-4,-2.48557 -0.096,-4.90914 -0.2882,-7.26377 -2.03808,-23.28556 -15.86404,-49.96745 -29.29035,-71.21593 -6.9e-4,0 -6.9e-4,0 -10e-4,0 -6.72218,-10.55222 -13.32346,-19.66639 -18.24413,-26.13861 -2.46053,-3.23635 -4.50112,-5.81301 -5.92736,-7.58183 -0.71312,-0.88396 -1.27229,-1.5663 -1.65486,-2.02935 -0.0674,-0.0815 -0.0986,-0.11779 -0.15495,-0.18576 l -0.43505,-0.51515"
         style="color:#000000;font-style:normal;font-variant:normal;font-weight:normal;font-stretch:normal;font-size:medium;line-height:normal;font-family:sans-serif;text-indent:0;text-align:start;text-decoration:none;text-decoration-line:none;text-decoration-style:solid;text-decoration-color:#000000;letter-spacing:normal;word-spacing:normal;text-transform:none;direction:ltr;block-progression:tb;writing-mode:lr-tb;baseline-shift:baseline;text-anchor:start;white-space:normal;clip-rule:nonzero;display:inline;overflow:visible;visibility:visible;opacity:1;isolation:auto;mix-blend-mode:normal;color-interpolation:sRGB;color-interpolation-filters:linearRGB;solid-color:#000000;solid-opacity:1;fill:none;fill-opacity:1;fill-rule:nonzero;stroke:#ff0000;stroke-width:0.6116575;stroke-linecap:butt;stroke-linejoin:miter;stroke-miterlimit:4;stroke-dasharray:none;stroke-dashoffset:0;stroke-opacity:1;color-rendering:auto;image-rendering:auto;shape-rendering:auto;text-rendering:auto;enable-background:accumulate" />
      <g
         style="display:inline"
         id="g4464"
         transform="translate(35.249377,-29.94219)">
        <g
           style="display:none"
           id="g4466">
          <ellipse
             ry="47.593906"
             rx="47.593899"
             cy="948.68347"
             cx="335.53098"
             id="ellipse4468"
             style="fill:#313133;fill-opacity:1;stroke:none;stroke-width:0.48148134;stroke-miterlimit:4;stroke-dasharray:none;stroke-opacity:1" />
          <rect
             y="956.8783"
             x="248.74319"
             height="61.22834"
             width="35.87598"
             id="rect4470"
             style="fill:#313133;fill-opacity:1;stroke:none;stroke-width:0.13499999;stroke-miterlimit:4;stroke-dasharray:none;stroke-opacity:1" />
          <ellipse
             style="fill:#313133;fill-opacity:1;stroke:none;stroke-width:0.48148134;stroke-miterlimit:4;stroke-dasharray:none;stroke-opacity:1"
             id="ellipse4472"
             cx="199.92668"
             cy="944.55603"
             rx="47.593899"
             ry="47.593906" />
        </g>
        <g
           style="display:inline"
           id="g4474" />
        <g
           style="display:inline"
           id="g4476">
          <path
             id="path4478"
             d="M 20.838425,93.319177 48.130411,120.61708 21.691293,169.75856 -5.6006889,119.76402 Z"
             style="fill:none;stroke:#ff0000;stroke-width:0.51025534;stroke-linejoin:miter;stroke-miterlimit:4;stroke-dasharray:none;stroke-opacity:1" />
        </g>
      </g>
      <path
         transform="translate(1.1696166e-6,110.01968)"
         style="display:inline;fill:none;stroke:#ff0000;stroke-width:0.61165744;stroke-miterlimit:4;stroke-dasharray:none;stroke-opacity:1"
         d="m -105.95335,-109.59696 c -44.14807,0 -44.14921,53.609542 -44.14921,76.499121 0,24.8831332 -0.0171,98.462475 74.342278,104.733103 -13.338666,10.34833 -22.507519,22.05754 -27.400778,35.015626 -6.41561,16.96328 -5.13028,35.42954 3.786326,54.89384 11.653208,25.3362 39.836036,52.66581 74.215712,52.66581 22.0921658,0 53.371553,-11.43569 81.806829,-62.97803 28.453392,51.54234 59.699173,62.97803 81.809463,62.97803 34.37967,0 62.55987,-27.32894 74.21306,-52.6289 8.91662,-19.4643 10.20459,-37.93353 3.78897,-54.91493 -4.91138,-12.976214 -14.10133,-24.682441 -27.42187,-34.994537 26.91293,-2.247278 46.75848,-13.392917 59.00976,-33.20156 10.45707,-16.963302 15.35097,-39.7078983 15.35097,-71.568452 0,-22.889579 -0.001,-76.499121 -44.16766,-76.499121 -8.40917,0 -17.92344,1.93958 -29.17793,5.89044 -30.79753,10.857549 -68.44584,40.511416 -97.853896,73.759559 l -30.878613,-30.87861 c -2.546288,-2.546291 -6.647939,-2.546291 -9.194227,0 l -30.962988,30.962985 c -29.4188719,-33.27801 -67.105817,-62.978363 -97.93826,-73.843934 -11.236386,-3.96898 -20.786898,-5.89043 -29.177936,-5.89044 z"
         id="path4480" />
    </g>
    <g
       transform="translate(0,944.99996)"
       id="g4482">
      <path
         id="path4484"
         d="m 124.75797,176.70027 -0.0866,-0.1903 c 0,0 -0.15318,-0.3308 -0.27062,-0.5868 -0.23492,-0.511 -0.5777,-1.2631 -1.01416,-2.2359 -0.87294,-1.946 -2.11919,-4.7746 -3.61487,-8.3145 -2.99015,-7.0766 -6.97676,-16.9972 -10.96299,-28.3632 -2.6e-4,0 -3.5e-4,0 -6.9e-4,-0.01 -0.001,-0.01 -0.003,0 -0.004,0 -7.96398,-22.8276 -15.911548,-51.28818 -15.964138,-74.55609 2.2e-4,-2.48557 0.096,-4.90914 0.28821,-7.26377 2.03807,-23.28556 15.864038,-49.96745 29.290338,-71.21593 6.9e-4,0 6.9e-4,0 10e-4,0 6.72218,-10.55222 13.32346,-19.66639 18.24413,-26.13861 2.46054,-3.23635 4.50111,-5.81301 5.92735,-7.58183 0.71313,-0.88396 1.27229,-1.5663 1.65487,-2.02935 0.0674,-0.0815 0.0986,-0.11779 0.15491,-0.18576 l 0.43504,-0.51515"
         style="color:#000000;font-style:normal;font-variant:normal;font-weight:normal;font-stretch:normal;font-size:medium;line-height:normal;font-family:sans-serif;text-indent:0;text-align:start;text-decoration:none;text-decoration-line:none;text-decoration-style:solid;text-decoration-color:#000000;letter-spacing:normal;word-spacing:normal;text-transform:none;direction:ltr;block-progression:tb;writing-mode:lr-tb;baseline-shift:baseline;text-anchor:start;white-space:normal;clip-rule:nonzero;display:inline;overflow:visible;visibility:visible;opacity:1;isolation:auto;mix-blend-mode:normal;color-interpolation:sRGB;color-interpolation-filters:linearRGB;solid-color:#000000;solid-opacity:1;fill:none;fill-opacity:1;fill-rule:nonzero;stroke:#ff0000;stroke-width:0.6116575;stroke-linecap:butt;stroke-linejoin:miter;stroke-miterlimit:4;stroke-dasharray:none;stroke-dashoffset:0;stroke-opacity:1;color-rendering:auto;image-rendering:auto;shape-rendering:auto;text-rendering:auto;enable-background:accumulate"
         transform="translate(1.1696166e-6,110.01968)" />
      <path
         style="color:#000000;font-style:normal;font-variant:normal;font-weight:normal;font-stretch:normal;font-size:medium;line-height:normal;font-family:sans-serif;text-indent:0;text-align:start;text-decoration:none;text-decoration-line:none;text-decoration-style:solid;text-decoration-color:#000000;letter-spacing:normal;word-spacing:normal;text-transform:none;direction:ltr;block-progression:tb;writing-mode:lr-tb;baseline-shift:baseline;text-anchor:start;white-space:normal;clip-rule:nonzero;display:inline;overflow:visible;visibility:visible;opacity:1;isolation:auto;mix-blend-mode:normal;color-interpolation:sRGB;color-interpolation-filters:linearRGB;solid-color:#000000;solid-opacity:1;fill:none;fill-opacity:1;fill-rule:nonzero;stroke:#ff0000;stroke-width:0.6116575;stroke-linecap:butt;stroke-linejoin:miter;stroke-miterlimit:4;stroke-dasharray:none;stroke-dashoffset:0;stroke-opacity:1;color-rendering:auto;image-rendering:auto;shape-rendering:auto;text-rendering:auto;enable-background:accumulate"
         d="m -11.461958,176.70027 0.0866,-0.1903 c 0,0 0.15318,-0.3308 0.27062,-0.5868 0.23492,-0.511 0.57769,-1.2631 1.01417,-2.2359 0.87293,-1.946 2.11918,-4.7746 3.61487,-8.3145 2.99014,-7.0766 6.97675,-16.9972 10.96298,-28.3632 2.5e-4,0 3.5e-4,0 6.8e-4,-0.01 0.001,-0.01 0.003,0 0.004,0 7.96397,-22.8276 15.91155,-51.28818 15.96413,-74.55609 -2.1e-4,-2.48557 -0.096,-4.90914 -0.2882,-7.26377 -2.03808,-23.28556 -15.86404,-49.96745 -29.29035,-71.21593 -6.9e-4,0 -6.9e-4,0 -10e-4,0 -6.72218,-10.55222 -13.32346,-19.66639 -18.24413,-26.13861 -2.46053,-3.23635 -4.50112,-5.81301 -5.92736,-7.58183 -0.71312,-0.88396 -1.27229,-1.5663 -1.65486,-2.02935 -0.0674,-0.0815 -0.0986,-0.11779 -0.15495,-0.18576 l -0.43505,-0.51515"
         id="path4486"
         transform="translate(1.1696166e-6,110.01968)" />
      <g
         transform="translate(35.249377,-29.94219)"
         id="g4488"
         style="display:inline">
        <g
           id="g4490"
           style="display:none">
          <ellipse
             style="fill:#313133;fill-opacity:1;stroke:none;stroke-width:0.48148134;stroke-miterlimit:4;stroke-dasharray:none;stroke-opacity:1"
             id="ellipse4492"
             cx="335.53098"
             cy="948.68347"
             rx="47.593899"
             ry="47.593906" />
          <rect
             style="fill:#313133;fill-opacity:1;stroke:none;stroke-width:0.13499999;stroke-miterlimit:4;stroke-dasharray:none;stroke-opacity:1"
             id="rect4494"
             width="35.87598"
             height="61.22834"
             x="248.74319"
             y="956.8783" />
          <ellipse
             ry="47.593906"
             rx="47.593899"
             cy="944.55603"
             cx="199.92668"
             id="ellipse4496"
             style="fill:#313133;fill-opacity:1;stroke:none;stroke-width:0.48148134;stroke-miterlimit:4;stroke-dasharray:none;stroke-opacity:1" />
        </g>
        <g
           id="g4498"
           style="display:inline" />
        <g
           id="g4500"
           style="display:inline">
          <path
             style="fill:none;stroke:#ff0000;stroke-width:0.51025534;stroke-linejoin:miter;stroke-miterlimit:4;stroke-dasharray:none;stroke-opacity:1"
             d="M 20.838425,93.319177 48.130411,120.61708 21.691293,169.75856 -5.6006889,119.76402 Z"
             id="path4502" />
        </g>
      </g>
      <path
         id="path4504"
         d="m -105.95335,-109.59696 c -44.14807,0 -44.14921,53.609542 -44.14921,76.499121 0,24.8831332 -0.0171,98.462475 74.342278,104.733103 -13.338666,10.34833 -22.507519,22.05754 -27.400778,35.015626 -6.41561,16.96328 -5.13028,35.42954 3.786326,54.89384 11.653208,25.3362 39.836036,52.66581 74.215712,52.66581 22.0921658,0 53.371553,-11.43569 81.806829,-62.97803 28.453392,51.54234 59.699173,62.97803 81.809463,62.97803 34.37967,0 62.55987,-27.32894 74.21306,-52.6289 8.91662,-19.4643 10.20459,-37.93353 3.78897,-54.91493 -4.91138,-12.976214 -14.10133,-24.682441 -27.42187,-34.994537 26.91293,-2.247278 46.75848,-13.392917 59.00976,-33.20156 10.45707,-16.963302 15.35097,-39.7078983 15.35097,-71.568452 0,-22.889579 -0.001,-76.499121 -44.16766,-76.499121 -8.40917,0 -17.92344,1.93958 -29.17793,5.89044 -30.79753,10.857549 -68.44584,40.511416 -97.853896,73.759559 l -30.878613,-30.87861 c -2.546288,-2.546291 -6.647939,-2.546291 -9.194227,0 l -30.962988,30.962985 c -29.4188719,-33.27801 -67.105817,-62.978363 -97.93826,-73.843934 -11.236386,-3.96898 -20.786898,-5.89043 -29.177936,-5.89044 z"
         style="display:inline;fill:none;stroke:#ff0000;stroke-width:0.61165744;stroke-miterlimit:4;stroke-dasharray:none;stroke-opacity:1"
         transform="translate(1.1696166e-6,110.01968)" />
    </g>
    <g
       id="g4506"
       transform="translate(847.79996,944.99996)">
      <path
         transform="translate(1.1696166e-6,110.01968)"
         style="color:#000000;font-style:normal;font-variant:normal;font-weight:normal;font-stretch:normal;font-size:medium;line-height:normal;font-family:sans-serif;text-indent:0;text-align:start;text-decoration:none;text-decoration-line:none;text-decoration-style:solid;text-decoration-color:#000000;letter-spacing:normal;word-spacing:normal;text-transform:none;direction:ltr;block-progression:tb;writing-mode:lr-tb;baseline-shift:baseline;text-anchor:start;white-space:normal;clip-rule:nonzero;display:inline;overflow:visible;visibility:visible;opacity:1;isolation:auto;mix-blend-mode:normal;color-interpolation:sRGB;color-interpolation-filters:linearRGB;solid-color:#000000;solid-opacity:1;fill:none;fill-opacity:1;fill-rule:nonzero;stroke:#ff0000;stroke-width:0.6116575;stroke-linecap:butt;stroke-linejoin:miter;stroke-miterlimit:4;stroke-dasharray:none;stroke-dashoffset:0;stroke-opacity:1;color-rendering:auto;image-rendering:auto;shape-rendering:auto;text-rendering:auto;enable-background:accumulate"
         d="m 124.75797,176.70027 -0.0866,-0.1903 c 0,0 -0.15318,-0.3308 -0.27062,-0.5868 -0.23492,-0.511 -0.5777,-1.2631 -1.01416,-2.2359 -0.87294,-1.946 -2.11919,-4.7746 -3.61487,-8.3145 -2.99015,-7.0766 -6.97676,-16.9972 -10.96299,-28.3632 -2.6e-4,0 -3.5e-4,0 -6.9e-4,-0.01 -0.001,-0.01 -0.003,0 -0.004,0 -7.96398,-22.8276 -15.911548,-51.28818 -15.964138,-74.55609 2.2e-4,-2.48557 0.096,-4.90914 0.28821,-7.26377 2.03807,-23.28556 15.864038,-49.96745 29.290338,-71.21593 6.9e-4,0 6.9e-4,0 10e-4,0 6.72218,-10.55222 13.32346,-19.66639 18.24413,-26.13861 2.46054,-3.23635 4.50111,-5.81301 5.92735,-7.58183 0.71313,-0.88396 1.27229,-1.5663 1.65487,-2.02935 0.0674,-0.0815 0.0986,-0.11779 0.15491,-0.18576 l 0.43504,-0.51515"
         id="path4508" />
      <path
         transform="translate(1.1696166e-6,110.01968)"
         id="path4510"
         d="m -11.461958,176.70027 0.0866,-0.1903 c 0,0 0.15318,-0.3308 0.27062,-0.5868 0.23492,-0.511 0.57769,-1.2631 1.01417,-2.2359 0.87293,-1.946 2.11918,-4.7746 3.61487,-8.3145 2.99014,-7.0766 6.97675,-16.9972 10.96298,-28.3632 2.5e-4,0 3.5e-4,0 6.8e-4,-0.01 0.001,-0.01 0.003,0 0.004,0 7.96397,-22.8276 15.91155,-51.28818 15.96413,-74.55609 -2.1e-4,-2.48557 -0.096,-4.90914 -0.2882,-7.26377 -2.03808,-23.28556 -15.86404,-49.96745 -29.29035,-71.21593 -6.9e-4,0 -6.9e-4,0 -10e-4,0 -6.72218,-10.55222 -13.32346,-19.66639 -18.24413,-26.13861 -2.46053,-3.23635 -4.50112,-5.81301 -5.92736,-7.58183 -0.71312,-0.88396 -1.27229,-1.5663 -1.65486,-2.02935 -0.0674,-0.0815 -0.0986,-0.11779 -0.15495,-0.18576 l -0.43505,-0.51515"
         style="color:#000000;font-style:normal;font-variant:normal;font-weight:normal;font-stretch:normal;font-size:medium;line-height:normal;font-family:sans-serif;text-indent:0;text-align:start;text-decoration:none;text-decoration-line:none;text-decoration-style:solid;text-decoration-color:#000000;letter-spacing:normal;word-spacing:normal;text-transform:none;direction:ltr;block-progression:tb;writing-mode:lr-tb;baseline-shift:baseline;text-anchor:start;white-space:normal;clip-rule:nonzero;display:inline;overflow:visible;visibility:visible;opacity:1;isolation:auto;mix-blend-mode:normal;color-interpolation:sRGB;color-interpolation-filters:linearRGB;solid-color:#000000;solid-opacity:1;fill:none;fill-opacity:1;fill-rule:nonzero;stroke:#ff0000;stroke-width:0.6116575;stroke-linecap:butt;stroke-linejoin:miter;stroke-miterlimit:4;stroke-dasharray:none;stroke-dashoffset:0;stroke-opacity:1;color-rendering:auto;image-rendering:auto;shape-rendering:auto;text-rendering:auto;enable-background:accumulate" />
      <g
         style="display:inline"
         id="g4512"
         transform="translate(35.249377,-29.94219)">
        <g
           style="display:none"
           id="g4514">
          <ellipse
             ry="47.593906"
             rx="47.593899"
             cy="948.68347"
             cx="335.53098"
             id="ellipse4516"
             style="fill:#313133;fill-opacity:1;stroke:none;stroke-width:0.48148134;stroke-miterlimit:4;stroke-dasharray:none;stroke-opacity:1" />
          <rect
             y="956.8783"
             x="248.74319"
             height="61.22834"
             width="35.87598"
             id="rect4518"
             style="fill:#313133;fill-opacity:1;stroke:none;stroke-width:0.13499999;stroke-miterlimit:4;stroke-dasharray:none;stroke-opacity:1" />
          <ellipse
             style="fill:#313133;fill-opacity:1;stroke:none;stroke-width:0.48148134;stroke-miterlimit:4;stroke-dasharray:none;stroke-opacity:1"
             id="ellipse4520"
             cx="199.92668"
             cy="944.55603"
             rx="47.593899"
             ry="47.593906" />
        </g>
        <g
           style="display:inline"
           id="g4522" />
        <g
           style="display:inline"
           id="g4524">
          <path
             id="path4526"
             d="M 20.838425,93.319177 48.130411,120.61708 21.691293,169.75856 -5.6006889,119.76402 Z"
             style="fill:none;stroke:#ff0000;stroke-width:0.51025534;stroke-linejoin:miter;stroke-miterlimit:4;stroke-dasharray:none;stroke-opacity:1" />
        </g>
      </g>
      <path
         transform="translate(1.1696166e-6,110.01968)"
         style="display:inline;fill:none;stroke:#ff0000;stroke-width:0.61165744;stroke-miterlimit:4;stroke-dasharray:none;stroke-opacity:1"
         d="m -105.95335,-109.59696 c -44.14807,0 -44.14921,53.609542 -44.14921,76.499121 0,24.8831332 -0.0171,98.462475 74.342278,104.733103 -13.338666,10.34833 -22.507519,22.05754 -27.400778,35.015626 -6.41561,16.96328 -5.13028,35.42954 3.786326,54.89384 11.653208,25.3362 39.836036,52.66581 74.215712,52.66581 22.0921658,0 53.371553,-11.43569 81.806829,-62.97803 28.453392,51.54234 59.699173,62.97803 81.809463,62.97803 34.37967,0 62.55987,-27.32894 74.21306,-52.6289 8.91662,-19.4643 10.20459,-37.93353 3.78897,-54.91493 -4.91138,-12.976214 -14.10133,-24.682441 -27.42187,-34.994537 26.91293,-2.247278 46.75848,-13.392917 59.00976,-33.20156 10.45707,-16.963302 15.35097,-39.7078983 15.35097,-71.568452 0,-22.889579 -0.001,-76.499121 -44.16766,-76.499121 -8.40917,0 -17.92344,1.93958 -29.17793,5.89044 -30.79753,10.857549 -68.44584,40.511416 -97.853896,73.759559 l -30.878613,-30.87861 c -2.546288,-2.546291 -6.647939,-2.546291 -9.194227,0 l -30.962988,30.962985 c -29.4188719,-33.27801 -67.105817,-62.978363 -97.93826,-73.843934 -11.236386,-3.96898 -20.786898,-5.89043 -29.177936,-5.89044 z"
         id="path4528" />
    </g>
    <g
       transform="translate(426.59998,944.99996)"
       id="g4530">
      <path
         id="path4532"
         d="m 124.75797,176.70027 -0.0866,-0.1903 c 0,0 -0.15318,-0.3308 -0.27062,-0.5868 -0.23492,-0.511 -0.5777,-1.2631 -1.01416,-2.2359 -0.87294,-1.946 -2.11919,-4.7746 -3.61487,-8.3145 -2.99015,-7.0766 -6.97676,-16.9972 -10.96299,-28.3632 -2.6e-4,0 -3.5e-4,0 -6.9e-4,-0.01 -0.001,-0.01 -0.003,0 -0.004,0 -7.96398,-22.8276 -15.911548,-51.28818 -15.964138,-74.55609 2.2e-4,-2.48557 0.096,-4.90914 0.28821,-7.26377 2.03807,-23.28556 15.864038,-49.96745 29.290338,-71.21593 6.9e-4,0 6.9e-4,0 10e-4,0 6.72218,-10.55222 13.32346,-19.66639 18.24413,-26.13861 2.46054,-3.23635 4.50111,-5.81301 5.92735,-7.58183 0.71313,-0.88396 1.27229,-1.5663 1.65487,-2.02935 0.0674,-0.0815 0.0986,-0.11779 0.15491,-0.18576 l 0.43504,-0.51515"
         style="color:#000000;font-style:normal;font-variant:normal;font-weight:normal;font-stretch:normal;font-size:medium;line-height:normal;font-family:sans-serif;text-indent:0;text-align:start;text-decoration:none;text-decoration-line:none;text-decoration-style:solid;text-decoration-color:#000000;letter-spacing:normal;word-spacing:normal;text-transform:none;direction:ltr;block-progression:tb;writing-mode:lr-tb;baseline-shift:baseline;text-anchor:start;white-space:normal;clip-rule:nonzero;display:inline;overflow:visible;visibility:visible;opacity:1;isolation:auto;mix-blend-mode:normal;color-interpolation:sRGB;color-interpolation-filters:linearRGB;solid-color:#000000;solid-opacity:1;fill:none;fill-opacity:1;fill-rule:nonzero;stroke:#ff0000;stroke-width:0.6116575;stroke-linecap:butt;stroke-linejoin:miter;stroke-miterlimit:4;stroke-dasharray:none;stroke-dashoffset:0;stroke-opacity:1;color-rendering:auto;image-rendering:auto;shape-rendering:auto;text-rendering:auto;enable-background:accumulate"
         transform="translate(1.1696166e-6,110.01968)" />
      <path
         style="color:#000000;font-style:normal;font-variant:normal;font-weight:normal;font-stretch:normal;font-size:medium;line-height:normal;font-family:sans-serif;text-indent:0;text-align:start;text-decoration:none;text-decoration-line:none;text-decoration-style:solid;text-decoration-color:#000000;letter-spacing:normal;word-spacing:normal;text-transform:none;direction:ltr;block-progression:tb;writing-mode:lr-tb;baseline-shift:baseline;text-anchor:start;white-space:normal;clip-rule:nonzero;display:inline;overflow:visible;visibility:visible;opacity:1;isolation:auto;mix-blend-mode:normal;color-interpolation:sRGB;color-interpolation-filters:linearRGB;solid-color:#000000;solid-opacity:1;fill:none;fill-opacity:1;fill-rule:nonzero;stroke:#ff0000;stroke-width:0.6116575;stroke-linecap:butt;stroke-linejoin:miter;stroke-miterlimit:4;stroke-dasharray:none;stroke-dashoffset:0;stroke-opacity:1;color-rendering:auto;image-rendering:auto;shape-rendering:auto;text-rendering:auto;enable-background:accumulate"
         d="m -11.461958,176.70027 0.0866,-0.1903 c 0,0 0.15318,-0.3308 0.27062,-0.5868 0.23492,-0.511 0.57769,-1.2631 1.01417,-2.2359 0.87293,-1.946 2.11918,-4.7746 3.61487,-8.3145 2.99014,-7.0766 6.97675,-16.9972 10.96298,-28.3632 2.5e-4,0 3.5e-4,0 6.8e-4,-0.01 0.001,-0.01 0.003,0 0.004,0 7.96397,-22.8276 15.91155,-51.28818 15.96413,-74.55609 -2.1e-4,-2.48557 -0.096,-4.90914 -0.2882,-7.26377 -2.03808,-23.28556 -15.86404,-49.96745 -29.29035,-71.21593 -6.9e-4,0 -6.9e-4,0 -10e-4,0 -6.72218,-10.55222 -13.32346,-19.66639 -18.24413,-26.13861 -2.46053,-3.23635 -4.50112,-5.81301 -5.92736,-7.58183 -0.71312,-0.88396 -1.27229,-1.5663 -1.65486,-2.02935 -0.0674,-0.0815 -0.0986,-0.11779 -0.15495,-0.18576 l -0.43505,-0.51515"
         id="path4534"
         transform="translate(1.1696166e-6,110.01968)" />
      <g
         transform="translate(35.249377,-29.94219)"
         id="g4536"
         style="display:inline">
        <g
           id="g4538"
           style="display:none">
          <ellipse
             style="fill:#313133;fill-opacity:1;stroke:none;stroke-width:0.48148134;stroke-miterlimit:4;stroke-dasharray:none;stroke-opacity:1"
             id="ellipse4540"
             cx="335.53098"
             cy="948.68347"
             rx="47.593899"
             ry="47.593906" />
          <rect
             style="fill:#313133;fill-opacity:1;stroke:none;stroke-width:0.13499999;stroke-miterlimit:4;stroke-dasharray:none;stroke-opacity:1"
             id="rect4542"
             width="35.87598"
             height="61.22834"
             x="248.74319"
             y="956.8783" />
          <ellipse
             ry="47.593906"
             rx="47.593899"
             cy="944.55603"
             cx="199.92668"
             id="ellipse4544"
             style="fill:#313133;fill-opacity:1;stroke:none;stroke-width:0.48148134;stroke-miterlimit:4;stroke-dasharray:none;stroke-opacity:1" />
        </g>
        <g
           id="g4546"
           style="display:inline" />
        <g
           id="g4548"
           style="display:inline">
          <path
             style="fill:none;stroke:#ff0000;stroke-width:0.51025534;stroke-linejoin:miter;stroke-miterlimit:4;stroke-dasharray:none;stroke-opacity:1"
             d="M 20.838425,93.319177 48.130411,120.61708 21.691293,169.75856 -5.6006889,119.76402 Z"
             id="path4550" />
        </g>
      </g>
      <path
         id="path4552"
         d="m -105.95335,-109.59696 c -44.14807,0 -44.14921,53.609542 -44.14921,76.499121 0,24.8831332 -0.0171,98.462475 74.342278,104.733103 -13.338666,10.34833 -22.507519,22.05754 -27.400778,35.015626 -6.41561,16.96328 -5.13028,35.42954 3.786326,54.89384 11.653208,25.3362 39.836036,52.66581 74.215712,52.66581 22.0921658,0 53.371553,-11.43569 81.806829,-62.97803 28.453392,51.54234 59.699173,62.97803 81.809463,62.97803 34.37967,0 62.55987,-27.32894 74.21306,-52.6289 8.91662,-19.4643 10.20459,-37.93353 3.78897,-54.91493 -4.91138,-12.976214 -14.10133,-24.682441 -27.42187,-34.994537 26.91293,-2.247278 46.75848,-13.392917 59.00976,-33.20156 10.45707,-16.963302 15.35097,-39.7078983 15.35097,-71.568452 0,-22.889579 -0.001,-76.499121 -44.16766,-76.499121 -8.40917,0 -17.92344,1.93958 -29.17793,5.89044 -30.79753,10.857549 -68.44584,40.511416 -97.853896,73.759559 l -30.878613,-30.87861 c -2.546288,-2.546291 -6.647939,-2.546291 -9.194227,0 l -30.962988,30.962985 c -29.4188719,-33.27801 -67.105817,-62.978363 -97.93826,-73.843934 -11.236386,-3.96898 -20.786898,-5.89043 -29.177936,-5.89044 z"
         style="display:inline;fill:none;stroke:#ff0000;stroke-width:0.61165744;stroke-miterlimit:4;stroke-dasharray:none;stroke-opacity:1"
         transform="translate(1.1696166e-6,110.01968)" />
    </g>
  </g>
</svg>
