<svg xmlns="http://www.w3.org/2000/svg" xmlns:xlink="http://www.w3.org/1999/xlink" version="1.1" x="0px" y="0px" width="100px" height="100px" viewBox="5.0 -10.0 100.0 135.0" enable-background="new 0 0 100 100" xml:space="preserve">
<g id="Captions">
</g>
<g id="Your_Icon">
	<rect x="84.715" y="23.305" transform="matrix(0.9362 0.3514 -0.3514 0.9362 18.8569 -27.6785)" width="1.937" height="29.614"/>
	<rect x="84.727" y="29.09" transform="matrix(0.8371 0.5471 -0.5471 0.8371 37.9807 -39.7325)" width="1.937" height="29.616"/>
	<path d="M75.86,63.963C14.869,44.158,59.846,12.536,59.846,12.536c25.83,14.727,22,36.158,18.413,46.052   c4.302-11.47,9.46-37.153-20.864-54.476c0,0-52.65,37.61,18.188,60.383c0,0,0.208-0.357,0.544-1.017   C75.959,63.793,75.86,63.963,75.86,63.963z"/>
	<path d="M13.333,87.402c0,0-3.145-50.252,40.128-31.939C0.275,30.762,4.061,91.235,4.061,91.235   c44.99,17.822,63.396-18.962,66.143-25.192C67.342,72.324,51.338,102.458,13.333,87.402z"/>
	<path d="M46.016,62.246L46.016,62.246c-0.648,0-1.315-0.062-1.983-0.186c-2.126-0.388-3.811-1.287-4.505-2.405   c-0.339-0.547-0.435-1.131-0.275-1.688c0.368-1.292,1.979-2.064,4.312-2.064c0.646,0,1.311,0.062,1.978,0.185   c2.125,0.388,3.81,1.287,4.504,2.405c0.34,0.548,0.436,1.132,0.276,1.69C49.956,61.475,48.345,62.246,46.016,62.246z M43.564,57.84   c-1.72,0-2.408,0.514-2.45,0.658c-0.003,0.255,0.974,1.239,3.268,1.658c0.554,0.101,1.103,0.153,1.633,0.153h0   c1.586,0,2.391-0.471,2.444-0.657c0.006-0.255-0.965-1.239-3.266-1.66C44.642,57.891,44.093,57.84,43.564,57.84z"/>
	<path d="M52.645,42.007c1.411-0.378,3.095,1.362,3.767,3.882c0.669,2.519,0.071,4.866-1.342,5.24   c-1.408,0.375-3.092-1.366-3.762-3.884C50.638,44.726,51.237,42.379,52.645,42.007z"/>
	<ellipse transform="matrix(-0.9976 -0.0691 0.0691 -0.9976 154.1143 118.2339)" cx="79.103" cy="56.45" rx="2.74" ry="3.11"/>
	<ellipse transform="matrix(0.9976 0.0689 -0.0689 0.9976 4.3741 -5.1234)" cx="76.448" cy="60.839" rx="2.345" ry="2.392"/>
	<path d="M76.195,64.512c-0.103,1.448-1.256,2.549-2.581,2.457c-1.323-0.091-2.319-1.343-2.216-2.791   c0.101-1.446,1.256-2.551,2.581-2.456C75.302,61.811,76.293,63.061,76.195,64.512z"/>
	<path d="M73.951,67.442c-0.103,1.447-1.169,2.557-2.386,2.473c-1.217-0.085-2.121-1.329-2.019-2.777   c0.098-1.448,1.167-2.557,2.382-2.473C73.146,64.749,74.049,65.993,73.951,67.442z"/>
	<path d="M71.103,70.642c-0.083,1.191-1.093,2.088-2.261,2.005c-1.166-0.079-2.044-1.109-1.965-2.294   c0.085-1.19,1.099-2.088,2.262-2.009C70.307,68.426,71.184,69.453,71.103,70.642z"/>
	<path d="M68.759,73.809c-0.087,1.31-1.129,2.304-2.324,2.216c-1.195-0.081-2.092-1.209-2.001-2.515   c0.089-1.308,1.133-2.299,2.328-2.22C67.957,71.373,68.852,72.499,68.759,73.809z"/>
	<path d="M66.735,76.453c-0.091,1.31-1.055,2.308-2.149,2.232c-1.099-0.076-1.915-1.198-1.824-2.507   c0.089-1.309,1.053-2.305,2.153-2.229C66.008,74.026,66.824,75.148,66.735,76.453z"/>
	<path d="M96,30.635c0,0.802-0.65,1.453-1.452,1.453l0,0c-0.803,0-1.453-0.651-1.453-1.453l0,0c0-0.802,0.65-1.453,1.453-1.453l0,0   C95.35,29.182,96,29.833,96,30.635L96,30.635z"/>
	<path d="M92.126,23.856c0,0.802-0.65,1.453-1.452,1.453l0,0c-0.802,0-1.453-0.651-1.453-1.453l0,0c0-0.802,0.651-1.453,1.453-1.453   l0,0C91.476,22.403,92.126,23.054,92.126,23.856L92.126,23.856z"/>
</g>
<text x="0.0" y="117.5" font-size="5.0" font-weight="bold" font-family="Helvetica Neue, Helvetica, Arial-Unicode, Arial, Sans-serif" fill="#000000">Created by Cherish Watson</text><text x="0.0" y="122.5" font-size="5.0" font-weight="bold" font-family="Helvetica Neue, Helvetica, Arial-Unicode, Arial, Sans-serif" fill="#000000">from the Noun Project</text></svg>