<svg xmlns="http://www.w3.org/2000/svg" xmlns:xlink="http://www.w3.org/1999/xlink" version="1.1" width="96" height="96" viewBox="4.8 -9.6 96.0 129.6">
<path d="M66.060 83.736c-4.88 0-11.776-2.524-18.056-13.9-6.276 11.376-13.18 13.9-18.056 13.9-7.588 0-13.808-6.032-16.38-11.624-1.968-4.296-2.252-8.372-0.836-12.116 1.080-2.86 3.104-5.444 6.048-7.728-16.412-1.384-16.408-17.624-16.408-23.116 0-5.052 0-16.884 9.744-16.884 1.852 0 3.96 0.424 6.44 1.3 10.136 3.572 23.64 16.36 29.448 27.256 5.808-10.9 19.312-23.684 29.444-27.256 2.484-0.872 4.584-1.3 6.44-1.3 9.748 0 9.748 11.832 9.748 16.884 0 7.032-1.080 12.052-3.388 15.796-2.704 4.372-7.084 6.832-13.024 7.328 2.94 2.276 4.968 4.86 6.052 7.724 1.416 3.748 1.132 7.824-0.836 12.12-2.572 5.584-8.792 11.616-16.38 11.616z" fill="#000000"/>
<text x="0.0" y="112.8" font-size="4.8" font-weight="bold" font-family="Helvetica Neue, Helvetica, Arial-Unicode, Arial, Sans-serif" fill="#000000">Created by iconsmind.com</text><text x="0.0" y="117.6" font-size="4.8" font-weight="bold" font-family="Helvetica Neue, Helvetica, Arial-Unicode, Arial, Sans-serif" fill="#000000">from the Noun Project</text></svg>