<?xml version="1.0" encoding="UTF-8" standalone="no"?>
<svg
   xmlns:dc="http://purl.org/dc/elements/1.1/"
   xmlns:cc="http://creativecommons.org/ns#"
   xmlns:rdf="http://www.w3.org/1999/02/22-rdf-syntax-ns#"
   xmlns:svg="http://www.w3.org/2000/svg"
   xmlns="http://www.w3.org/2000/svg"
   xmlns:sodipodi="http://sodipodi.sourceforge.net/DTD/sodipodi-0.dtd"
   xmlns:inkscape="http://www.inkscape.org/namespaces/inkscape"
   version="1.1"
   width="420mm"
   height="297mm"
   viewBox="4.8 -9.6 1488.1895 1420.6889"
   id="svg2"
   inkscape:version="0.91 r13725"
   sodipodi:docname="noun_70303_cc_WIP.svg">
  <metadata
     id="metadata14">
    <rdf:RDF>
      <cc:Work
         rdf:about="">
        <dc:format>image/svg+xml</dc:format>
        <dc:type
           rdf:resource="http://purl.org/dc/dcmitype/StillImage" />
        <dc:title />
      </cc:Work>
    </rdf:RDF>
  </metadata>
  <defs
     id="defs12" />
  <sodipodi:namedview
     pagecolor="#ffffff"
     bordercolor="#666666"
     borderopacity="1"
     objecttolerance="10"
     gridtolerance="10"
     guidetolerance="10"
     inkscape:pageopacity="0"
     inkscape:pageshadow="2"
     inkscape:window-width="1444"
     inkscape:window-height="694"
     id="namedview10"
     showgrid="false"
     inkscape:zoom="0.94"
     inkscape:cx="1066.5893"
     inkscape:cy="878.39569"
     inkscape:window-x="0"
     inkscape:window-y="0"
     inkscape:window-maximized="0"
     inkscape:current-layer="layer2"
     units="mm" />
  <g
     inkscape:groupmode="layer"
     id="layer1"
     inkscape:label="Components"
     style="display:none">
    <ellipse
       style="fill:#313133;fill-opacity:1;stroke:none;stroke-width:0.48148134;stroke-miterlimit:4;stroke-dasharray:none;stroke-opacity:1"
       id="path4285"
       cx="335.53098"
       cy="948.68347"
       rx="47.593899"
       ry="47.593906" />
    <rect
       style="fill:#313133;fill-opacity:1;stroke:none;stroke-width:0.13499999;stroke-miterlimit:4;stroke-dasharray:none;stroke-opacity:1"
       id="rect4287"
       width="35.87598"
       height="61.22834"
       x="248.74319"
       y="956.8783" />
    <ellipse
       ry="47.593906"
       rx="47.593899"
       cy="944.55603"
       cx="199.92668"
       id="ellipse4309"
       style="fill:#313133;fill-opacity:1;stroke:none;stroke-width:0.48148134;stroke-miterlimit:4;stroke-dasharray:none;stroke-opacity:1" />
  </g>
  <g
     inkscape:groupmode="layer"
     id="layer2"
     inkscape:label="Acrylic Sculpture"
     style="display:inline">
    <g
       id="g4142"
       transform="translate(-247.49362,-763.49452)">
      <g
         transform="matrix(4.530796,0,0,4.5307959,51.112086,748.90483)"
         id="g4279">
        <path
           style="color:#000000;font-style:normal;font-variant:normal;font-weight:normal;font-stretch:normal;font-size:medium;line-height:normal;font-family:sans-serif;text-indent:0;text-align:start;text-decoration:none;text-decoration-line:none;text-decoration-style:solid;text-decoration-color:#000000;letter-spacing:normal;word-spacing:normal;text-transform:none;direction:ltr;block-progression:tb;writing-mode:lr-tb;baseline-shift:baseline;text-anchor:start;white-space:normal;clip-rule:nonzero;display:inline;overflow:visible;visibility:visible;opacity:1;isolation:auto;mix-blend-mode:normal;color-interpolation:sRGB;color-interpolation-filters:linearRGB;solid-color:#000000;solid-opacity:1;fill:none;fill-opacity:1;fill-rule:nonzero;stroke:#00ff00;stroke-width:0.13500001;stroke-linecap:butt;stroke-linejoin:miter;stroke-miterlimit:4;stroke-dasharray:none;stroke-dashoffset:0;stroke-opacity:1;color-rendering:auto;image-rendering:auto;shape-rendering:auto;text-rendering:auto;enable-background:accumulate"
           d="m 12.115234,13.482422 c 1.666558,0 3.642938,0.385475 6.035157,1.230469 l 0.002,0 0,0.002 c 9.597699,3.382299 23.153404,16.127279 28.779297,26.68164 l 1.072265,2.011719 1.072266,-2.013672 c 5.625552,-10.557596 19.179576,-23.296545 28.773437,-26.679687 2.399304,-0.842268 4.369852,-1.232422 6.039063,-1.232422 2.191208,0 3.684406,0.629353 4.839844,1.630859 1.155438,1.001506 1.97641,2.436271 2.539062,4.09375 1.125303,3.314958 1.154297,7.419313 1.154297,9.945313 0,6.907597 -1.066718,11.683054 -3.208984,15.158203 -2.502574,4.044683 -6.43359,6.281599 -12.089844,6.753906 l -3.111328,0.259766 2.46875,1.912109 c 2.80187,2.169067 4.668102,4.572287 5.660156,7.19336 l -0.002,0 c 1.294091,3.425319 1.062506,7.11191 -0.802734,11.183593 -2.400118,5.209534 -8.331919,10.908203 -15.275391,10.908203 -4.461057,0 -10.857315,-2.160329 -16.992188,-13.273437 L 48.003906,67.322266 46.939453,69.25 c -6.130666,11.112566 -12.535474,13.271484 -16.992187,13.271484 -6.943473,0 -12.875109,-5.698661 -15.275391,-10.916015 l 0,-0.002 c -1.8645,-4.070986 -2.096316,-7.757416 -0.802734,-11.177735 0.988211,-2.616929 2.849821,-5.019996 5.65625,-7.197265 l 2.460937,-1.910157 -3.103516,-0.261718 C 11.073339,50.398079 7.4711987,46.409356 5.5429688,41.783203 3.6147388,37.15705 3.5878906,31.898639 3.5878906,29.152344 c 0,-2.526 0.027476,-6.63223 1.1523438,-9.947266 0.562434,-1.657518 1.3841615,-3.090345 2.5390625,-4.091797 1.154901,-1.001451 2.6458303,-1.630859 4.8359371,-1.630859 z"
           id="path4146"
           inkscape:connector-curvature="0"
           sodipodi:nodetypes="scccccccsssscccccccscccscccccssssss" />
      </g>
      <path
         id="path8"
         d="m 358.3184,1090.7851 -0.0866,-0.1903 c 0,0 -0.15318,-0.3308 -0.27062,-0.5868 -0.23492,-0.511 -0.5777,-1.2631 -1.01416,-2.2359 -0.87294,-1.946 -2.11919,-4.7746 -3.61487,-8.3145 -2.99015,-7.0766 -6.97676,-16.9972 -10.96299,-28.3632 -2.6e-4,0 -3.5e-4,0 -6.9e-4,-0.01 -10e-4,-0.01 -0.003,0 -0.004,0 -7.96398,-22.8276 -15.91155,-51.28818 -15.96414,-74.55609 2.2e-4,-2.48557 0.096,-4.90914 0.28821,-7.26377 2.03807,-23.28556 15.86404,-49.96745 29.29034,-71.21593 6.9e-4,0 6.9e-4,0 10e-4,0 6.72218,-10.55222 13.32346,-19.66639 18.24413,-26.13861 2.46054,-3.23635 4.50111,-5.81301 5.92735,-7.58183 0.71313,-0.88396 1.27229,-1.5663 1.65487,-2.02935 0.0674,-0.0815 0.0986,-0.11779 0.15491,-0.18576 l 0.43504,-0.51515"
         style="color:#000000;font-style:normal;font-variant:normal;font-weight:normal;font-stretch:normal;font-size:medium;line-height:normal;font-family:sans-serif;text-indent:0;text-align:start;text-decoration:none;text-decoration-line:none;text-decoration-style:solid;text-decoration-color:#000000;letter-spacing:normal;word-spacing:normal;text-transform:none;direction:ltr;block-progression:tb;writing-mode:lr-tb;baseline-shift:baseline;text-anchor:start;white-space:normal;clip-rule:nonzero;display:inline;overflow:visible;visibility:visible;opacity:1;isolation:auto;mix-blend-mode:normal;color-interpolation:sRGB;color-interpolation-filters:linearRGB;solid-color:#000000;solid-opacity:1;fill:none;fill-opacity:1;fill-rule:nonzero;stroke:#00ff00;stroke-width:0.6116575;stroke-linecap:butt;stroke-linejoin:miter;stroke-miterlimit:4;stroke-dasharray:none;stroke-dashoffset:0;stroke-opacity:1;color-rendering:auto;image-rendering:auto;shape-rendering:auto;text-rendering:auto;enable-background:accumulate"
         inkscape:connector-curvature="0"
         transform="translate(-1.107231e-6,-4.4233413e-8)" />
      <path
         inkscape:connector-curvature="0"
         style="color:#000000;font-style:normal;font-variant:normal;font-weight:normal;font-stretch:normal;font-size:medium;line-height:normal;font-family:sans-serif;text-indent:0;text-align:start;text-decoration:none;text-decoration-line:none;text-decoration-style:solid;text-decoration-color:#000000;letter-spacing:normal;word-spacing:normal;text-transform:none;direction:ltr;block-progression:tb;writing-mode:lr-tb;baseline-shift:baseline;text-anchor:start;white-space:normal;clip-rule:nonzero;display:inline;overflow:visible;visibility:visible;opacity:1;isolation:auto;mix-blend-mode:normal;color-interpolation:sRGB;color-interpolation-filters:linearRGB;solid-color:#000000;solid-opacity:1;fill:none;fill-opacity:1;fill-rule:nonzero;stroke:#00ff00;stroke-width:0.6116575;stroke-linecap:butt;stroke-linejoin:miter;stroke-miterlimit:4;stroke-dasharray:none;stroke-dashoffset:0;stroke-opacity:1;color-rendering:auto;image-rendering:auto;shape-rendering:auto;text-rendering:auto;enable-background:accumulate"
         d="m 178.89847,1090.7851 0.0866,-0.1903 c 0,0 0.15318,-0.3308 0.27062,-0.5868 0.23492,-0.511 0.57769,-1.2631 1.01417,-2.2359 0.87293,-1.946 2.11918,-4.7746 3.61487,-8.3145 2.99014,-7.0766 6.97675,-16.9972 10.96298,-28.3632 2.5e-4,0 3.5e-4,0 6.8e-4,-0.01 0.001,-0.01 0.003,0 0.004,0 7.96397,-22.8276 15.91155,-51.28818 15.96413,-74.55609 -2.1e-4,-2.48557 -0.096,-4.90914 -0.2882,-7.26377 -2.03808,-23.28556 -15.86404,-49.96745 -29.29035,-71.21593 -6.9e-4,0 -6.9e-4,0 -10e-4,0 -6.72218,-10.55222 -13.32346,-19.66639 -18.24413,-26.13861 -2.46053,-3.23635 -4.50112,-5.81301 -5.92736,-7.58183 -0.71312,-0.88396 -1.27229,-1.5663 -1.65486,-2.02935 -0.0674,-0.0815 -0.0986,-0.11779 -0.15495,-0.18576 l -0.43505,-0.51515"
         id="path4154"
         transform="translate(-1.107231e-6,-4.4233413e-8)" />
    </g>
    <g
       transform="translate(186.78763,-765.82937)"
       id="g4149">
      <g
         id="g4151"
         transform="matrix(4.530796,0,0,4.5307959,51.112086,748.90483)">
        <path
           sodipodi:nodetypes="scccccccsssscccccccscccscccccssssss"
           inkscape:connector-curvature="0"
           id="path4155"
           d="m 12.115234,13.482422 c 1.666558,0 3.642938,0.385475 6.035157,1.230469 l 0.002,0 0,0.002 c 9.597699,3.382299 23.153404,16.127279 28.779297,26.68164 l 1.072265,2.011719 1.072266,-2.013672 c 5.625552,-10.557596 19.179576,-23.296545 28.773437,-26.679687 2.399304,-0.842268 4.369852,-1.232422 6.039063,-1.232422 2.191208,0 3.684406,0.629353 4.839844,1.630859 1.155438,1.001506 1.97641,2.436271 2.539062,4.09375 1.125303,3.314958 1.154297,7.419313 1.154297,9.945313 0,6.907597 -1.066718,11.683054 -3.208984,15.158203 -2.502574,4.044683 -6.43359,6.281599 -12.089844,6.753906 l -3.111328,0.259766 2.46875,1.912109 c 2.80187,2.169067 4.668102,4.572287 5.660156,7.19336 l -0.002,0 c 1.294091,3.425319 1.062506,7.11191 -0.802734,11.183593 -2.400118,5.209534 -8.331919,10.908203 -15.275391,10.908203 -4.461057,0 -10.857315,-2.160329 -16.992188,-13.273437 L 48.003906,67.322266 46.939453,69.25 c -6.130666,11.112566 -12.535474,13.271484 -16.992187,13.271484 -6.943473,0 -12.875109,-5.698661 -15.275391,-10.916015 l 0,-0.002 c -1.8645,-4.070986 -2.096316,-7.757416 -0.802734,-11.177735 0.988211,-2.616929 2.849821,-5.019996 5.65625,-7.197265 l 2.460937,-1.910157 -3.103516,-0.261718 C 11.073339,50.398079 7.4711987,46.409356 5.5429688,41.783203 3.6147388,37.15705 3.5878906,31.898639 3.5878906,29.152344 c 0,-2.526 0.027476,-6.63223 1.1523438,-9.947266 0.562434,-1.657518 1.3841615,-3.090345 2.5390625,-4.091797 1.154901,-1.001451 2.6458303,-1.630859 4.8359371,-1.630859 z"
           style="color:#000000;font-style:normal;font-variant:normal;font-weight:normal;font-stretch:normal;font-size:medium;line-height:normal;font-family:sans-serif;text-indent:0;text-align:start;text-decoration:none;text-decoration-line:none;text-decoration-style:solid;text-decoration-color:#000000;letter-spacing:normal;word-spacing:normal;text-transform:none;direction:ltr;block-progression:tb;writing-mode:lr-tb;baseline-shift:baseline;text-anchor:start;white-space:normal;clip-rule:nonzero;display:inline;overflow:visible;visibility:visible;opacity:1;isolation:auto;mix-blend-mode:normal;color-interpolation:sRGB;color-interpolation-filters:linearRGB;solid-color:#000000;solid-opacity:1;fill:none;fill-opacity:1;fill-rule:nonzero;stroke:#0000ff;stroke-width:0.13500001;stroke-linecap:butt;stroke-linejoin:miter;stroke-miterlimit:4;stroke-dasharray:none;stroke-dashoffset:0;stroke-opacity:1;color-rendering:auto;image-rendering:auto;shape-rendering:auto;text-rendering:auto;enable-background:accumulate" />
      </g>
      <path
         transform="translate(-1.107231e-6,-4.4233413e-8)"
         inkscape:connector-curvature="0"
         style="color:#000000;font-style:normal;font-variant:normal;font-weight:normal;font-stretch:normal;font-size:medium;line-height:normal;font-family:sans-serif;text-indent:0;text-align:start;text-decoration:none;text-decoration-line:none;text-decoration-style:solid;text-decoration-color:#000000;letter-spacing:normal;word-spacing:normal;text-transform:none;direction:ltr;block-progression:tb;writing-mode:lr-tb;baseline-shift:baseline;text-anchor:start;white-space:normal;clip-rule:nonzero;display:inline;overflow:visible;visibility:visible;opacity:1;isolation:auto;mix-blend-mode:normal;color-interpolation:sRGB;color-interpolation-filters:linearRGB;solid-color:#000000;solid-opacity:1;fill:none;fill-opacity:1;fill-rule:nonzero;stroke:#0000ff;stroke-width:0.6116575;stroke-linecap:butt;stroke-linejoin:miter;stroke-miterlimit:4;stroke-dasharray:none;stroke-dashoffset:0;stroke-opacity:1;color-rendering:auto;image-rendering:auto;shape-rendering:auto;text-rendering:auto;enable-background:accumulate"
         d="m 358.3184,1090.7851 -0.0866,-0.1903 c 0,0 -0.15318,-0.3308 -0.27062,-0.5868 -0.23492,-0.511 -0.5777,-1.2631 -1.01416,-2.2359 -0.87294,-1.946 -2.11919,-4.7746 -3.61487,-8.3145 -2.99015,-7.0766 -6.97676,-16.9972 -10.96299,-28.3632 -2.6e-4,0 -3.5e-4,0 -6.9e-4,-0.01 -10e-4,-0.01 -0.003,0 -0.004,0 -7.96398,-22.8276 -15.91155,-51.28818 -15.96414,-74.55609 2.2e-4,-2.48557 0.096,-4.90914 0.28821,-7.26377 2.03807,-23.28556 15.86404,-49.96745 29.29034,-71.21593 6.9e-4,0 6.9e-4,0 10e-4,0 6.72218,-10.55222 13.32346,-19.66639 18.24413,-26.13861 2.46054,-3.23635 4.50111,-5.81301 5.92735,-7.58183 0.71313,-0.88396 1.27229,-1.5663 1.65487,-2.02935 0.0674,-0.0815 0.0986,-0.11779 0.15491,-0.18576 l 0.43504,-0.51515"
         id="path4157" />
      <path
         transform="translate(-1.107231e-6,-4.4233413e-8)"
         id="path4159"
         d="m 178.89847,1090.7851 0.0866,-0.1903 c 0,0 0.15318,-0.3308 0.27062,-0.5868 0.23492,-0.511 0.57769,-1.2631 1.01417,-2.2359 0.87293,-1.946 2.11918,-4.7746 3.61487,-8.3145 2.99014,-7.0766 6.97675,-16.9972 10.96298,-28.3632 2.5e-4,0 3.5e-4,0 6.8e-4,-0.01 0.001,-0.01 0.003,0 0.004,0 7.96397,-22.8276 15.91155,-51.28818 15.96413,-74.55609 -2.1e-4,-2.48557 -0.096,-4.90914 -0.2882,-7.26377 -2.03808,-23.28556 -15.86404,-49.96745 -29.29035,-71.21593 -6.9e-4,0 -6.9e-4,0 -10e-4,0 -6.72218,-10.55222 -13.32346,-19.66639 -18.24413,-26.13861 -2.46053,-3.23635 -4.50112,-5.81301 -5.92736,-7.58183 -0.71312,-0.88396 -1.27229,-1.5663 -1.65486,-2.02935 -0.0674,-0.0815 -0.0986,-0.11779 -0.15495,-0.18576 l -0.43505,-0.51515"
         style="color:#000000;font-style:normal;font-variant:normal;font-weight:normal;font-stretch:normal;font-size:medium;line-height:normal;font-family:sans-serif;text-indent:0;text-align:start;text-decoration:none;text-decoration-line:none;text-decoration-style:solid;text-decoration-color:#000000;letter-spacing:normal;word-spacing:normal;text-transform:none;direction:ltr;block-progression:tb;writing-mode:lr-tb;baseline-shift:baseline;text-anchor:start;white-space:normal;clip-rule:nonzero;display:inline;overflow:visible;visibility:visible;opacity:1;isolation:auto;mix-blend-mode:normal;color-interpolation:sRGB;color-interpolation-filters:linearRGB;solid-color:#000000;solid-opacity:1;fill:none;fill-opacity:1;fill-rule:nonzero;stroke:#0000ff;stroke-width:0.6116575;stroke-linecap:butt;stroke-linejoin:miter;stroke-miterlimit:4;stroke-dasharray:none;stroke-dashoffset:0;stroke-opacity:1;color-rendering:auto;image-rendering:auto;shape-rendering:auto;text-rendering:auto;enable-background:accumulate"
         inkscape:connector-curvature="0" />
    </g>
    <g
       id="g4161"
       transform="translate(635.07796,-770.49906)">
      <g
         transform="matrix(4.530796,0,0,4.5307959,51.112086,748.90483)"
         id="g4163">
        <path
           style="color:#000000;font-style:normal;font-variant:normal;font-weight:normal;font-stretch:normal;font-size:medium;line-height:normal;font-family:sans-serif;text-indent:0;text-align:start;text-decoration:none;text-decoration-line:none;text-decoration-style:solid;text-decoration-color:#000000;letter-spacing:normal;word-spacing:normal;text-transform:none;direction:ltr;block-progression:tb;writing-mode:lr-tb;baseline-shift:baseline;text-anchor:start;white-space:normal;clip-rule:nonzero;display:inline;overflow:visible;visibility:visible;opacity:1;isolation:auto;mix-blend-mode:normal;color-interpolation:sRGB;color-interpolation-filters:linearRGB;solid-color:#000000;solid-opacity:1;fill:none;fill-opacity:1;fill-rule:nonzero;stroke:#00ffff;stroke-width:0.13500001;stroke-linecap:butt;stroke-linejoin:miter;stroke-miterlimit:4;stroke-dasharray:none;stroke-dashoffset:0;stroke-opacity:1;color-rendering:auto;image-rendering:auto;shape-rendering:auto;text-rendering:auto;enable-background:accumulate"
           d="m 12.115234,13.482422 c 1.666558,0 3.642938,0.385475 6.035157,1.230469 l 0.002,0 0,0.002 c 9.597699,3.382299 23.153404,16.127279 28.779297,26.68164 l 1.072265,2.011719 1.072266,-2.013672 c 5.625552,-10.557596 19.179576,-23.296545 28.773437,-26.679687 2.399304,-0.842268 4.369852,-1.232422 6.039063,-1.232422 2.191208,0 3.684406,0.629353 4.839844,1.630859 1.155438,1.001506 1.97641,2.436271 2.539062,4.09375 1.125303,3.314958 1.154297,7.419313 1.154297,9.945313 0,6.907597 -1.066718,11.683054 -3.208984,15.158203 -2.502574,4.044683 -6.43359,6.281599 -12.089844,6.753906 l -3.111328,0.259766 2.46875,1.912109 c 2.80187,2.169067 4.668102,4.572287 5.660156,7.19336 l -0.002,0 c 1.294091,3.425319 1.062506,7.11191 -0.802734,11.183593 -2.400118,5.209534 -8.331919,10.908203 -15.275391,10.908203 -4.461057,0 -10.857315,-2.160329 -16.992188,-13.273437 L 48.003906,67.322266 46.939453,69.25 c -6.130666,11.112566 -12.535474,13.271484 -16.992187,13.271484 -6.943473,0 -12.875109,-5.698661 -15.275391,-10.916015 l 0,-0.002 c -1.8645,-4.070986 -2.096316,-7.757416 -0.802734,-11.177735 0.988211,-2.616929 2.849821,-5.019996 5.65625,-7.197265 l 2.460937,-1.910157 -3.103516,-0.261718 C 11.073339,50.398079 7.4711987,46.409356 5.5429688,41.783203 3.6147388,37.15705 3.5878906,31.898639 3.5878906,29.152344 c 0,-2.526 0.027476,-6.63223 1.1523438,-9.947266 0.562434,-1.657518 1.3841615,-3.090345 2.5390625,-4.091797 1.154901,-1.001451 2.6458303,-1.630859 4.8359371,-1.630859 z"
           id="path4167"
           inkscape:connector-curvature="0"
           sodipodi:nodetypes="scccccccsssscccccccscccscccccssssss" />
      </g>
      <path
         id="path4169"
         d="m 358.3184,1090.7851 -0.0866,-0.1903 c 0,0 -0.15318,-0.3308 -0.27062,-0.5868 -0.23492,-0.511 -0.5777,-1.2631 -1.01416,-2.2359 -0.87294,-1.946 -2.11919,-4.7746 -3.61487,-8.3145 -2.99015,-7.0766 -6.97676,-16.9972 -10.96299,-28.3632 -2.6e-4,0 -3.5e-4,0 -6.9e-4,-0.01 -10e-4,-0.01 -0.003,0 -0.004,0 -7.96398,-22.8276 -15.91155,-51.28818 -15.96414,-74.55609 2.2e-4,-2.48557 0.096,-4.90914 0.28821,-7.26377 2.03807,-23.28556 15.86404,-49.96745 29.29034,-71.21593 6.9e-4,0 6.9e-4,0 10e-4,0 6.72218,-10.55222 13.32346,-19.66639 18.24413,-26.13861 2.46054,-3.23635 4.50111,-5.81301 5.92735,-7.58183 0.71313,-0.88396 1.27229,-1.5663 1.65487,-2.02935 0.0674,-0.0815 0.0986,-0.11779 0.15491,-0.18576 l 0.43504,-0.51515"
         style="color:#000000;font-style:normal;font-variant:normal;font-weight:normal;font-stretch:normal;font-size:medium;line-height:normal;font-family:sans-serif;text-indent:0;text-align:start;text-decoration:none;text-decoration-line:none;text-decoration-style:solid;text-decoration-color:#000000;letter-spacing:normal;word-spacing:normal;text-transform:none;direction:ltr;block-progression:tb;writing-mode:lr-tb;baseline-shift:baseline;text-anchor:start;white-space:normal;clip-rule:nonzero;display:inline;overflow:visible;visibility:visible;opacity:1;isolation:auto;mix-blend-mode:normal;color-interpolation:sRGB;color-interpolation-filters:linearRGB;solid-color:#000000;solid-opacity:1;fill:none;fill-opacity:1;fill-rule:nonzero;stroke:#00ffff;stroke-width:0.6116575;stroke-linecap:butt;stroke-linejoin:miter;stroke-miterlimit:4;stroke-dasharray:none;stroke-dashoffset:0;stroke-opacity:1;color-rendering:auto;image-rendering:auto;shape-rendering:auto;text-rendering:auto;enable-background:accumulate"
         inkscape:connector-curvature="0"
         transform="translate(-1.107231e-6,-4.4233413e-8)" />
      <path
         inkscape:connector-curvature="0"
         style="color:#000000;font-style:normal;font-variant:normal;font-weight:normal;font-stretch:normal;font-size:medium;line-height:normal;font-family:sans-serif;text-indent:0;text-align:start;text-decoration:none;text-decoration-line:none;text-decoration-style:solid;text-decoration-color:#000000;letter-spacing:normal;word-spacing:normal;text-transform:none;direction:ltr;block-progression:tb;writing-mode:lr-tb;baseline-shift:baseline;text-anchor:start;white-space:normal;clip-rule:nonzero;display:inline;overflow:visible;visibility:visible;opacity:1;isolation:auto;mix-blend-mode:normal;color-interpolation:sRGB;color-interpolation-filters:linearRGB;solid-color:#000000;solid-opacity:1;fill:none;fill-opacity:1;fill-rule:nonzero;stroke:#00ffff;stroke-width:0.6116575;stroke-linecap:butt;stroke-linejoin:miter;stroke-miterlimit:4;stroke-dasharray:none;stroke-dashoffset:0;stroke-opacity:1;color-rendering:auto;image-rendering:auto;shape-rendering:auto;text-rendering:auto;enable-background:accumulate"
         d="m 178.89847,1090.7851 0.0866,-0.1903 c 0,0 0.15318,-0.3308 0.27062,-0.5868 0.23492,-0.511 0.57769,-1.2631 1.01417,-2.2359 0.87293,-1.946 2.11918,-4.7746 3.61487,-8.3145 2.99014,-7.0766 6.97675,-16.9972 10.96298,-28.3632 2.5e-4,0 3.5e-4,0 6.8e-4,-0.01 0.001,-0.01 0.003,0 0.004,0 7.96397,-22.8276 15.91155,-51.28818 15.96413,-74.55609 -2.1e-4,-2.48557 -0.096,-4.90914 -0.2882,-7.26377 -2.03808,-23.28556 -15.86404,-49.96745 -29.29035,-71.21593 -6.9e-4,0 -6.9e-4,0 -10e-4,0 -6.72218,-10.55222 -13.32346,-19.66639 -18.24413,-26.13861 -2.46053,-3.23635 -4.50112,-5.81301 -5.92736,-7.58183 -0.71312,-0.88396 -1.27229,-1.5663 -1.65486,-2.02935 -0.0674,-0.0815 -0.0986,-0.11779 -0.15495,-0.18576 l -0.43505,-0.51515"
         id="path4171"
         transform="translate(-1.107231e-6,-4.4233413e-8)" />
    </g>
    <g
       transform="translate(1074.0289,-770.49906)"
       id="g4173">
      <g
         id="g4175"
         transform="matrix(4.530796,0,0,4.5307959,51.112086,748.90483)">
        <path
           sodipodi:nodetypes="scccccccsssscccccccscccscccccssssss"
           inkscape:connector-curvature="0"
           id="path4179"
           d="m 12.115234,13.482422 c 1.666558,0 3.642938,0.385475 6.035157,1.230469 l 0.002,0 0,0.002 c 9.597699,3.382299 23.153404,16.127279 28.779297,26.68164 l 1.072265,2.011719 1.072266,-2.013672 c 5.625552,-10.557596 19.179576,-23.296545 28.773437,-26.679687 2.399304,-0.842268 4.369852,-1.232422 6.039063,-1.232422 2.191208,0 3.684406,0.629353 4.839844,1.630859 1.155438,1.001506 1.97641,2.436271 2.539062,4.09375 1.125303,3.314958 1.154297,7.419313 1.154297,9.945313 0,6.907597 -1.066718,11.683054 -3.208984,15.158203 -2.502574,4.044683 -6.43359,6.281599 -12.089844,6.753906 l -3.111328,0.259766 2.46875,1.912109 c 2.80187,2.169067 4.668102,4.572287 5.660156,7.19336 l -0.002,0 c 1.294091,3.425319 1.062506,7.11191 -0.802734,11.183593 -2.400118,5.209534 -8.331919,10.908203 -15.275391,10.908203 -4.461057,0 -10.857315,-2.160329 -16.992188,-13.273437 L 48.003906,67.322266 46.939453,69.25 c -6.130666,11.112566 -12.535474,13.271484 -16.992187,13.271484 -6.943473,0 -12.875109,-5.698661 -15.275391,-10.916015 l 0,-0.002 c -1.8645,-4.070986 -2.096316,-7.757416 -0.802734,-11.177735 0.988211,-2.616929 2.849821,-5.019996 5.65625,-7.197265 l 2.460937,-1.910157 -3.103516,-0.261718 C 11.073339,50.398079 7.4711987,46.409356 5.5429688,41.783203 3.6147388,37.15705 3.5878906,31.898639 3.5878906,29.152344 c 0,-2.526 0.027476,-6.63223 1.1523438,-9.947266 0.562434,-1.657518 1.3841615,-3.090345 2.5390625,-4.091797 1.154901,-1.001451 2.6458303,-1.630859 4.8359371,-1.630859 z"
           style="color:#000000;font-style:normal;font-variant:normal;font-weight:normal;font-stretch:normal;font-size:medium;line-height:normal;font-family:sans-serif;text-indent:0;text-align:start;text-decoration:none;text-decoration-line:none;text-decoration-style:solid;text-decoration-color:#000000;letter-spacing:normal;word-spacing:normal;text-transform:none;direction:ltr;block-progression:tb;writing-mode:lr-tb;baseline-shift:baseline;text-anchor:start;white-space:normal;clip-rule:nonzero;display:inline;overflow:visible;visibility:visible;opacity:1;isolation:auto;mix-blend-mode:normal;color-interpolation:sRGB;color-interpolation-filters:linearRGB;solid-color:#000000;solid-opacity:1;fill:none;fill-opacity:1;fill-rule:nonzero;stroke:#ff00ff;stroke-width:0.13500001;stroke-linecap:butt;stroke-linejoin:miter;stroke-miterlimit:4;stroke-dasharray:none;stroke-dashoffset:0;stroke-opacity:1;color-rendering:auto;image-rendering:auto;shape-rendering:auto;text-rendering:auto;enable-background:accumulate" />
      </g>
      <path
         transform="translate(-1.107231e-6,-4.4233413e-8)"
         inkscape:connector-curvature="0"
         style="color:#000000;font-style:normal;font-variant:normal;font-weight:normal;font-stretch:normal;font-size:medium;line-height:normal;font-family:sans-serif;text-indent:0;text-align:start;text-decoration:none;text-decoration-line:none;text-decoration-style:solid;text-decoration-color:#000000;letter-spacing:normal;word-spacing:normal;text-transform:none;direction:ltr;block-progression:tb;writing-mode:lr-tb;baseline-shift:baseline;text-anchor:start;white-space:normal;clip-rule:nonzero;display:inline;overflow:visible;visibility:visible;opacity:1;isolation:auto;mix-blend-mode:normal;color-interpolation:sRGB;color-interpolation-filters:linearRGB;solid-color:#000000;solid-opacity:1;fill:none;fill-opacity:1;fill-rule:nonzero;stroke:#ff00ff;stroke-width:0.6116575;stroke-linecap:butt;stroke-linejoin:miter;stroke-miterlimit:4;stroke-dasharray:none;stroke-dashoffset:0;stroke-opacity:1;color-rendering:auto;image-rendering:auto;shape-rendering:auto;text-rendering:auto;enable-background:accumulate"
         d="m 358.3184,1090.7851 -0.0866,-0.1903 c 0,0 -0.15318,-0.3308 -0.27062,-0.5868 -0.23492,-0.511 -0.5777,-1.2631 -1.01416,-2.2359 -0.87294,-1.946 -2.11919,-4.7746 -3.61487,-8.3145 -2.99015,-7.0766 -6.97676,-16.9972 -10.96299,-28.3632 -2.6e-4,0 -3.5e-4,0 -6.9e-4,-0.01 -10e-4,-0.01 -0.003,0 -0.004,0 -7.96398,-22.8276 -15.91155,-51.28818 -15.96414,-74.55609 2.2e-4,-2.48557 0.096,-4.90914 0.28821,-7.26377 2.03807,-23.28556 15.86404,-49.96745 29.29034,-71.21593 6.9e-4,0 6.9e-4,0 10e-4,0 6.72218,-10.55222 13.32346,-19.66639 18.24413,-26.13861 2.46054,-3.23635 4.50111,-5.81301 5.92735,-7.58183 0.71313,-0.88396 1.27229,-1.5663 1.65487,-2.02935 0.0674,-0.0815 0.0986,-0.11779 0.15491,-0.18576 l 0.43504,-0.51515"
         id="path4181" />
      <path
         transform="translate(-1.107231e-6,-4.4233413e-8)"
         id="path4183"
         d="m 178.89847,1090.7851 0.0866,-0.1903 c 0,0 0.15318,-0.3308 0.27062,-0.5868 0.23492,-0.511 0.57769,-1.2631 1.01417,-2.2359 0.87293,-1.946 2.11918,-4.7746 3.61487,-8.3145 2.99014,-7.0766 6.97675,-16.9972 10.96298,-28.3632 2.5e-4,0 3.5e-4,0 6.8e-4,-0.01 0.001,-0.01 0.003,0 0.004,0 7.96397,-22.8276 15.91155,-51.28818 15.96413,-74.55609 -2.1e-4,-2.48557 -0.096,-4.90914 -0.2882,-7.26377 -2.03808,-23.28556 -15.86404,-49.96745 -29.29035,-71.21593 -6.9e-4,0 -6.9e-4,0 -10e-4,0 -6.72218,-10.55222 -13.32346,-19.66639 -18.24413,-26.13861 -2.46053,-3.23635 -4.50112,-5.81301 -5.92736,-7.58183 -0.71312,-0.88396 -1.27229,-1.5663 -1.65486,-2.02935 -0.0674,-0.0815 -0.0986,-0.11779 -0.15495,-0.18576 l -0.43505,-0.51515"
         style="color:#000000;font-style:normal;font-variant:normal;font-weight:normal;font-stretch:normal;font-size:medium;line-height:normal;font-family:sans-serif;text-indent:0;text-align:start;text-decoration:none;text-decoration-line:none;text-decoration-style:solid;text-decoration-color:#000000;letter-spacing:normal;word-spacing:normal;text-transform:none;direction:ltr;block-progression:tb;writing-mode:lr-tb;baseline-shift:baseline;text-anchor:start;white-space:normal;clip-rule:nonzero;display:inline;overflow:visible;visibility:visible;opacity:1;isolation:auto;mix-blend-mode:normal;color-interpolation:sRGB;color-interpolation-filters:linearRGB;solid-color:#000000;solid-opacity:1;fill:none;fill-opacity:1;fill-rule:nonzero;stroke:#ff00ff;stroke-width:0.6116575;stroke-linecap:butt;stroke-linejoin:miter;stroke-miterlimit:4;stroke-dasharray:none;stroke-dashoffset:0;stroke-opacity:1;color-rendering:auto;image-rendering:auto;shape-rendering:auto;text-rendering:auto;enable-background:accumulate"
         inkscape:connector-curvature="0" />
    </g>
  </g>
  <g
     inkscape:groupmode="layer"
     id="layer3"
     inkscape:label="Acrylic Cut"
     style="display:inline">
    <path
       transform="matrix(4.530796,0,0,4.5307959,-196.38153,-14.58969)"
       inkscape:connector-curvature="0"
       d="m 66.06,83.736 c -4.88,0 -11.776,-2.524 -18.056,-13.9 -6.276,11.376 -13.18,13.9 -18.056,13.9 -7.588,0 -13.808,-6.032 -16.38,-11.624 C 11.6,67.816 11.316,63.74 12.732,59.996 13.812,57.136 15.836,54.552 18.78,52.268 2.368,50.884 2.372,34.644 2.372,29.152 c 0,-5.052 0,-16.884 9.744,-16.884 1.852,0 3.96,0.424 6.44,1.3 10.136,3.572 23.64,16.36 29.448,27.256 5.808,-10.9 19.312,-23.684 29.444,-27.256 2.484,-0.872 4.584,-1.3 6.44,-1.3 9.748,0 9.748,11.832 9.748,16.884 0,7.032 -1.08,12.052 -3.388,15.796 -2.704,4.372 -7.084,6.832 -13.024,7.328 2.94,2.276 4.968,4.86 6.052,7.724 1.416,3.748 1.132,7.824 -0.836,12.12 -2.572,5.584 -8.792,11.616 -16.38,11.616 z"
       id="path4"
       style="display:inline;fill:none;stroke:#ff0000;stroke-width:0.13500001;stroke-miterlimit:4;stroke-dasharray:none;stroke-opacity:1" />
    <path
       transform="matrix(4.530796,0,0,4.5307959,237.89972,-16.92454)"
       style="display:inline;fill:none;stroke:#ff0000;stroke-width:0.13500001;stroke-miterlimit:4;stroke-dasharray:none;stroke-opacity:1"
       id="path4153"
       d="m 66.06,83.736 c -4.88,0 -11.776,-2.524 -18.056,-13.9 -6.276,11.376 -13.18,13.9 -18.056,13.9 -7.588,0 -13.808,-6.032 -16.38,-11.624 C 11.6,67.816 11.316,63.74 12.732,59.996 13.812,57.136 15.836,54.552 18.78,52.268 2.368,50.884 2.372,34.644 2.372,29.152 c 0,-5.052 0,-16.884 9.744,-16.884 1.852,0 3.96,0.424 6.44,1.3 10.136,3.572 23.64,16.36 29.448,27.256 5.808,-10.9 19.312,-23.684 29.444,-27.256 2.484,-0.872 4.584,-1.3 6.44,-1.3 9.748,0 9.748,11.832 9.748,16.884 0,7.032 -1.08,12.052 -3.388,15.796 -2.704,4.372 -7.084,6.832 -13.024,7.328 2.94,2.276 4.968,4.86 6.052,7.724 1.416,3.748 1.132,7.824 -0.836,12.12 -2.572,5.584 -8.792,11.616 -16.38,11.616 z"
       inkscape:connector-curvature="0" />
    <path
       transform="matrix(4.530796,0,0,4.5307959,686.19005,-21.59423)"
       inkscape:connector-curvature="0"
       d="m 66.06,83.736 c -4.88,0 -11.776,-2.524 -18.056,-13.9 -6.276,11.376 -13.18,13.9 -18.056,13.9 -7.588,0 -13.808,-6.032 -16.38,-11.624 C 11.6,67.816 11.316,63.74 12.732,59.996 13.812,57.136 15.836,54.552 18.78,52.268 2.368,50.884 2.372,34.644 2.372,29.152 c 0,-5.052 0,-16.884 9.744,-16.884 1.852,0 3.96,0.424 6.44,1.3 10.136,3.572 23.64,16.36 29.448,27.256 5.808,-10.9 19.312,-23.684 29.444,-27.256 2.484,-0.872 4.584,-1.3 6.44,-1.3 9.748,0 9.748,11.832 9.748,16.884 0,7.032 -1.08,12.052 -3.388,15.796 -2.704,4.372 -7.084,6.832 -13.024,7.328 2.94,2.276 4.968,4.86 6.052,7.724 1.416,3.748 1.132,7.824 -0.836,12.12 -2.572,5.584 -8.792,11.616 -16.38,11.616 z"
       id="path4165"
       style="display:inline;fill:none;stroke:#ff0000;stroke-width:0.13500001;stroke-miterlimit:4;stroke-dasharray:none;stroke-opacity:1" />
    <path
       transform="matrix(4.530796,0,0,4.5307959,1125.141,-21.59423)"
       style="display:inline;fill:none;stroke:#ff0000;stroke-width:0.13500001;stroke-miterlimit:4;stroke-dasharray:none;stroke-opacity:1"
       id="path4177"
       d="m 66.06,83.736 c -4.88,0 -11.776,-2.524 -18.056,-13.9 -6.276,11.376 -13.18,13.9 -18.056,13.9 -7.588,0 -13.808,-6.032 -16.38,-11.624 C 11.6,67.816 11.316,63.74 12.732,59.996 13.812,57.136 15.836,54.552 18.78,52.268 2.368,50.884 2.372,34.644 2.372,29.152 c 0,-5.052 0,-16.884 9.744,-16.884 1.852,0 3.96,0.424 6.44,1.3 10.136,3.572 23.64,16.36 29.448,27.256 5.808,-10.9 19.312,-23.684 29.444,-27.256 2.484,-0.872 4.584,-1.3 6.44,-1.3 9.748,0 9.748,11.832 9.748,16.884 0,7.032 -1.08,12.052 -3.388,15.796 -2.704,4.372 -7.084,6.832 -13.024,7.328 2.94,2.276 4.968,4.86 6.052,7.724 1.416,3.748 1.132,7.824 -0.836,12.12 -2.572,5.584 -8.792,11.616 -16.38,11.616 z"
       inkscape:connector-curvature="0" />
  </g>
</svg>
