<?xml version="1.0" encoding="UTF-8" standalone="no"?>
<svg
   xmlns:dc="http://purl.org/dc/elements/1.1/"
   xmlns:cc="http://creativecommons.org/ns#"
   xmlns:rdf="http://www.w3.org/1999/02/22-rdf-syntax-ns#"
   xmlns:svg="http://www.w3.org/2000/svg"
   xmlns="http://www.w3.org/2000/svg"
   xmlns:sodipodi="http://sodipodi.sourceforge.net/DTD/sodipodi-0.dtd"
   xmlns:inkscape="http://www.inkscape.org/namespaces/inkscape"
   id="svg2"
   viewBox="4.8 -9.6 956.69325 1530.7086"
   height="320mm"
   width="270mm"
   version="1.1"
   inkscape:version="0.91 r13725"
   sodipodi:docname="super_correct.svg">
  <sodipodi:namedview
     pagecolor="#ffffff"
     bordercolor="#666666"
     borderopacity="1"
     objecttolerance="10"
     gridtolerance="10"
     guidetolerance="10"
     inkscape:pageopacity="0"
     inkscape:pageshadow="2"
     inkscape:window-width="1440"
     inkscape:window-height="775"
     id="namedview150"
     showgrid="false"
     inkscape:zoom="0.63"
     inkscape:cx="410.09249"
     inkscape:cy="445.33708"
     inkscape:window-x="0"
     inkscape:window-y="0"
     inkscape:window-maximized="1"
     inkscape:current-layer="svg2" />
  <metadata
     id="metadata14">
    <rdf:RDF>
      <cc:Work
         rdf:about="">
        <dc:format>image/svg+xml</dc:format>
        <dc:type
           rdf:resource="http://purl.org/dc/dcmitype/StillImage" />
        <dc:title></dc:title>
      </cc:Work>
    </rdf:RDF>
  </metadata>
  <defs
     id="defs12" />
  <g
     id="g4277">
    <path
       inkscape:connector-curvature="0"
       id="path8"
       d="m 124.75797,176.70027 -0.0866,-0.1903 c 0,0 -0.15318,-0.3308 -0.27062,-0.5868 -0.23492,-0.511 -0.5777,-1.2631 -1.01416,-2.2359 -0.87294,-1.946 -2.11919,-4.7746 -3.61487,-8.3145 -2.99015,-7.0766 -6.97676,-16.9972 -10.96299,-28.3632 -2.6e-4,0 -3.5e-4,0 -6.9e-4,-0.01 -0.001,-0.01 -0.003,0 -0.004,0 -7.96398,-22.8276 -15.911548,-51.28818 -15.964138,-74.55609 2.2e-4,-2.48557 0.096,-4.90914 0.28821,-7.26377 2.03807,-23.28556 15.864038,-49.96745 29.290338,-71.21593 6.9e-4,0 6.9e-4,0 10e-4,0 6.72218,-10.55222 13.32346,-19.66639 18.24413,-26.13861 2.46054,-3.23635 4.50111,-5.81301 5.92735,-7.58183 0.71313,-0.88396 1.27229,-1.5663 1.65487,-2.02935 0.0674,-0.0815 0.0986,-0.11779 0.15491,-0.18576 l 0.43504,-0.51515"
       style="color:#000000;font-style:normal;font-variant:normal;font-weight:normal;font-stretch:normal;font-size:medium;line-height:normal;font-family:sans-serif;text-indent:0;text-align:start;text-decoration:none;text-decoration-line:none;text-decoration-style:solid;text-decoration-color:#000000;letter-spacing:normal;word-spacing:normal;text-transform:none;direction:ltr;block-progression:tb;writing-mode:lr-tb;baseline-shift:baseline;text-anchor:start;white-space:normal;clip-rule:nonzero;display:inline;overflow:visible;visibility:visible;opacity:1;isolation:auto;mix-blend-mode:normal;color-interpolation:sRGB;color-interpolation-filters:linearRGB;solid-color:#000000;solid-opacity:1;fill:none;fill-opacity:1;fill-rule:nonzero;stroke:#ff0000;stroke-width:0.6116575;stroke-linecap:butt;stroke-linejoin:miter;stroke-miterlimit:4;stroke-dasharray:none;stroke-dashoffset:0;stroke-opacity:1;color-rendering:auto;image-rendering:auto;shape-rendering:auto;text-rendering:auto;enable-background:accumulate"
       transform="translate(1.1696166e-6,110.01968)" />
    <path
       inkscape:connector-curvature="0"
       style="color:#000000;font-style:normal;font-variant:normal;font-weight:normal;font-stretch:normal;font-size:medium;line-height:normal;font-family:sans-serif;text-indent:0;text-align:start;text-decoration:none;text-decoration-line:none;text-decoration-style:solid;text-decoration-color:#000000;letter-spacing:normal;word-spacing:normal;text-transform:none;direction:ltr;block-progression:tb;writing-mode:lr-tb;baseline-shift:baseline;text-anchor:start;white-space:normal;clip-rule:nonzero;display:inline;overflow:visible;visibility:visible;opacity:1;isolation:auto;mix-blend-mode:normal;color-interpolation:sRGB;color-interpolation-filters:linearRGB;solid-color:#000000;solid-opacity:1;fill:none;fill-opacity:1;fill-rule:nonzero;stroke:#ff0000;stroke-width:0.6116575;stroke-linecap:butt;stroke-linejoin:miter;stroke-miterlimit:4;stroke-dasharray:none;stroke-dashoffset:0;stroke-opacity:1;color-rendering:auto;image-rendering:auto;shape-rendering:auto;text-rendering:auto;enable-background:accumulate"
       d="m -11.461958,176.70027 0.0866,-0.1903 c 0,0 0.15318,-0.3308 0.27062,-0.5868 0.23492,-0.511 0.57769,-1.2631 1.01417,-2.2359 0.87293,-1.946 2.11918,-4.7746 3.61487,-8.3145 2.99014,-7.0766 6.97675,-16.9972 10.96298,-28.3632 2.5e-4,0 3.5e-4,0 6.8e-4,-0.01 0.001,-0.01 0.003,0 0.004,0 7.96397,-22.8276 15.91155,-51.28818 15.96413,-74.55609 -2.1e-4,-2.48557 -0.096,-4.90914 -0.2882,-7.26377 -2.03808,-23.28556 -15.86404,-49.96745 -29.29035,-71.21593 -6.9e-4,0 -6.9e-4,0 -10e-4,0 -6.72218,-10.55222 -13.32346,-19.66639 -18.24413,-26.13861 -2.46053,-3.23635 -4.50112,-5.81301 -5.92736,-7.58183 -0.71312,-0.88396 -1.27229,-1.5663 -1.65486,-2.02935 -0.0674,-0.0815 -0.0986,-0.11779 -0.15495,-0.18576 l -0.43505,-0.51515"
       id="path4154"
       transform="translate(1.1696166e-6,110.01968)" />
    <g
       transform="translate(35.249377,-29.94219)"
       id="g4240"
       style="display:inline">
      <g
         id="layer3-9"
         style="display:inline">
        <path
           inkscape:connector-curvature="0"
           style="fill:none;stroke:#ff0000;stroke-width:0.51025534;stroke-linejoin:miter;stroke-miterlimit:4;stroke-dasharray:none;stroke-opacity:1"
           d="M 20.838425,93.319177 48.130411,120.61708 21.691293,169.75856 -5.6006889,119.76402 Z"
           id="rect4385" />
      </g>
    </g>
    <path
       inkscape:connector-curvature="0"
       id="path4"
       d="m -105.95335,-109.59696 c -44.14807,0 -44.14921,53.609542 -44.14921,76.499121 0,24.8831332 -0.0171,98.462475 74.342278,104.733103 -13.338666,10.34833 -22.507519,22.05754 -27.400778,35.015626 -6.41561,16.96328 -5.13028,35.42954 3.786326,54.89384 11.653208,25.3362 39.836036,52.66581 74.215712,52.66581 22.0921658,0 53.371553,-11.43569 81.806829,-62.97803 28.453392,51.54234 59.699173,62.97803 81.809463,62.97803 34.37967,0 62.55987,-27.32894 74.21306,-52.6289 8.91662,-19.4643 10.20459,-37.93353 3.78897,-54.91493 -4.91138,-12.976214 -14.10133,-24.682441 -27.42187,-34.994537 26.91293,-2.247278 46.75848,-13.392917 59.00976,-33.20156 10.45707,-16.963302 15.35097,-39.7078983 15.35097,-71.568452 0,-22.889579 -0.001,-76.499121 -44.16766,-76.499121 -8.40917,0 -17.92344,1.93958 -29.17793,5.89044 -30.79753,10.857549 -68.44584,40.511416 -97.853896,73.759559 l -30.878613,-30.87861 c -2.546288,-2.546291 -6.647939,-2.546291 -9.194227,0 l -30.962988,30.962985 c -29.4188719,-33.27801 -67.105817,-62.978363 -97.93826,-73.843934 -11.236386,-3.96898 -20.786898,-5.89043 -29.177936,-5.89044 z"
       style="display:inline;fill:none;stroke:#ff0000;stroke-width:0.61165744;stroke-miterlimit:4;stroke-dasharray:none;stroke-opacity:1"
       transform="translate(1.1696166e-6,110.01968)" />
  </g>
  <g
     id="g4633"
     transform="translate(859.28567,0)">
    <path
       transform="translate(1.1696166e-6,110.01968)"
       style="color:#000000;font-style:normal;font-variant:normal;font-weight:normal;font-stretch:normal;font-size:medium;line-height:normal;font-family:sans-serif;text-indent:0;text-align:start;text-decoration:none;text-decoration-line:none;text-decoration-style:solid;text-decoration-color:#000000;letter-spacing:normal;word-spacing:normal;text-transform:none;direction:ltr;block-progression:tb;writing-mode:lr-tb;baseline-shift:baseline;text-anchor:start;white-space:normal;clip-rule:nonzero;display:inline;overflow:visible;visibility:visible;opacity:1;isolation:auto;mix-blend-mode:normal;color-interpolation:sRGB;color-interpolation-filters:linearRGB;solid-color:#000000;solid-opacity:1;fill:none;fill-opacity:1;fill-rule:nonzero;stroke:#ff0000;stroke-width:0.6116575;stroke-linecap:butt;stroke-linejoin:miter;stroke-miterlimit:4;stroke-dasharray:none;stroke-dashoffset:0;stroke-opacity:1;color-rendering:auto;image-rendering:auto;shape-rendering:auto;text-rendering:auto;enable-background:accumulate"
       d="m 124.75797,176.70027 -0.0866,-0.1903 c 0,0 -0.15318,-0.3308 -0.27062,-0.5868 -0.23492,-0.511 -0.5777,-1.2631 -1.01416,-2.2359 -0.87294,-1.946 -2.11919,-4.7746 -3.61487,-8.3145 -2.99015,-7.0766 -6.97676,-16.9972 -10.96299,-28.3632 -2.6e-4,0 -3.5e-4,0 -6.9e-4,-0.01 -0.001,-0.01 -0.003,0 -0.004,0 -7.96398,-22.8276 -15.911548,-51.28818 -15.964138,-74.55609 2.2e-4,-2.48557 0.096,-4.90914 0.28821,-7.26377 2.03807,-23.28556 15.864038,-49.96745 29.290338,-71.21593 6.9e-4,0 6.9e-4,0 10e-4,0 6.72218,-10.55222 13.32346,-19.66639 18.24413,-26.13861 2.46054,-3.23635 4.50111,-5.81301 5.92735,-7.58183 0.71313,-0.88396 1.27229,-1.5663 1.65487,-2.02935 0.0674,-0.0815 0.0986,-0.11779 0.15491,-0.18576 l 0.43504,-0.51515"
       id="path4635"
       inkscape:connector-curvature="0" />
    <path
       transform="translate(1.1696166e-6,110.01968)"
       id="path4637"
       d="m -11.461958,176.70027 0.0866,-0.1903 c 0,0 0.15318,-0.3308 0.27062,-0.5868 0.23492,-0.511 0.57769,-1.2631 1.01417,-2.2359 0.87293,-1.946 2.11918,-4.7746 3.61487,-8.3145 2.99014,-7.0766 6.97675,-16.9972 10.96298,-28.3632 2.5e-4,0 3.5e-4,0 6.8e-4,-0.01 0.001,-0.01 0.003,0 0.004,0 7.96397,-22.8276 15.91155,-51.28818 15.96413,-74.55609 -2.1e-4,-2.48557 -0.096,-4.90914 -0.2882,-7.26377 -2.03808,-23.28556 -15.86404,-49.96745 -29.29035,-71.21593 -6.9e-4,0 -6.9e-4,0 -10e-4,0 -6.72218,-10.55222 -13.32346,-19.66639 -18.24413,-26.13861 -2.46053,-3.23635 -4.50112,-5.81301 -5.92736,-7.58183 -0.71312,-0.88396 -1.27229,-1.5663 -1.65486,-2.02935 -0.0674,-0.0815 -0.0986,-0.11779 -0.15495,-0.18576 l -0.43505,-0.51515"
       style="color:#000000;font-style:normal;font-variant:normal;font-weight:normal;font-stretch:normal;font-size:medium;line-height:normal;font-family:sans-serif;text-indent:0;text-align:start;text-decoration:none;text-decoration-line:none;text-decoration-style:solid;text-decoration-color:#000000;letter-spacing:normal;word-spacing:normal;text-transform:none;direction:ltr;block-progression:tb;writing-mode:lr-tb;baseline-shift:baseline;text-anchor:start;white-space:normal;clip-rule:nonzero;display:inline;overflow:visible;visibility:visible;opacity:1;isolation:auto;mix-blend-mode:normal;color-interpolation:sRGB;color-interpolation-filters:linearRGB;solid-color:#000000;solid-opacity:1;fill:none;fill-opacity:1;fill-rule:nonzero;stroke:#ff0000;stroke-width:0.6116575;stroke-linecap:butt;stroke-linejoin:miter;stroke-miterlimit:4;stroke-dasharray:none;stroke-dashoffset:0;stroke-opacity:1;color-rendering:auto;image-rendering:auto;shape-rendering:auto;text-rendering:auto;enable-background:accumulate"
       inkscape:connector-curvature="0" />
    <g
       style="display:inline"
       id="g4639"
       transform="translate(35.249377,-29.94219)">
      <g
         style="display:inline"
         id="g4641">
        <path
           id="path4643"
           d="M 20.838425,93.319177 48.130411,120.61708 21.691293,169.75856 -5.6006889,119.76402 Z"
           style="fill:none;stroke:#ff0000;stroke-width:0.51025534;stroke-linejoin:miter;stroke-miterlimit:4;stroke-dasharray:none;stroke-opacity:1"
           inkscape:connector-curvature="0" />
      </g>
    </g>
    <path
       transform="translate(1.1696166e-6,110.01968)"
       style="display:inline;fill:none;stroke:#ff0000;stroke-width:0.61165744;stroke-miterlimit:4;stroke-dasharray:none;stroke-opacity:1"
       d="m -105.95335,-109.59696 c -44.14807,0 -44.14921,53.609542 -44.14921,76.499121 0,24.8831332 -0.0171,98.462475 74.342278,104.733103 -13.338666,10.34833 -22.507519,22.05754 -27.400778,35.015626 -6.41561,16.96328 -5.13028,35.42954 3.786326,54.89384 11.653208,25.3362 39.836036,52.66581 74.215712,52.66581 22.0921658,0 53.371553,-11.43569 81.806829,-62.97803 28.453392,51.54234 59.699173,62.97803 81.809463,62.97803 34.37967,0 62.55987,-27.32894 74.21306,-52.6289 8.91662,-19.4643 10.20459,-37.93353 3.78897,-54.91493 -4.91138,-12.976214 -14.10133,-24.682441 -27.42187,-34.994537 26.91293,-2.247278 46.75848,-13.392917 59.00976,-33.20156 10.45707,-16.963302 15.35097,-39.7078983 15.35097,-71.568452 0,-22.889579 -0.001,-76.499121 -44.16766,-76.499121 -8.40917,0 -17.92344,1.93958 -29.17793,5.89044 -30.79753,10.857549 -68.44584,40.511416 -97.853896,73.759559 l -30.878613,-30.87861 c -2.546288,-2.546291 -6.647939,-2.546291 -9.194227,0 l -30.962988,30.962985 c -29.4188719,-33.27801 -67.105817,-62.978363 -97.93826,-73.843934 -11.236386,-3.96898 -20.786898,-5.89043 -29.177936,-5.89044 z"
       id="path4645"
       inkscape:connector-curvature="0" />
  </g>
  <g
     transform="translate(432.85712,0)"
     id="g4647">
    <path
       inkscape:connector-curvature="0"
       id="path4649"
       d="m 124.75797,176.70027 -0.0866,-0.1903 c 0,0 -0.15318,-0.3308 -0.27062,-0.5868 -0.23492,-0.511 -0.5777,-1.2631 -1.01416,-2.2359 -0.87294,-1.946 -2.11919,-4.7746 -3.61487,-8.3145 -2.99015,-7.0766 -6.97676,-16.9972 -10.96299,-28.3632 -2.6e-4,0 -3.5e-4,0 -6.9e-4,-0.01 -0.001,-0.01 -0.003,0 -0.004,0 -7.96398,-22.8276 -15.911548,-51.28818 -15.964138,-74.55609 2.2e-4,-2.48557 0.096,-4.90914 0.28821,-7.26377 2.03807,-23.28556 15.864038,-49.96745 29.290338,-71.21593 6.9e-4,0 6.9e-4,0 10e-4,0 6.72218,-10.55222 13.32346,-19.66639 18.24413,-26.13861 2.46054,-3.23635 4.50111,-5.81301 5.92735,-7.58183 0.71313,-0.88396 1.27229,-1.5663 1.65487,-2.02935 0.0674,-0.0815 0.0986,-0.11779 0.15491,-0.18576 l 0.43504,-0.51515"
       style="color:#000000;font-style:normal;font-variant:normal;font-weight:normal;font-stretch:normal;font-size:medium;line-height:normal;font-family:sans-serif;text-indent:0;text-align:start;text-decoration:none;text-decoration-line:none;text-decoration-style:solid;text-decoration-color:#000000;letter-spacing:normal;word-spacing:normal;text-transform:none;direction:ltr;block-progression:tb;writing-mode:lr-tb;baseline-shift:baseline;text-anchor:start;white-space:normal;clip-rule:nonzero;display:inline;overflow:visible;visibility:visible;opacity:1;isolation:auto;mix-blend-mode:normal;color-interpolation:sRGB;color-interpolation-filters:linearRGB;solid-color:#000000;solid-opacity:1;fill:none;fill-opacity:1;fill-rule:nonzero;stroke:#ff0000;stroke-width:0.6116575;stroke-linecap:butt;stroke-linejoin:miter;stroke-miterlimit:4;stroke-dasharray:none;stroke-dashoffset:0;stroke-opacity:1;color-rendering:auto;image-rendering:auto;shape-rendering:auto;text-rendering:auto;enable-background:accumulate"
       transform="translate(1.1696166e-6,110.01968)" />
    <path
       inkscape:connector-curvature="0"
       style="color:#000000;font-style:normal;font-variant:normal;font-weight:normal;font-stretch:normal;font-size:medium;line-height:normal;font-family:sans-serif;text-indent:0;text-align:start;text-decoration:none;text-decoration-line:none;text-decoration-style:solid;text-decoration-color:#000000;letter-spacing:normal;word-spacing:normal;text-transform:none;direction:ltr;block-progression:tb;writing-mode:lr-tb;baseline-shift:baseline;text-anchor:start;white-space:normal;clip-rule:nonzero;display:inline;overflow:visible;visibility:visible;opacity:1;isolation:auto;mix-blend-mode:normal;color-interpolation:sRGB;color-interpolation-filters:linearRGB;solid-color:#000000;solid-opacity:1;fill:none;fill-opacity:1;fill-rule:nonzero;stroke:#ff0000;stroke-width:0.6116575;stroke-linecap:butt;stroke-linejoin:miter;stroke-miterlimit:4;stroke-dasharray:none;stroke-dashoffset:0;stroke-opacity:1;color-rendering:auto;image-rendering:auto;shape-rendering:auto;text-rendering:auto;enable-background:accumulate"
       d="m -11.461958,176.70027 0.0866,-0.1903 c 0,0 0.15318,-0.3308 0.27062,-0.5868 0.23492,-0.511 0.57769,-1.2631 1.01417,-2.2359 0.87293,-1.946 2.11918,-4.7746 3.61487,-8.3145 2.99014,-7.0766 6.97675,-16.9972 10.96298,-28.3632 2.5e-4,0 3.5e-4,0 6.8e-4,-0.01 0.001,-0.01 0.003,0 0.004,0 7.96397,-22.8276 15.91155,-51.28818 15.96413,-74.55609 -2.1e-4,-2.48557 -0.096,-4.90914 -0.2882,-7.26377 -2.03808,-23.28556 -15.86404,-49.96745 -29.29035,-71.21593 -6.9e-4,0 -6.9e-4,0 -10e-4,0 -6.72218,-10.55222 -13.32346,-19.66639 -18.24413,-26.13861 -2.46053,-3.23635 -4.50112,-5.81301 -5.92736,-7.58183 -0.71312,-0.88396 -1.27229,-1.5663 -1.65486,-2.02935 -0.0674,-0.0815 -0.0986,-0.11779 -0.15495,-0.18576 l -0.43505,-0.51515"
       id="path4651"
       transform="translate(1.1696166e-6,110.01968)" />
    <g
       transform="translate(35.249377,-29.94219)"
       id="g4653"
       style="display:inline">
      <g
         id="g4655"
         style="display:inline">
        <path
           inkscape:connector-curvature="0"
           style="fill:none;stroke:#ff0000;stroke-width:0.51025534;stroke-linejoin:miter;stroke-miterlimit:4;stroke-dasharray:none;stroke-opacity:1"
           d="M 20.838425,93.319177 48.130411,120.61708 21.691293,169.75856 -5.6006889,119.76402 Z"
           id="path4657" />
      </g>
    </g>
    <path
       inkscape:connector-curvature="0"
       id="path4659"
       d="m -105.95335,-109.59696 c -44.14807,0 -44.14921,53.609542 -44.14921,76.499121 0,24.8831332 -0.0171,98.462475 74.342278,104.733103 -13.338666,10.34833 -22.507519,22.05754 -27.400778,35.015626 -6.41561,16.96328 -5.13028,35.42954 3.786326,54.89384 11.653208,25.3362 39.836036,52.66581 74.215712,52.66581 22.0921658,0 53.371553,-11.43569 81.806829,-62.97803 28.453392,51.54234 59.699173,62.97803 81.809463,62.97803 34.37967,0 62.55987,-27.32894 74.21306,-52.6289 8.91662,-19.4643 10.20459,-37.93353 3.78897,-54.91493 -4.91138,-12.976214 -14.10133,-24.682441 -27.42187,-34.994537 26.91293,-2.247278 46.75848,-13.392917 59.00976,-33.20156 10.45707,-16.963302 15.35097,-39.7078983 15.35097,-71.568452 0,-22.889579 -0.001,-76.499121 -44.16766,-76.499121 -8.40917,0 -17.92344,1.93958 -29.17793,5.89044 -30.79753,10.857549 -68.44584,40.511416 -97.853896,73.759559 l -30.878613,-30.87861 c -2.546288,-2.546291 -6.647939,-2.546291 -9.194227,0 l -30.962988,30.962985 c -29.4188719,-33.27801 -67.105817,-62.978363 -97.93826,-73.843934 -11.236386,-3.96898 -20.786898,-5.89043 -29.177936,-5.89044 z"
       style="display:inline;fill:none;stroke:#ff0000;stroke-width:0.61165744;stroke-miterlimit:4;stroke-dasharray:none;stroke-opacity:1"
       transform="translate(1.1696166e-6,110.01968)" />
  </g>
  <g
     id="g4661"
     transform="translate(0,314.99998)">
    <path
       transform="translate(1.1696166e-6,110.01968)"
       style="color:#000000;font-style:normal;font-variant:normal;font-weight:normal;font-stretch:normal;font-size:medium;line-height:normal;font-family:sans-serif;text-indent:0;text-align:start;text-decoration:none;text-decoration-line:none;text-decoration-style:solid;text-decoration-color:#000000;letter-spacing:normal;word-spacing:normal;text-transform:none;direction:ltr;block-progression:tb;writing-mode:lr-tb;baseline-shift:baseline;text-anchor:start;white-space:normal;clip-rule:nonzero;display:inline;overflow:visible;visibility:visible;opacity:1;isolation:auto;mix-blend-mode:normal;color-interpolation:sRGB;color-interpolation-filters:linearRGB;solid-color:#000000;solid-opacity:1;fill:none;fill-opacity:1;fill-rule:nonzero;stroke:#ff0000;stroke-width:0.6116575;stroke-linecap:butt;stroke-linejoin:miter;stroke-miterlimit:4;stroke-dasharray:none;stroke-dashoffset:0;stroke-opacity:1;color-rendering:auto;image-rendering:auto;shape-rendering:auto;text-rendering:auto;enable-background:accumulate"
       d="m 124.75797,176.70027 -0.0866,-0.1903 c 0,0 -0.15318,-0.3308 -0.27062,-0.5868 -0.23492,-0.511 -0.5777,-1.2631 -1.01416,-2.2359 -0.87294,-1.946 -2.11919,-4.7746 -3.61487,-8.3145 -2.99015,-7.0766 -6.97676,-16.9972 -10.96299,-28.3632 -2.6e-4,0 -3.5e-4,0 -6.9e-4,-0.01 -0.001,-0.01 -0.003,0 -0.004,0 -7.96398,-22.8276 -15.911548,-51.28818 -15.964138,-74.55609 2.2e-4,-2.48557 0.096,-4.90914 0.28821,-7.26377 2.03807,-23.28556 15.864038,-49.96745 29.290338,-71.21593 6.9e-4,0 6.9e-4,0 10e-4,0 6.72218,-10.55222 13.32346,-19.66639 18.24413,-26.13861 2.46054,-3.23635 4.50111,-5.81301 5.92735,-7.58183 0.71313,-0.88396 1.27229,-1.5663 1.65487,-2.02935 0.0674,-0.0815 0.0986,-0.11779 0.15491,-0.18576 l 0.43504,-0.51515"
       id="path4663"
       inkscape:connector-curvature="0" />
    <path
       transform="translate(1.1696166e-6,110.01968)"
       id="path4665"
       d="m -11.461958,176.70027 0.0866,-0.1903 c 0,0 0.15318,-0.3308 0.27062,-0.5868 0.23492,-0.511 0.57769,-1.2631 1.01417,-2.2359 0.87293,-1.946 2.11918,-4.7746 3.61487,-8.3145 2.99014,-7.0766 6.97675,-16.9972 10.96298,-28.3632 2.5e-4,0 3.5e-4,0 6.8e-4,-0.01 0.001,-0.01 0.003,0 0.004,0 7.96397,-22.8276 15.91155,-51.28818 15.96413,-74.55609 -2.1e-4,-2.48557 -0.096,-4.90914 -0.2882,-7.26377 -2.03808,-23.28556 -15.86404,-49.96745 -29.29035,-71.21593 -6.9e-4,0 -6.9e-4,0 -10e-4,0 -6.72218,-10.55222 -13.32346,-19.66639 -18.24413,-26.13861 -2.46053,-3.23635 -4.50112,-5.81301 -5.92736,-7.58183 -0.71312,-0.88396 -1.27229,-1.5663 -1.65486,-2.02935 -0.0674,-0.0815 -0.0986,-0.11779 -0.15495,-0.18576 l -0.43505,-0.51515"
       style="color:#000000;font-style:normal;font-variant:normal;font-weight:normal;font-stretch:normal;font-size:medium;line-height:normal;font-family:sans-serif;text-indent:0;text-align:start;text-decoration:none;text-decoration-line:none;text-decoration-style:solid;text-decoration-color:#000000;letter-spacing:normal;word-spacing:normal;text-transform:none;direction:ltr;block-progression:tb;writing-mode:lr-tb;baseline-shift:baseline;text-anchor:start;white-space:normal;clip-rule:nonzero;display:inline;overflow:visible;visibility:visible;opacity:1;isolation:auto;mix-blend-mode:normal;color-interpolation:sRGB;color-interpolation-filters:linearRGB;solid-color:#000000;solid-opacity:1;fill:none;fill-opacity:1;fill-rule:nonzero;stroke:#ff0000;stroke-width:0.6116575;stroke-linecap:butt;stroke-linejoin:miter;stroke-miterlimit:4;stroke-dasharray:none;stroke-dashoffset:0;stroke-opacity:1;color-rendering:auto;image-rendering:auto;shape-rendering:auto;text-rendering:auto;enable-background:accumulate"
       inkscape:connector-curvature="0" />
    <g
       style="display:inline"
       id="g4667"
       transform="translate(35.249377,-29.94219)">
      <g
         style="display:inline"
         id="g4669">
        <path
           id="path4671"
           d="M 20.838425,93.319177 48.130411,120.61708 21.691293,169.75856 -5.6006889,119.76402 Z"
           style="fill:none;stroke:#ff0000;stroke-width:0.51025534;stroke-linejoin:miter;stroke-miterlimit:4;stroke-dasharray:none;stroke-opacity:1"
           inkscape:connector-curvature="0" />
      </g>
    </g>
    <path
       transform="translate(1.1696166e-6,110.01968)"
       style="display:inline;fill:none;stroke:#ff0000;stroke-width:0.61165744;stroke-miterlimit:4;stroke-dasharray:none;stroke-opacity:1"
       d="m -105.95335,-109.59696 c -44.14807,0 -44.14921,53.609542 -44.14921,76.499121 0,24.8831332 -0.0171,98.462475 74.342278,104.733103 -13.338666,10.34833 -22.507519,22.05754 -27.400778,35.015626 -6.41561,16.96328 -5.13028,35.42954 3.786326,54.89384 11.653208,25.3362 39.836036,52.66581 74.215712,52.66581 22.0921658,0 53.371553,-11.43569 81.806829,-62.97803 28.453392,51.54234 59.699173,62.97803 81.809463,62.97803 34.37967,0 62.55987,-27.32894 74.21306,-52.6289 8.91662,-19.4643 10.20459,-37.93353 3.78897,-54.91493 -4.91138,-12.976214 -14.10133,-24.682441 -27.42187,-34.994537 26.91293,-2.247278 46.75848,-13.392917 59.00976,-33.20156 10.45707,-16.963302 15.35097,-39.7078983 15.35097,-71.568452 0,-22.889579 -0.001,-76.499121 -44.16766,-76.499121 -8.40917,0 -17.92344,1.93958 -29.17793,5.89044 -30.79753,10.857549 -68.44584,40.511416 -97.853896,73.759559 l -30.878613,-30.87861 c -2.546288,-2.546291 -6.647939,-2.546291 -9.194227,0 l -30.962988,30.962985 c -29.4188719,-33.27801 -67.105817,-62.978363 -97.93826,-73.843934 -11.236386,-3.96898 -20.786898,-5.89043 -29.177936,-5.89044 z"
       id="path4673"
       inkscape:connector-curvature="0" />
  </g>
  <g
     transform="translate(859.28567,314.99998)"
     id="g4675">
    <path
       inkscape:connector-curvature="0"
       id="path4677"
       d="m 124.75797,176.70027 -0.0866,-0.1903 c 0,0 -0.15318,-0.3308 -0.27062,-0.5868 -0.23492,-0.511 -0.5777,-1.2631 -1.01416,-2.2359 -0.87294,-1.946 -2.11919,-4.7746 -3.61487,-8.3145 -2.99015,-7.0766 -6.97676,-16.9972 -10.96299,-28.3632 -2.6e-4,0 -3.5e-4,0 -6.9e-4,-0.01 -0.001,-0.01 -0.003,0 -0.004,0 -7.96398,-22.8276 -15.911548,-51.28818 -15.964138,-74.55609 2.2e-4,-2.48557 0.096,-4.90914 0.28821,-7.26377 2.03807,-23.28556 15.864038,-49.96745 29.290338,-71.21593 6.9e-4,0 6.9e-4,0 10e-4,0 6.72218,-10.55222 13.32346,-19.66639 18.24413,-26.13861 2.46054,-3.23635 4.50111,-5.81301 5.92735,-7.58183 0.71313,-0.88396 1.27229,-1.5663 1.65487,-2.02935 0.0674,-0.0815 0.0986,-0.11779 0.15491,-0.18576 l 0.43504,-0.51515"
       style="color:#000000;font-style:normal;font-variant:normal;font-weight:normal;font-stretch:normal;font-size:medium;line-height:normal;font-family:sans-serif;text-indent:0;text-align:start;text-decoration:none;text-decoration-line:none;text-decoration-style:solid;text-decoration-color:#000000;letter-spacing:normal;word-spacing:normal;text-transform:none;direction:ltr;block-progression:tb;writing-mode:lr-tb;baseline-shift:baseline;text-anchor:start;white-space:normal;clip-rule:nonzero;display:inline;overflow:visible;visibility:visible;opacity:1;isolation:auto;mix-blend-mode:normal;color-interpolation:sRGB;color-interpolation-filters:linearRGB;solid-color:#000000;solid-opacity:1;fill:none;fill-opacity:1;fill-rule:nonzero;stroke:#ff0000;stroke-width:0.6116575;stroke-linecap:butt;stroke-linejoin:miter;stroke-miterlimit:4;stroke-dasharray:none;stroke-dashoffset:0;stroke-opacity:1;color-rendering:auto;image-rendering:auto;shape-rendering:auto;text-rendering:auto;enable-background:accumulate"
       transform="translate(1.1696166e-6,110.01968)" />
    <path
       inkscape:connector-curvature="0"
       style="color:#000000;font-style:normal;font-variant:normal;font-weight:normal;font-stretch:normal;font-size:medium;line-height:normal;font-family:sans-serif;text-indent:0;text-align:start;text-decoration:none;text-decoration-line:none;text-decoration-style:solid;text-decoration-color:#000000;letter-spacing:normal;word-spacing:normal;text-transform:none;direction:ltr;block-progression:tb;writing-mode:lr-tb;baseline-shift:baseline;text-anchor:start;white-space:normal;clip-rule:nonzero;display:inline;overflow:visible;visibility:visible;opacity:1;isolation:auto;mix-blend-mode:normal;color-interpolation:sRGB;color-interpolation-filters:linearRGB;solid-color:#000000;solid-opacity:1;fill:none;fill-opacity:1;fill-rule:nonzero;stroke:#ff0000;stroke-width:0.6116575;stroke-linecap:butt;stroke-linejoin:miter;stroke-miterlimit:4;stroke-dasharray:none;stroke-dashoffset:0;stroke-opacity:1;color-rendering:auto;image-rendering:auto;shape-rendering:auto;text-rendering:auto;enable-background:accumulate"
       d="m -11.461958,176.70027 0.0866,-0.1903 c 0,0 0.15318,-0.3308 0.27062,-0.5868 0.23492,-0.511 0.57769,-1.2631 1.01417,-2.2359 0.87293,-1.946 2.11918,-4.7746 3.61487,-8.3145 2.99014,-7.0766 6.97675,-16.9972 10.96298,-28.3632 2.5e-4,0 3.5e-4,0 6.8e-4,-0.01 0.001,-0.01 0.003,0 0.004,0 7.96397,-22.8276 15.91155,-51.28818 15.96413,-74.55609 -2.1e-4,-2.48557 -0.096,-4.90914 -0.2882,-7.26377 -2.03808,-23.28556 -15.86404,-49.96745 -29.29035,-71.21593 -6.9e-4,0 -6.9e-4,0 -10e-4,0 -6.72218,-10.55222 -13.32346,-19.66639 -18.24413,-26.13861 -2.46053,-3.23635 -4.50112,-5.81301 -5.92736,-7.58183 -0.71312,-0.88396 -1.27229,-1.5663 -1.65486,-2.02935 -0.0674,-0.0815 -0.0986,-0.11779 -0.15495,-0.18576 l -0.43505,-0.51515"
       id="path4679"
       transform="translate(1.1696166e-6,110.01968)" />
    <g
       transform="translate(35.249377,-29.94219)"
       id="g4681"
       style="display:inline">
      <g
         id="g4683"
         style="display:inline">
        <path
           inkscape:connector-curvature="0"
           style="fill:none;stroke:#ff0000;stroke-width:0.51025534;stroke-linejoin:miter;stroke-miterlimit:4;stroke-dasharray:none;stroke-opacity:1"
           d="M 20.838425,93.319177 48.130411,120.61708 21.691293,169.75856 -5.6006889,119.76402 Z"
           id="path4685" />
      </g>
    </g>
    <path
       inkscape:connector-curvature="0"
       id="path4687"
       d="m -105.95335,-109.59696 c -44.14807,0 -44.14921,53.609542 -44.14921,76.499121 0,24.8831332 -0.0171,98.462475 74.342278,104.733103 -13.338666,10.34833 -22.507519,22.05754 -27.400778,35.015626 -6.41561,16.96328 -5.13028,35.42954 3.786326,54.89384 11.653208,25.3362 39.836036,52.66581 74.215712,52.66581 22.0921658,0 53.371553,-11.43569 81.806829,-62.97803 28.453392,51.54234 59.699173,62.97803 81.809463,62.97803 34.37967,0 62.55987,-27.32894 74.21306,-52.6289 8.91662,-19.4643 10.20459,-37.93353 3.78897,-54.91493 -4.91138,-12.976214 -14.10133,-24.682441 -27.42187,-34.994537 26.91293,-2.247278 46.75848,-13.392917 59.00976,-33.20156 10.45707,-16.963302 15.35097,-39.7078983 15.35097,-71.568452 0,-22.889579 -0.001,-76.499121 -44.16766,-76.499121 -8.40917,0 -17.92344,1.93958 -29.17793,5.89044 -30.79753,10.857549 -68.44584,40.511416 -97.853896,73.759559 l -30.878613,-30.87861 c -2.546288,-2.546291 -6.647939,-2.546291 -9.194227,0 l -30.962988,30.962985 c -29.4188719,-33.27801 -67.105817,-62.978363 -97.93826,-73.843934 -11.236386,-3.96898 -20.786898,-5.89043 -29.177936,-5.89044 z"
       style="display:inline;fill:none;stroke:#ff0000;stroke-width:0.61165744;stroke-miterlimit:4;stroke-dasharray:none;stroke-opacity:1"
       transform="translate(1.1696166e-6,110.01968)" />
  </g>
  <g
     id="g4689"
     transform="translate(432.85712,314.99998)">
    <path
       transform="translate(1.1696166e-6,110.01968)"
       style="color:#000000;font-style:normal;font-variant:normal;font-weight:normal;font-stretch:normal;font-size:medium;line-height:normal;font-family:sans-serif;text-indent:0;text-align:start;text-decoration:none;text-decoration-line:none;text-decoration-style:solid;text-decoration-color:#000000;letter-spacing:normal;word-spacing:normal;text-transform:none;direction:ltr;block-progression:tb;writing-mode:lr-tb;baseline-shift:baseline;text-anchor:start;white-space:normal;clip-rule:nonzero;display:inline;overflow:visible;visibility:visible;opacity:1;isolation:auto;mix-blend-mode:normal;color-interpolation:sRGB;color-interpolation-filters:linearRGB;solid-color:#000000;solid-opacity:1;fill:none;fill-opacity:1;fill-rule:nonzero;stroke:#ff0000;stroke-width:0.6116575;stroke-linecap:butt;stroke-linejoin:miter;stroke-miterlimit:4;stroke-dasharray:none;stroke-dashoffset:0;stroke-opacity:1;color-rendering:auto;image-rendering:auto;shape-rendering:auto;text-rendering:auto;enable-background:accumulate"
       d="m 124.75797,176.70027 -0.0866,-0.1903 c 0,0 -0.15318,-0.3308 -0.27062,-0.5868 -0.23492,-0.511 -0.5777,-1.2631 -1.01416,-2.2359 -0.87294,-1.946 -2.11919,-4.7746 -3.61487,-8.3145 -2.99015,-7.0766 -6.97676,-16.9972 -10.96299,-28.3632 -2.6e-4,0 -3.5e-4,0 -6.9e-4,-0.01 -0.001,-0.01 -0.003,0 -0.004,0 -7.96398,-22.8276 -15.911548,-51.28818 -15.964138,-74.55609 2.2e-4,-2.48557 0.096,-4.90914 0.28821,-7.26377 2.03807,-23.28556 15.864038,-49.96745 29.290338,-71.21593 6.9e-4,0 6.9e-4,0 10e-4,0 6.72218,-10.55222 13.32346,-19.66639 18.24413,-26.13861 2.46054,-3.23635 4.50111,-5.81301 5.92735,-7.58183 0.71313,-0.88396 1.27229,-1.5663 1.65487,-2.02935 0.0674,-0.0815 0.0986,-0.11779 0.15491,-0.18576 l 0.43504,-0.51515"
       id="path4691"
       inkscape:connector-curvature="0" />
    <path
       transform="translate(1.1696166e-6,110.01968)"
       id="path4693"
       d="m -11.461958,176.70027 0.0866,-0.1903 c 0,0 0.15318,-0.3308 0.27062,-0.5868 0.23492,-0.511 0.57769,-1.2631 1.01417,-2.2359 0.87293,-1.946 2.11918,-4.7746 3.61487,-8.3145 2.99014,-7.0766 6.97675,-16.9972 10.96298,-28.3632 2.5e-4,0 3.5e-4,0 6.8e-4,-0.01 0.001,-0.01 0.003,0 0.004,0 7.96397,-22.8276 15.91155,-51.28818 15.96413,-74.55609 -2.1e-4,-2.48557 -0.096,-4.90914 -0.2882,-7.26377 -2.03808,-23.28556 -15.86404,-49.96745 -29.29035,-71.21593 -6.9e-4,0 -6.9e-4,0 -10e-4,0 -6.72218,-10.55222 -13.32346,-19.66639 -18.24413,-26.13861 -2.46053,-3.23635 -4.50112,-5.81301 -5.92736,-7.58183 -0.71312,-0.88396 -1.27229,-1.5663 -1.65486,-2.02935 -0.0674,-0.0815 -0.0986,-0.11779 -0.15495,-0.18576 l -0.43505,-0.51515"
       style="color:#000000;font-style:normal;font-variant:normal;font-weight:normal;font-stretch:normal;font-size:medium;line-height:normal;font-family:sans-serif;text-indent:0;text-align:start;text-decoration:none;text-decoration-line:none;text-decoration-style:solid;text-decoration-color:#000000;letter-spacing:normal;word-spacing:normal;text-transform:none;direction:ltr;block-progression:tb;writing-mode:lr-tb;baseline-shift:baseline;text-anchor:start;white-space:normal;clip-rule:nonzero;display:inline;overflow:visible;visibility:visible;opacity:1;isolation:auto;mix-blend-mode:normal;color-interpolation:sRGB;color-interpolation-filters:linearRGB;solid-color:#000000;solid-opacity:1;fill:none;fill-opacity:1;fill-rule:nonzero;stroke:#ff0000;stroke-width:0.6116575;stroke-linecap:butt;stroke-linejoin:miter;stroke-miterlimit:4;stroke-dasharray:none;stroke-dashoffset:0;stroke-opacity:1;color-rendering:auto;image-rendering:auto;shape-rendering:auto;text-rendering:auto;enable-background:accumulate"
       inkscape:connector-curvature="0" />
    <g
       style="display:inline"
       id="g4695"
       transform="translate(35.249377,-29.94219)">
      <g
         style="display:inline"
         id="g4697">
        <path
           id="path4699"
           d="M 20.838425,93.319177 48.130411,120.61708 21.691293,169.75856 -5.6006889,119.76402 Z"
           style="fill:none;stroke:#ff0000;stroke-width:0.51025534;stroke-linejoin:miter;stroke-miterlimit:4;stroke-dasharray:none;stroke-opacity:1"
           inkscape:connector-curvature="0" />
      </g>
    </g>
    <path
       transform="translate(1.1696166e-6,110.01968)"
       style="display:inline;fill:none;stroke:#ff0000;stroke-width:0.61165744;stroke-miterlimit:4;stroke-dasharray:none;stroke-opacity:1"
       d="m -105.95335,-109.59696 c -44.14807,0 -44.14921,53.609542 -44.14921,76.499121 0,24.8831332 -0.0171,98.462475 74.342278,104.733103 -13.338666,10.34833 -22.507519,22.05754 -27.400778,35.015626 -6.41561,16.96328 -5.13028,35.42954 3.786326,54.89384 11.653208,25.3362 39.836036,52.66581 74.215712,52.66581 22.0921658,0 53.371553,-11.43569 81.806829,-62.97803 28.453392,51.54234 59.699173,62.97803 81.809463,62.97803 34.37967,0 62.55987,-27.32894 74.21306,-52.6289 8.91662,-19.4643 10.20459,-37.93353 3.78897,-54.91493 -4.91138,-12.976214 -14.10133,-24.682441 -27.42187,-34.994537 26.91293,-2.247278 46.75848,-13.392917 59.00976,-33.20156 10.45707,-16.963302 15.35097,-39.7078983 15.35097,-71.568452 0,-22.889579 -0.001,-76.499121 -44.16766,-76.499121 -8.40917,0 -17.92344,1.93958 -29.17793,5.89044 -30.79753,10.857549 -68.44584,40.511416 -97.853896,73.759559 l -30.878613,-30.87861 c -2.546288,-2.546291 -6.647939,-2.546291 -9.194227,0 l -30.962988,30.962985 c -29.4188719,-33.27801 -67.105817,-62.978363 -97.93826,-73.843934 -11.236386,-3.96898 -20.786898,-5.89043 -29.177936,-5.89044 z"
       id="path4701"
       inkscape:connector-curvature="0" />
  </g>
  <g
     transform="translate(0,625.71425)"
     id="g4703">
    <path
       inkscape:connector-curvature="0"
       id="path4705"
       d="m 124.75797,176.70027 -0.0866,-0.1903 c 0,0 -0.15318,-0.3308 -0.27062,-0.5868 -0.23492,-0.511 -0.5777,-1.2631 -1.01416,-2.2359 -0.87294,-1.946 -2.11919,-4.7746 -3.61487,-8.3145 -2.99015,-7.0766 -6.97676,-16.9972 -10.96299,-28.3632 -2.6e-4,0 -3.5e-4,0 -6.9e-4,-0.01 -0.001,-0.01 -0.003,0 -0.004,0 -7.96398,-22.8276 -15.911548,-51.28818 -15.964138,-74.55609 2.2e-4,-2.48557 0.096,-4.90914 0.28821,-7.26377 2.03807,-23.28556 15.864038,-49.96745 29.290338,-71.21593 6.9e-4,0 6.9e-4,0 10e-4,0 6.72218,-10.55222 13.32346,-19.66639 18.24413,-26.13861 2.46054,-3.23635 4.50111,-5.81301 5.92735,-7.58183 0.71313,-0.88396 1.27229,-1.5663 1.65487,-2.02935 0.0674,-0.0815 0.0986,-0.11779 0.15491,-0.18576 l 0.43504,-0.51515"
       style="color:#000000;font-style:normal;font-variant:normal;font-weight:normal;font-stretch:normal;font-size:medium;line-height:normal;font-family:sans-serif;text-indent:0;text-align:start;text-decoration:none;text-decoration-line:none;text-decoration-style:solid;text-decoration-color:#000000;letter-spacing:normal;word-spacing:normal;text-transform:none;direction:ltr;block-progression:tb;writing-mode:lr-tb;baseline-shift:baseline;text-anchor:start;white-space:normal;clip-rule:nonzero;display:inline;overflow:visible;visibility:visible;opacity:1;isolation:auto;mix-blend-mode:normal;color-interpolation:sRGB;color-interpolation-filters:linearRGB;solid-color:#000000;solid-opacity:1;fill:none;fill-opacity:1;fill-rule:nonzero;stroke:#ff0000;stroke-width:0.6116575;stroke-linecap:butt;stroke-linejoin:miter;stroke-miterlimit:4;stroke-dasharray:none;stroke-dashoffset:0;stroke-opacity:1;color-rendering:auto;image-rendering:auto;shape-rendering:auto;text-rendering:auto;enable-background:accumulate"
       transform="translate(1.1696166e-6,110.01968)" />
    <path
       inkscape:connector-curvature="0"
       style="color:#000000;font-style:normal;font-variant:normal;font-weight:normal;font-stretch:normal;font-size:medium;line-height:normal;font-family:sans-serif;text-indent:0;text-align:start;text-decoration:none;text-decoration-line:none;text-decoration-style:solid;text-decoration-color:#000000;letter-spacing:normal;word-spacing:normal;text-transform:none;direction:ltr;block-progression:tb;writing-mode:lr-tb;baseline-shift:baseline;text-anchor:start;white-space:normal;clip-rule:nonzero;display:inline;overflow:visible;visibility:visible;opacity:1;isolation:auto;mix-blend-mode:normal;color-interpolation:sRGB;color-interpolation-filters:linearRGB;solid-color:#000000;solid-opacity:1;fill:none;fill-opacity:1;fill-rule:nonzero;stroke:#ff0000;stroke-width:0.6116575;stroke-linecap:butt;stroke-linejoin:miter;stroke-miterlimit:4;stroke-dasharray:none;stroke-dashoffset:0;stroke-opacity:1;color-rendering:auto;image-rendering:auto;shape-rendering:auto;text-rendering:auto;enable-background:accumulate"
       d="m -11.461958,176.70027 0.0866,-0.1903 c 0,0 0.15318,-0.3308 0.27062,-0.5868 0.23492,-0.511 0.57769,-1.2631 1.01417,-2.2359 0.87293,-1.946 2.11918,-4.7746 3.61487,-8.3145 2.99014,-7.0766 6.97675,-16.9972 10.96298,-28.3632 2.5e-4,0 3.5e-4,0 6.8e-4,-0.01 0.001,-0.01 0.003,0 0.004,0 7.96397,-22.8276 15.91155,-51.28818 15.96413,-74.55609 -2.1e-4,-2.48557 -0.096,-4.90914 -0.2882,-7.26377 -2.03808,-23.28556 -15.86404,-49.96745 -29.29035,-71.21593 -6.9e-4,0 -6.9e-4,0 -10e-4,0 -6.72218,-10.55222 -13.32346,-19.66639 -18.24413,-26.13861 -2.46053,-3.23635 -4.50112,-5.81301 -5.92736,-7.58183 -0.71312,-0.88396 -1.27229,-1.5663 -1.65486,-2.02935 -0.0674,-0.0815 -0.0986,-0.11779 -0.15495,-0.18576 l -0.43505,-0.51515"
       id="path4707"
       transform="translate(1.1696166e-6,110.01968)" />
    <g
       transform="translate(35.249377,-29.94219)"
       id="g4709"
       style="display:inline">
      <g
         id="g4711"
         style="display:inline">
        <path
           inkscape:connector-curvature="0"
           style="fill:none;stroke:#ff0000;stroke-width:0.51025534;stroke-linejoin:miter;stroke-miterlimit:4;stroke-dasharray:none;stroke-opacity:1"
           d="M 20.838425,93.319177 48.130411,120.61708 21.691293,169.75856 -5.6006889,119.76402 Z"
           id="path4713" />
      </g>
    </g>
    <path
       inkscape:connector-curvature="0"
       id="path4715"
       d="m -105.95335,-109.59696 c -44.14807,0 -44.14921,53.609542 -44.14921,76.499121 0,24.8831332 -0.0171,98.462475 74.342278,104.733103 -13.338666,10.34833 -22.507519,22.05754 -27.400778,35.015626 -6.41561,16.96328 -5.13028,35.42954 3.786326,54.89384 11.653208,25.3362 39.836036,52.66581 74.215712,52.66581 22.0921658,0 53.371553,-11.43569 81.806829,-62.97803 28.453392,51.54234 59.699173,62.97803 81.809463,62.97803 34.37967,0 62.55987,-27.32894 74.21306,-52.6289 8.91662,-19.4643 10.20459,-37.93353 3.78897,-54.91493 -4.91138,-12.976214 -14.10133,-24.682441 -27.42187,-34.994537 26.91293,-2.247278 46.75848,-13.392917 59.00976,-33.20156 10.45707,-16.963302 15.35097,-39.7078983 15.35097,-71.568452 0,-22.889579 -0.001,-76.499121 -44.16766,-76.499121 -8.40917,0 -17.92344,1.93958 -29.17793,5.89044 -30.79753,10.857549 -68.44584,40.511416 -97.853896,73.759559 l -30.878613,-30.87861 c -2.546288,-2.546291 -6.647939,-2.546291 -9.194227,0 l -30.962988,30.962985 c -29.4188719,-33.27801 -67.105817,-62.978363 -97.93826,-73.843934 -11.236386,-3.96898 -20.786898,-5.89043 -29.177936,-5.89044 z"
       style="display:inline;fill:none;stroke:#ff0000;stroke-width:0.61165744;stroke-miterlimit:4;stroke-dasharray:none;stroke-opacity:1"
       transform="translate(1.1696166e-6,110.01968)" />
  </g>
  <g
     id="g4717"
     transform="translate(859.28567,625.71425)">
    <path
       transform="translate(1.1696166e-6,110.01968)"
       style="color:#000000;font-style:normal;font-variant:normal;font-weight:normal;font-stretch:normal;font-size:medium;line-height:normal;font-family:sans-serif;text-indent:0;text-align:start;text-decoration:none;text-decoration-line:none;text-decoration-style:solid;text-decoration-color:#000000;letter-spacing:normal;word-spacing:normal;text-transform:none;direction:ltr;block-progression:tb;writing-mode:lr-tb;baseline-shift:baseline;text-anchor:start;white-space:normal;clip-rule:nonzero;display:inline;overflow:visible;visibility:visible;opacity:1;isolation:auto;mix-blend-mode:normal;color-interpolation:sRGB;color-interpolation-filters:linearRGB;solid-color:#000000;solid-opacity:1;fill:none;fill-opacity:1;fill-rule:nonzero;stroke:#ff0000;stroke-width:0.6116575;stroke-linecap:butt;stroke-linejoin:miter;stroke-miterlimit:4;stroke-dasharray:none;stroke-dashoffset:0;stroke-opacity:1;color-rendering:auto;image-rendering:auto;shape-rendering:auto;text-rendering:auto;enable-background:accumulate"
       d="m 124.75797,176.70027 -0.0866,-0.1903 c 0,0 -0.15318,-0.3308 -0.27062,-0.5868 -0.23492,-0.511 -0.5777,-1.2631 -1.01416,-2.2359 -0.87294,-1.946 -2.11919,-4.7746 -3.61487,-8.3145 -2.99015,-7.0766 -6.97676,-16.9972 -10.96299,-28.3632 -2.6e-4,0 -3.5e-4,0 -6.9e-4,-0.01 -0.001,-0.01 -0.003,0 -0.004,0 -7.96398,-22.8276 -15.911548,-51.28818 -15.964138,-74.55609 2.2e-4,-2.48557 0.096,-4.90914 0.28821,-7.26377 2.03807,-23.28556 15.864038,-49.96745 29.290338,-71.21593 6.9e-4,0 6.9e-4,0 10e-4,0 6.72218,-10.55222 13.32346,-19.66639 18.24413,-26.13861 2.46054,-3.23635 4.50111,-5.81301 5.92735,-7.58183 0.71313,-0.88396 1.27229,-1.5663 1.65487,-2.02935 0.0674,-0.0815 0.0986,-0.11779 0.15491,-0.18576 l 0.43504,-0.51515"
       id="path4719"
       inkscape:connector-curvature="0" />
    <path
       transform="translate(1.1696166e-6,110.01968)"
       id="path4721"
       d="m -11.461958,176.70027 0.0866,-0.1903 c 0,0 0.15318,-0.3308 0.27062,-0.5868 0.23492,-0.511 0.57769,-1.2631 1.01417,-2.2359 0.87293,-1.946 2.11918,-4.7746 3.61487,-8.3145 2.99014,-7.0766 6.97675,-16.9972 10.96298,-28.3632 2.5e-4,0 3.5e-4,0 6.8e-4,-0.01 0.001,-0.01 0.003,0 0.004,0 7.96397,-22.8276 15.91155,-51.28818 15.96413,-74.55609 -2.1e-4,-2.48557 -0.096,-4.90914 -0.2882,-7.26377 -2.03808,-23.28556 -15.86404,-49.96745 -29.29035,-71.21593 -6.9e-4,0 -6.9e-4,0 -10e-4,0 -6.72218,-10.55222 -13.32346,-19.66639 -18.24413,-26.13861 -2.46053,-3.23635 -4.50112,-5.81301 -5.92736,-7.58183 -0.71312,-0.88396 -1.27229,-1.5663 -1.65486,-2.02935 -0.0674,-0.0815 -0.0986,-0.11779 -0.15495,-0.18576 l -0.43505,-0.51515"
       style="color:#000000;font-style:normal;font-variant:normal;font-weight:normal;font-stretch:normal;font-size:medium;line-height:normal;font-family:sans-serif;text-indent:0;text-align:start;text-decoration:none;text-decoration-line:none;text-decoration-style:solid;text-decoration-color:#000000;letter-spacing:normal;word-spacing:normal;text-transform:none;direction:ltr;block-progression:tb;writing-mode:lr-tb;baseline-shift:baseline;text-anchor:start;white-space:normal;clip-rule:nonzero;display:inline;overflow:visible;visibility:visible;opacity:1;isolation:auto;mix-blend-mode:normal;color-interpolation:sRGB;color-interpolation-filters:linearRGB;solid-color:#000000;solid-opacity:1;fill:none;fill-opacity:1;fill-rule:nonzero;stroke:#ff0000;stroke-width:0.6116575;stroke-linecap:butt;stroke-linejoin:miter;stroke-miterlimit:4;stroke-dasharray:none;stroke-dashoffset:0;stroke-opacity:1;color-rendering:auto;image-rendering:auto;shape-rendering:auto;text-rendering:auto;enable-background:accumulate"
       inkscape:connector-curvature="0" />
    <g
       style="display:inline"
       id="g4723"
       transform="translate(35.249377,-29.94219)">
      <g
         style="display:inline"
         id="g4725">
        <path
           id="path4727"
           d="M 20.838425,93.319177 48.130411,120.61708 21.691293,169.75856 -5.6006889,119.76402 Z"
           style="fill:none;stroke:#ff0000;stroke-width:0.51025534;stroke-linejoin:miter;stroke-miterlimit:4;stroke-dasharray:none;stroke-opacity:1"
           inkscape:connector-curvature="0" />
      </g>
    </g>
    <path
       transform="translate(1.1696166e-6,110.01968)"
       style="display:inline;fill:none;stroke:#ff0000;stroke-width:0.61165744;stroke-miterlimit:4;stroke-dasharray:none;stroke-opacity:1"
       d="m -105.95335,-109.59696 c -44.14807,0 -44.14921,53.609542 -44.14921,76.499121 0,24.8831332 -0.0171,98.462475 74.342278,104.733103 -13.338666,10.34833 -22.507519,22.05754 -27.400778,35.015626 -6.41561,16.96328 -5.13028,35.42954 3.786326,54.89384 11.653208,25.3362 39.836036,52.66581 74.215712,52.66581 22.0921658,0 53.371553,-11.43569 81.806829,-62.97803 28.453392,51.54234 59.699173,62.97803 81.809463,62.97803 34.37967,0 62.55987,-27.32894 74.21306,-52.6289 8.91662,-19.4643 10.20459,-37.93353 3.78897,-54.91493 -4.91138,-12.976214 -14.10133,-24.682441 -27.42187,-34.994537 26.91293,-2.247278 46.75848,-13.392917 59.00976,-33.20156 10.45707,-16.963302 15.35097,-39.7078983 15.35097,-71.568452 0,-22.889579 -0.001,-76.499121 -44.16766,-76.499121 -8.40917,0 -17.92344,1.93958 -29.17793,5.89044 -30.79753,10.857549 -68.44584,40.511416 -97.853896,73.759559 l -30.878613,-30.87861 c -2.546288,-2.546291 -6.647939,-2.546291 -9.194227,0 l -30.962988,30.962985 c -29.4188719,-33.27801 -67.105817,-62.978363 -97.93826,-73.843934 -11.236386,-3.96898 -20.786898,-5.89043 -29.177936,-5.89044 z"
       id="path4729"
       inkscape:connector-curvature="0" />
  </g>
  <g
     transform="translate(432.85712,625.71425)"
     id="g4731">
    <path
       inkscape:connector-curvature="0"
       id="path4733"
       d="m 124.75797,176.70027 -0.0866,-0.1903 c 0,0 -0.15318,-0.3308 -0.27062,-0.5868 -0.23492,-0.511 -0.5777,-1.2631 -1.01416,-2.2359 -0.87294,-1.946 -2.11919,-4.7746 -3.61487,-8.3145 -2.99015,-7.0766 -6.97676,-16.9972 -10.96299,-28.3632 -2.6e-4,0 -3.5e-4,0 -6.9e-4,-0.01 -0.001,-0.01 -0.003,0 -0.004,0 -7.96398,-22.8276 -15.911548,-51.28818 -15.964138,-74.55609 2.2e-4,-2.48557 0.096,-4.90914 0.28821,-7.26377 2.03807,-23.28556 15.864038,-49.96745 29.290338,-71.21593 6.9e-4,0 6.9e-4,0 10e-4,0 6.72218,-10.55222 13.32346,-19.66639 18.24413,-26.13861 2.46054,-3.23635 4.50111,-5.81301 5.92735,-7.58183 0.71313,-0.88396 1.27229,-1.5663 1.65487,-2.02935 0.0674,-0.0815 0.0986,-0.11779 0.15491,-0.18576 l 0.43504,-0.51515"
       style="color:#000000;font-style:normal;font-variant:normal;font-weight:normal;font-stretch:normal;font-size:medium;line-height:normal;font-family:sans-serif;text-indent:0;text-align:start;text-decoration:none;text-decoration-line:none;text-decoration-style:solid;text-decoration-color:#000000;letter-spacing:normal;word-spacing:normal;text-transform:none;direction:ltr;block-progression:tb;writing-mode:lr-tb;baseline-shift:baseline;text-anchor:start;white-space:normal;clip-rule:nonzero;display:inline;overflow:visible;visibility:visible;opacity:1;isolation:auto;mix-blend-mode:normal;color-interpolation:sRGB;color-interpolation-filters:linearRGB;solid-color:#000000;solid-opacity:1;fill:none;fill-opacity:1;fill-rule:nonzero;stroke:#ff0000;stroke-width:0.6116575;stroke-linecap:butt;stroke-linejoin:miter;stroke-miterlimit:4;stroke-dasharray:none;stroke-dashoffset:0;stroke-opacity:1;color-rendering:auto;image-rendering:auto;shape-rendering:auto;text-rendering:auto;enable-background:accumulate"
       transform="translate(1.1696166e-6,110.01968)" />
    <path
       inkscape:connector-curvature="0"
       style="color:#000000;font-style:normal;font-variant:normal;font-weight:normal;font-stretch:normal;font-size:medium;line-height:normal;font-family:sans-serif;text-indent:0;text-align:start;text-decoration:none;text-decoration-line:none;text-decoration-style:solid;text-decoration-color:#000000;letter-spacing:normal;word-spacing:normal;text-transform:none;direction:ltr;block-progression:tb;writing-mode:lr-tb;baseline-shift:baseline;text-anchor:start;white-space:normal;clip-rule:nonzero;display:inline;overflow:visible;visibility:visible;opacity:1;isolation:auto;mix-blend-mode:normal;color-interpolation:sRGB;color-interpolation-filters:linearRGB;solid-color:#000000;solid-opacity:1;fill:none;fill-opacity:1;fill-rule:nonzero;stroke:#ff0000;stroke-width:0.6116575;stroke-linecap:butt;stroke-linejoin:miter;stroke-miterlimit:4;stroke-dasharray:none;stroke-dashoffset:0;stroke-opacity:1;color-rendering:auto;image-rendering:auto;shape-rendering:auto;text-rendering:auto;enable-background:accumulate"
       d="m -11.461958,176.70027 0.0866,-0.1903 c 0,0 0.15318,-0.3308 0.27062,-0.5868 0.23492,-0.511 0.57769,-1.2631 1.01417,-2.2359 0.87293,-1.946 2.11918,-4.7746 3.61487,-8.3145 2.99014,-7.0766 6.97675,-16.9972 10.96298,-28.3632 2.5e-4,0 3.5e-4,0 6.8e-4,-0.01 0.001,-0.01 0.003,0 0.004,0 7.96397,-22.8276 15.91155,-51.28818 15.96413,-74.55609 -2.1e-4,-2.48557 -0.096,-4.90914 -0.2882,-7.26377 -2.03808,-23.28556 -15.86404,-49.96745 -29.29035,-71.21593 -6.9e-4,0 -6.9e-4,0 -10e-4,0 -6.72218,-10.55222 -13.32346,-19.66639 -18.24413,-26.13861 -2.46053,-3.23635 -4.50112,-5.81301 -5.92736,-7.58183 -0.71312,-0.88396 -1.27229,-1.5663 -1.65486,-2.02935 -0.0674,-0.0815 -0.0986,-0.11779 -0.15495,-0.18576 l -0.43505,-0.51515"
       id="path4735"
       transform="translate(1.1696166e-6,110.01968)" />
    <g
       transform="translate(35.249377,-29.94219)"
       id="g4737"
       style="display:inline">
      <g
         id="g4739"
         style="display:inline">
        <path
           inkscape:connector-curvature="0"
           style="fill:none;stroke:#ff0000;stroke-width:0.51025534;stroke-linejoin:miter;stroke-miterlimit:4;stroke-dasharray:none;stroke-opacity:1"
           d="M 20.838425,93.319177 48.130411,120.61708 21.691293,169.75856 -5.6006889,119.76402 Z"
           id="path4741" />
      </g>
    </g>
    <path
       inkscape:connector-curvature="0"
       id="path4743"
       d="m -105.95335,-109.59696 c -44.14807,0 -44.14921,53.609542 -44.14921,76.499121 0,24.8831332 -0.0171,98.462475 74.342278,104.733103 -13.338666,10.34833 -22.507519,22.05754 -27.400778,35.015626 -6.41561,16.96328 -5.13028,35.42954 3.786326,54.89384 11.653208,25.3362 39.836036,52.66581 74.215712,52.66581 22.0921658,0 53.371553,-11.43569 81.806829,-62.97803 28.453392,51.54234 59.699173,62.97803 81.809463,62.97803 34.37967,0 62.55987,-27.32894 74.21306,-52.6289 8.91662,-19.4643 10.20459,-37.93353 3.78897,-54.91493 -4.91138,-12.976214 -14.10133,-24.682441 -27.42187,-34.994537 26.91293,-2.247278 46.75848,-13.392917 59.00976,-33.20156 10.45707,-16.963302 15.35097,-39.7078983 15.35097,-71.568452 0,-22.889579 -0.001,-76.499121 -44.16766,-76.499121 -8.40917,0 -17.92344,1.93958 -29.17793,5.89044 -30.79753,10.857549 -68.44584,40.511416 -97.853896,73.759559 l -30.878613,-30.87861 c -2.546288,-2.546291 -6.647939,-2.546291 -9.194227,0 l -30.962988,30.962985 c -29.4188719,-33.27801 -67.105817,-62.978363 -97.93826,-73.843934 -11.236386,-3.96898 -20.786898,-5.89043 -29.177936,-5.89044 z"
       style="display:inline;fill:none;stroke:#ff0000;stroke-width:0.61165744;stroke-miterlimit:4;stroke-dasharray:none;stroke-opacity:1"
       transform="translate(1.1696166e-6,110.01968)" />
  </g>
  <g
     id="g4745"
     transform="translate(0,944.99995)">
    <path
       transform="translate(1.1696166e-6,110.01968)"
       style="color:#000000;font-style:normal;font-variant:normal;font-weight:normal;font-stretch:normal;font-size:medium;line-height:normal;font-family:sans-serif;text-indent:0;text-align:start;text-decoration:none;text-decoration-line:none;text-decoration-style:solid;text-decoration-color:#000000;letter-spacing:normal;word-spacing:normal;text-transform:none;direction:ltr;block-progression:tb;writing-mode:lr-tb;baseline-shift:baseline;text-anchor:start;white-space:normal;clip-rule:nonzero;display:inline;overflow:visible;visibility:visible;opacity:1;isolation:auto;mix-blend-mode:normal;color-interpolation:sRGB;color-interpolation-filters:linearRGB;solid-color:#000000;solid-opacity:1;fill:none;fill-opacity:1;fill-rule:nonzero;stroke:#ff0000;stroke-width:0.6116575;stroke-linecap:butt;stroke-linejoin:miter;stroke-miterlimit:4;stroke-dasharray:none;stroke-dashoffset:0;stroke-opacity:1;color-rendering:auto;image-rendering:auto;shape-rendering:auto;text-rendering:auto;enable-background:accumulate"
       d="m 124.75797,176.70027 -0.0866,-0.1903 c 0,0 -0.15318,-0.3308 -0.27062,-0.5868 -0.23492,-0.511 -0.5777,-1.2631 -1.01416,-2.2359 -0.87294,-1.946 -2.11919,-4.7746 -3.61487,-8.3145 -2.99015,-7.0766 -6.97676,-16.9972 -10.96299,-28.3632 -2.6e-4,0 -3.5e-4,0 -6.9e-4,-0.01 -0.001,-0.01 -0.003,0 -0.004,0 -7.96398,-22.8276 -15.911548,-51.28818 -15.964138,-74.55609 2.2e-4,-2.48557 0.096,-4.90914 0.28821,-7.26377 2.03807,-23.28556 15.864038,-49.96745 29.290338,-71.21593 6.9e-4,0 6.9e-4,0 10e-4,0 6.72218,-10.55222 13.32346,-19.66639 18.24413,-26.13861 2.46054,-3.23635 4.50111,-5.81301 5.92735,-7.58183 0.71313,-0.88396 1.27229,-1.5663 1.65487,-2.02935 0.0674,-0.0815 0.0986,-0.11779 0.15491,-0.18576 l 0.43504,-0.51515"
       id="path4747"
       inkscape:connector-curvature="0" />
    <path
       transform="translate(1.1696166e-6,110.01968)"
       id="path4749"
       d="m -11.461958,176.70027 0.0866,-0.1903 c 0,0 0.15318,-0.3308 0.27062,-0.5868 0.23492,-0.511 0.57769,-1.2631 1.01417,-2.2359 0.87293,-1.946 2.11918,-4.7746 3.61487,-8.3145 2.99014,-7.0766 6.97675,-16.9972 10.96298,-28.3632 2.5e-4,0 3.5e-4,0 6.8e-4,-0.01 0.001,-0.01 0.003,0 0.004,0 7.96397,-22.8276 15.91155,-51.28818 15.96413,-74.55609 -2.1e-4,-2.48557 -0.096,-4.90914 -0.2882,-7.26377 -2.03808,-23.28556 -15.86404,-49.96745 -29.29035,-71.21593 -6.9e-4,0 -6.9e-4,0 -10e-4,0 -6.72218,-10.55222 -13.32346,-19.66639 -18.24413,-26.13861 -2.46053,-3.23635 -4.50112,-5.81301 -5.92736,-7.58183 -0.71312,-0.88396 -1.27229,-1.5663 -1.65486,-2.02935 -0.0674,-0.0815 -0.0986,-0.11779 -0.15495,-0.18576 l -0.43505,-0.51515"
       style="color:#000000;font-style:normal;font-variant:normal;font-weight:normal;font-stretch:normal;font-size:medium;line-height:normal;font-family:sans-serif;text-indent:0;text-align:start;text-decoration:none;text-decoration-line:none;text-decoration-style:solid;text-decoration-color:#000000;letter-spacing:normal;word-spacing:normal;text-transform:none;direction:ltr;block-progression:tb;writing-mode:lr-tb;baseline-shift:baseline;text-anchor:start;white-space:normal;clip-rule:nonzero;display:inline;overflow:visible;visibility:visible;opacity:1;isolation:auto;mix-blend-mode:normal;color-interpolation:sRGB;color-interpolation-filters:linearRGB;solid-color:#000000;solid-opacity:1;fill:none;fill-opacity:1;fill-rule:nonzero;stroke:#ff0000;stroke-width:0.6116575;stroke-linecap:butt;stroke-linejoin:miter;stroke-miterlimit:4;stroke-dasharray:none;stroke-dashoffset:0;stroke-opacity:1;color-rendering:auto;image-rendering:auto;shape-rendering:auto;text-rendering:auto;enable-background:accumulate"
       inkscape:connector-curvature="0" />
    <g
       style="display:inline"
       id="g4751"
       transform="translate(35.249377,-29.94219)">
      <g
         style="display:inline"
         id="g4753">
        <path
           id="path4755"
           d="M 20.838425,93.319177 48.130411,120.61708 21.691293,169.75856 -5.6006889,119.76402 Z"
           style="fill:none;stroke:#ff0000;stroke-width:0.51025534;stroke-linejoin:miter;stroke-miterlimit:4;stroke-dasharray:none;stroke-opacity:1"
           inkscape:connector-curvature="0" />
      </g>
    </g>
    <path
       transform="translate(1.1696166e-6,110.01968)"
       style="display:inline;fill:none;stroke:#ff0000;stroke-width:0.61165744;stroke-miterlimit:4;stroke-dasharray:none;stroke-opacity:1"
       d="m -105.95335,-109.59696 c -44.14807,0 -44.14921,53.609542 -44.14921,76.499121 0,24.8831332 -0.0171,98.462475 74.342278,104.733103 -13.338666,10.34833 -22.507519,22.05754 -27.400778,35.015626 -6.41561,16.96328 -5.13028,35.42954 3.786326,54.89384 11.653208,25.3362 39.836036,52.66581 74.215712,52.66581 22.0921658,0 53.371553,-11.43569 81.806829,-62.97803 28.453392,51.54234 59.699173,62.97803 81.809463,62.97803 34.37967,0 62.55987,-27.32894 74.21306,-52.6289 8.91662,-19.4643 10.20459,-37.93353 3.78897,-54.91493 -4.91138,-12.976214 -14.10133,-24.682441 -27.42187,-34.994537 26.91293,-2.247278 46.75848,-13.392917 59.00976,-33.20156 10.45707,-16.963302 15.35097,-39.7078983 15.35097,-71.568452 0,-22.889579 -0.001,-76.499121 -44.16766,-76.499121 -8.40917,0 -17.92344,1.93958 -29.17793,5.89044 -30.79753,10.857549 -68.44584,40.511416 -97.853896,73.759559 l -30.878613,-30.87861 c -2.546288,-2.546291 -6.647939,-2.546291 -9.194227,0 l -30.962988,30.962985 c -29.4188719,-33.27801 -67.105817,-62.978363 -97.93826,-73.843934 -11.236386,-3.96898 -20.786898,-5.89043 -29.177936,-5.89044 z"
       id="path4757"
       inkscape:connector-curvature="0" />
  </g>
  <g
     transform="translate(859.28567,944.99995)"
     id="g4759">
    <path
       inkscape:connector-curvature="0"
       id="path4761"
       d="m 124.75797,176.70027 -0.0866,-0.1903 c 0,0 -0.15318,-0.3308 -0.27062,-0.5868 -0.23492,-0.511 -0.5777,-1.2631 -1.01416,-2.2359 -0.87294,-1.946 -2.11919,-4.7746 -3.61487,-8.3145 -2.99015,-7.0766 -6.97676,-16.9972 -10.96299,-28.3632 -2.6e-4,0 -3.5e-4,0 -6.9e-4,-0.01 -0.001,-0.01 -0.003,0 -0.004,0 -7.96398,-22.8276 -15.911548,-51.28818 -15.964138,-74.55609 2.2e-4,-2.48557 0.096,-4.90914 0.28821,-7.26377 2.03807,-23.28556 15.864038,-49.96745 29.290338,-71.21593 6.9e-4,0 6.9e-4,0 10e-4,0 6.72218,-10.55222 13.32346,-19.66639 18.24413,-26.13861 2.46054,-3.23635 4.50111,-5.81301 5.92735,-7.58183 0.71313,-0.88396 1.27229,-1.5663 1.65487,-2.02935 0.0674,-0.0815 0.0986,-0.11779 0.15491,-0.18576 l 0.43504,-0.51515"
       style="color:#000000;font-style:normal;font-variant:normal;font-weight:normal;font-stretch:normal;font-size:medium;line-height:normal;font-family:sans-serif;text-indent:0;text-align:start;text-decoration:none;text-decoration-line:none;text-decoration-style:solid;text-decoration-color:#000000;letter-spacing:normal;word-spacing:normal;text-transform:none;direction:ltr;block-progression:tb;writing-mode:lr-tb;baseline-shift:baseline;text-anchor:start;white-space:normal;clip-rule:nonzero;display:inline;overflow:visible;visibility:visible;opacity:1;isolation:auto;mix-blend-mode:normal;color-interpolation:sRGB;color-interpolation-filters:linearRGB;solid-color:#000000;solid-opacity:1;fill:none;fill-opacity:1;fill-rule:nonzero;stroke:#ff0000;stroke-width:0.6116575;stroke-linecap:butt;stroke-linejoin:miter;stroke-miterlimit:4;stroke-dasharray:none;stroke-dashoffset:0;stroke-opacity:1;color-rendering:auto;image-rendering:auto;shape-rendering:auto;text-rendering:auto;enable-background:accumulate"
       transform="translate(1.1696166e-6,110.01968)" />
    <path
       inkscape:connector-curvature="0"
       style="color:#000000;font-style:normal;font-variant:normal;font-weight:normal;font-stretch:normal;font-size:medium;line-height:normal;font-family:sans-serif;text-indent:0;text-align:start;text-decoration:none;text-decoration-line:none;text-decoration-style:solid;text-decoration-color:#000000;letter-spacing:normal;word-spacing:normal;text-transform:none;direction:ltr;block-progression:tb;writing-mode:lr-tb;baseline-shift:baseline;text-anchor:start;white-space:normal;clip-rule:nonzero;display:inline;overflow:visible;visibility:visible;opacity:1;isolation:auto;mix-blend-mode:normal;color-interpolation:sRGB;color-interpolation-filters:linearRGB;solid-color:#000000;solid-opacity:1;fill:none;fill-opacity:1;fill-rule:nonzero;stroke:#ff0000;stroke-width:0.6116575;stroke-linecap:butt;stroke-linejoin:miter;stroke-miterlimit:4;stroke-dasharray:none;stroke-dashoffset:0;stroke-opacity:1;color-rendering:auto;image-rendering:auto;shape-rendering:auto;text-rendering:auto;enable-background:accumulate"
       d="m -11.461958,176.70027 0.0866,-0.1903 c 0,0 0.15318,-0.3308 0.27062,-0.5868 0.23492,-0.511 0.57769,-1.2631 1.01417,-2.2359 0.87293,-1.946 2.11918,-4.7746 3.61487,-8.3145 2.99014,-7.0766 6.97675,-16.9972 10.96298,-28.3632 2.5e-4,0 3.5e-4,0 6.8e-4,-0.01 0.001,-0.01 0.003,0 0.004,0 7.96397,-22.8276 15.91155,-51.28818 15.96413,-74.55609 -2.1e-4,-2.48557 -0.096,-4.90914 -0.2882,-7.26377 -2.03808,-23.28556 -15.86404,-49.96745 -29.29035,-71.21593 -6.9e-4,0 -6.9e-4,0 -10e-4,0 -6.72218,-10.55222 -13.32346,-19.66639 -18.24413,-26.13861 -2.46053,-3.23635 -4.50112,-5.81301 -5.92736,-7.58183 -0.71312,-0.88396 -1.27229,-1.5663 -1.65486,-2.02935 -0.0674,-0.0815 -0.0986,-0.11779 -0.15495,-0.18576 l -0.43505,-0.51515"
       id="path4763"
       transform="translate(1.1696166e-6,110.01968)" />
    <g
       transform="translate(35.249377,-29.94219)"
       id="g4765"
       style="display:inline">
      <g
         id="g4767"
         style="display:inline">
        <path
           inkscape:connector-curvature="0"
           style="fill:none;stroke:#ff0000;stroke-width:0.51025534;stroke-linejoin:miter;stroke-miterlimit:4;stroke-dasharray:none;stroke-opacity:1"
           d="M 20.838425,93.319177 48.130411,120.61708 21.691293,169.75856 -5.6006889,119.76402 Z"
           id="path4769" />
      </g>
    </g>
    <path
       inkscape:connector-curvature="0"
       id="path4771"
       d="m -105.95335,-109.59696 c -44.14807,0 -44.14921,53.609542 -44.14921,76.499121 0,24.8831332 -0.0171,98.462475 74.342278,104.733103 -13.338666,10.34833 -22.507519,22.05754 -27.400778,35.015626 -6.41561,16.96328 -5.13028,35.42954 3.786326,54.89384 11.653208,25.3362 39.836036,52.66581 74.215712,52.66581 22.0921658,0 53.371553,-11.43569 81.806829,-62.97803 28.453392,51.54234 59.699173,62.97803 81.809463,62.97803 34.37967,0 62.55987,-27.32894 74.21306,-52.6289 8.91662,-19.4643 10.20459,-37.93353 3.78897,-54.91493 -4.91138,-12.976214 -14.10133,-24.682441 -27.42187,-34.994537 26.91293,-2.247278 46.75848,-13.392917 59.00976,-33.20156 10.45707,-16.963302 15.35097,-39.7078983 15.35097,-71.568452 0,-22.889579 -0.001,-76.499121 -44.16766,-76.499121 -8.40917,0 -17.92344,1.93958 -29.17793,5.89044 -30.79753,10.857549 -68.44584,40.511416 -97.853896,73.759559 l -30.878613,-30.87861 c -2.546288,-2.546291 -6.647939,-2.546291 -9.194227,0 l -30.962988,30.962985 c -29.4188719,-33.27801 -67.105817,-62.978363 -97.93826,-73.843934 -11.236386,-3.96898 -20.786898,-5.89043 -29.177936,-5.89044 z"
       style="display:inline;fill:none;stroke:#ff0000;stroke-width:0.61165744;stroke-miterlimit:4;stroke-dasharray:none;stroke-opacity:1"
       transform="translate(1.1696166e-6,110.01968)" />
  </g>
  <g
     id="g4773"
     transform="translate(432.85712,944.99995)">
    <path
       transform="translate(1.1696166e-6,110.01968)"
       style="color:#000000;font-style:normal;font-variant:normal;font-weight:normal;font-stretch:normal;font-size:medium;line-height:normal;font-family:sans-serif;text-indent:0;text-align:start;text-decoration:none;text-decoration-line:none;text-decoration-style:solid;text-decoration-color:#000000;letter-spacing:normal;word-spacing:normal;text-transform:none;direction:ltr;block-progression:tb;writing-mode:lr-tb;baseline-shift:baseline;text-anchor:start;white-space:normal;clip-rule:nonzero;display:inline;overflow:visible;visibility:visible;opacity:1;isolation:auto;mix-blend-mode:normal;color-interpolation:sRGB;color-interpolation-filters:linearRGB;solid-color:#000000;solid-opacity:1;fill:none;fill-opacity:1;fill-rule:nonzero;stroke:#ff0000;stroke-width:0.6116575;stroke-linecap:butt;stroke-linejoin:miter;stroke-miterlimit:4;stroke-dasharray:none;stroke-dashoffset:0;stroke-opacity:1;color-rendering:auto;image-rendering:auto;shape-rendering:auto;text-rendering:auto;enable-background:accumulate"
       d="m 124.75797,176.70027 -0.0866,-0.1903 c 0,0 -0.15318,-0.3308 -0.27062,-0.5868 -0.23492,-0.511 -0.5777,-1.2631 -1.01416,-2.2359 -0.87294,-1.946 -2.11919,-4.7746 -3.61487,-8.3145 -2.99015,-7.0766 -6.97676,-16.9972 -10.96299,-28.3632 -2.6e-4,0 -3.5e-4,0 -6.9e-4,-0.01 -0.001,-0.01 -0.003,0 -0.004,0 -7.96398,-22.8276 -15.911548,-51.28818 -15.964138,-74.55609 2.2e-4,-2.48557 0.096,-4.90914 0.28821,-7.26377 2.03807,-23.28556 15.864038,-49.96745 29.290338,-71.21593 6.9e-4,0 6.9e-4,0 10e-4,0 6.72218,-10.55222 13.32346,-19.66639 18.24413,-26.13861 2.46054,-3.23635 4.50111,-5.81301 5.92735,-7.58183 0.71313,-0.88396 1.27229,-1.5663 1.65487,-2.02935 0.0674,-0.0815 0.0986,-0.11779 0.15491,-0.18576 l 0.43504,-0.51515"
       id="path4775"
       inkscape:connector-curvature="0" />
    <path
       transform="translate(1.1696166e-6,110.01968)"
       id="path4777"
       d="m -11.461958,176.70027 0.0866,-0.1903 c 0,0 0.15318,-0.3308 0.27062,-0.5868 0.23492,-0.511 0.57769,-1.2631 1.01417,-2.2359 0.87293,-1.946 2.11918,-4.7746 3.61487,-8.3145 2.99014,-7.0766 6.97675,-16.9972 10.96298,-28.3632 2.5e-4,0 3.5e-4,0 6.8e-4,-0.01 0.001,-0.01 0.003,0 0.004,0 7.96397,-22.8276 15.91155,-51.28818 15.96413,-74.55609 -2.1e-4,-2.48557 -0.096,-4.90914 -0.2882,-7.26377 -2.03808,-23.28556 -15.86404,-49.96745 -29.29035,-71.21593 -6.9e-4,0 -6.9e-4,0 -10e-4,0 -6.72218,-10.55222 -13.32346,-19.66639 -18.24413,-26.13861 -2.46053,-3.23635 -4.50112,-5.81301 -5.92736,-7.58183 -0.71312,-0.88396 -1.27229,-1.5663 -1.65486,-2.02935 -0.0674,-0.0815 -0.0986,-0.11779 -0.15495,-0.18576 l -0.43505,-0.51515"
       style="color:#000000;font-style:normal;font-variant:normal;font-weight:normal;font-stretch:normal;font-size:medium;line-height:normal;font-family:sans-serif;text-indent:0;text-align:start;text-decoration:none;text-decoration-line:none;text-decoration-style:solid;text-decoration-color:#000000;letter-spacing:normal;word-spacing:normal;text-transform:none;direction:ltr;block-progression:tb;writing-mode:lr-tb;baseline-shift:baseline;text-anchor:start;white-space:normal;clip-rule:nonzero;display:inline;overflow:visible;visibility:visible;opacity:1;isolation:auto;mix-blend-mode:normal;color-interpolation:sRGB;color-interpolation-filters:linearRGB;solid-color:#000000;solid-opacity:1;fill:none;fill-opacity:1;fill-rule:nonzero;stroke:#ff0000;stroke-width:0.6116575;stroke-linecap:butt;stroke-linejoin:miter;stroke-miterlimit:4;stroke-dasharray:none;stroke-dashoffset:0;stroke-opacity:1;color-rendering:auto;image-rendering:auto;shape-rendering:auto;text-rendering:auto;enable-background:accumulate"
       inkscape:connector-curvature="0" />
    <g
       style="display:inline"
       id="g4779"
       transform="translate(35.249377,-29.94219)">
      <g
         style="display:inline"
         id="g4781">
        <path
           id="path4783"
           d="M 20.838425,93.319177 48.130411,120.61708 21.691293,169.75856 -5.6006889,119.76402 Z"
           style="fill:none;stroke:#ff0000;stroke-width:0.51025534;stroke-linejoin:miter;stroke-miterlimit:4;stroke-dasharray:none;stroke-opacity:1"
           inkscape:connector-curvature="0" />
      </g>
    </g>
    <path
       transform="translate(1.1696166e-6,110.01968)"
       style="display:inline;fill:none;stroke:#ff0000;stroke-width:0.61165744;stroke-miterlimit:4;stroke-dasharray:none;stroke-opacity:1"
       d="m -105.95335,-109.59696 c -44.14807,0 -44.14921,53.609542 -44.14921,76.499121 0,24.8831332 -0.0171,98.462475 74.342278,104.733103 -13.338666,10.34833 -22.507519,22.05754 -27.400778,35.015626 -6.41561,16.96328 -5.13028,35.42954 3.786326,54.89384 11.653208,25.3362 39.836036,52.66581 74.215712,52.66581 22.0921658,0 53.371553,-11.43569 81.806829,-62.97803 28.453392,51.54234 59.699173,62.97803 81.809463,62.97803 34.37967,0 62.55987,-27.32894 74.21306,-52.6289 8.91662,-19.4643 10.20459,-37.93353 3.78897,-54.91493 -4.91138,-12.976214 -14.10133,-24.682441 -27.42187,-34.994537 26.91293,-2.247278 46.75848,-13.392917 59.00976,-33.20156 10.45707,-16.963302 15.35097,-39.7078983 15.35097,-71.568452 0,-22.889579 -0.001,-76.499121 -44.16766,-76.499121 -8.40917,0 -17.92344,1.93958 -29.17793,5.89044 -30.79753,10.857549 -68.44584,40.511416 -97.853896,73.759559 l -30.878613,-30.87861 c -2.546288,-2.546291 -6.647939,-2.546291 -9.194227,0 l -30.962988,30.962985 c -29.4188719,-33.27801 -67.105817,-62.978363 -97.93826,-73.843934 -11.236386,-3.96898 -20.786898,-5.89043 -29.177936,-5.89044 z"
       id="path4785"
       inkscape:connector-curvature="0" />
  </g>
</svg>
